<svg xmlns="http://www.w3.org/2000/svg" xmlns:xlink="http://www.w3.org/1999/xlink" width="1200" zoomAndPan="magnify" viewBox="0 0 900 225" height="300" preserveAspectRatio="xMidYMid meet" version="1.0"><defs><clipPath id="9bc5dde0c2"><path d="M 0 145.996094 L 900 145.996094 L 900 225 L 0 225 Z M 0 145.996094 " clip-rule="nonzero"/></clipPath></defs><g clip-path="url(#9bc5dde0c2)"><path fill="#fe700f" d="M 913.8125 153.75 C 913.8125 149.453125 910.269531 145.984375 905.972656 146.105469 C 836.414062 148.101562 833.804688 176.578125 759.207031 176.578125 C 681.902344 176.578125 681.902344 145.996094 604.597656 145.996094 C 527.292969 145.996094 527.292969 176.578125 449.988281 176.578125 C 372.6875 176.578125 372.6875 145.996094 295.386719 145.996094 C 218.082031 145.996094 218.082031 176.578125 140.78125 176.578125 C 66.1875 176.578125 63.574219 148.101562 -5.980469 146.105469 C -10.277344 145.984375 -13.824219 149.453125 -13.824219 153.75 L -13.824219 296.355469 C -13.824219 300.578125 -10.398438 304 -6.175781 304 L 906.167969 304 C 910.390625 304 913.8125 300.578125 913.8125 296.355469 Z M 913.8125 153.75 " fill-opacity="1" fill-rule="nonzero"/></g></svg>