<svg xmlns="http://www.w3.org/2000/svg" xmlns:xlink="http://www.w3.org/1999/xlink" width="1200" zoomAndPan="magnify" viewBox="0 0 900 74.999997" height="100" preserveAspectRatio="xMidYMid meet" version="1.0"><defs><clipPath id="c11196cc4a"><path d="M 170.855469 2 L 231.605469 2 L 231.605469 71.289062 L 170.855469 71.289062 Z M 170.855469 2 " clip-rule="nonzero"/></clipPath><clipPath id="cb132957c0"><path d="M 378 3.152344 L 389 3.152344 L 389 19 L 378 19 Z M 378 3.152344 " clip-rule="nonzero"/></clipPath><clipPath id="e76a138fc2"><path d="M 392 21 L 404.902344 21 L 404.902344 32 L 392 32 Z M 392 21 " clip-rule="nonzero"/></clipPath><clipPath id="7fc99f4973"><path d="M 328.402344 45 L 340 45 L 340 58 L 328.402344 58 Z M 328.402344 45 " clip-rule="nonzero"/></clipPath><clipPath id="6ef7948b61"><path d="M 340 46 L 363 46 L 363 68.402344 L 340 68.402344 Z M 340 46 " clip-rule="nonzero"/></clipPath><clipPath id="ed47c1a2af"><path d="M 532 7.148438 L 545 7.148438 L 545 11 L 532 11 Z M 532 7.148438 " clip-rule="nonzero"/></clipPath><clipPath id="cd95e7409e"><path d="M 521 61 L 556 61 L 556 64.148438 L 521 64.148438 Z M 521 61 " clip-rule="nonzero"/></clipPath><clipPath id="018402ab0f"><path d="M 496.386719 44 L 580.386719 44 L 580.386719 61 L 496.386719 61 Z M 496.386719 44 " clip-rule="nonzero"/></clipPath><clipPath id="92a3291529"><path d="M 12.574219 10 L 79.324219 10 L 79.324219 69.902344 L 12.574219 69.902344 Z M 12.574219 10 " clip-rule="nonzero"/></clipPath><clipPath id="1b61af76d9"><path d="M 31 3.152344 L 62 3.152344 L 62 31 L 31 31 Z M 31 3.152344 " clip-rule="nonzero"/></clipPath><clipPath id="0090b808c6"><path d="M 673 7.5 L 739.996094 7.5 L 739.996094 72 L 673 72 Z M 673 7.5 " clip-rule="nonzero"/></clipPath><clipPath id="b00691bf6d"><path d="M 841 10.933594 L 864 10.933594 L 864 61.933594 L 841 61.933594 Z M 841 10.933594 " clip-rule="nonzero"/></clipPath><clipPath id="678fb871c6"><path d="M 811.964844 18 L 834 18 L 834 55 L 811.964844 55 Z M 811.964844 18 " clip-rule="nonzero"/></clipPath><clipPath id="c778f4daaf"><path d="M 870 18 L 892.214844 18 L 892.214844 55 L 870 55 Z M 870 18 " clip-rule="nonzero"/></clipPath></defs><g clip-path="url(#c11196cc4a)"><path fill="#f9e5df" d="M 231.601562 66.53125 C 231.601562 66.511719 231.613281 66.496094 231.613281 66.476562 C 231.613281 66.3125 231.574219 66.152344 231.503906 66.007812 C 230.90625 63.011719 229.320312 59.433594 225.152344 58.921875 C 222.546875 58.601562 215.3125 58.402344 206.886719 58.367188 L 221.367188 25.972656 C 221.378906 25.9375 221.394531 25.902344 221.40625 25.867188 C 222.84375 21.496094 213.792969 16.84375 212.035156 15.992188 C 210.949219 15.363281 211.449219 13.9375 211.570312 13.640625 C 212.570312 12.125 213.0625 10.460938 213.050781 8.644531 C 213.035156 8.476562 212.980469 8.320312 212.890625 8.175781 C 211.28125 5.617188 208.550781 4.6875 206.230469 5.925781 C 203.507812 7.378906 204.605469 10.085938 205.015625 11.101562 C 205.273438 11.882812 205.363281 12.683594 205.28125 13.503906 C 205.109375 14.355469 204.648438 15.003906 203.902344 15.453125 C 203.3125 15.605469 202.753906 15.527344 202.230469 15.210938 C 201.992188 15.011719 201.792969 14.78125 201.628906 14.519531 C 201.460938 14.253906 201.34375 13.972656 201.269531 13.671875 C 201.199219 13.371094 201.171875 13.066406 201.199219 12.757812 C 201.222656 12.449219 201.296875 12.152344 201.417969 11.863281 C 202.050781 10.851562 202.5 9.761719 202.773438 8.597656 C 203.042969 7.433594 203.117188 6.253906 202.996094 5.066406 C 202.972656 4.933594 202.921875 4.808594 202.847656 4.691406 C 201.003906 1.742188 197.273438 2.539062 197.121094 2.570312 C 195.464844 2.933594 191.523438 3.957031 190.722656 5.644531 C 189.929688 7.316406 191.90625 10.703125 193.195312 12.632812 C 194.882812 16.558594 189.832031 21.949219 187.738281 23.699219 C 187.117188 24.207031 181.636719 28.757812 181.207031 32.09375 C 180.808594 35.191406 185.59375 49.347656 186.558594 52.15625 C 186.582031 52.21875 186.609375 52.28125 186.640625 52.339844 C 188.054688 54.867188 192.097656 54.058594 193.621094 53.753906 C 193.878906 53.703125 194.035156 53.972656 194.09375 54.121094 C 194.128906 54.214844 194.175781 54.304688 194.230469 54.386719 C 194.890625 55.660156 195.347656 57.003906 195.605469 58.417969 C 189.992188 58.488281 184.496094 58.636719 179.996094 58.867188 C 176.652344 59.042969 173.183594 61.574219 171.671875 65.753906 C 171.667969 65.769531 171.664062 65.78125 171.660156 65.796875 C 171.164062 67.195312 170.90625 68.636719 170.886719 70.117188 C 170.882812 70.265625 170.910156 70.410156 170.964844 70.550781 C 171.019531 70.6875 171.097656 70.808594 171.203125 70.914062 C 171.308594 71.023438 171.429688 71.105469 171.566406 71.160156 C 171.703125 71.21875 171.847656 71.246094 171.996094 71.246094 L 230.738281 71.246094 C 231.03125 71.246094 231.285156 71.144531 231.5 70.945312 C 231.714844 70.742188 231.828125 70.492188 231.84375 70.199219 C 231.886719 68.964844 231.804688 67.742188 231.601562 66.53125 Z M 188.617188 51.320312 C 186.453125 44.996094 183.152344 34.359375 183.410156 32.378906 C 183.648438 30.519531 187.054688 27.121094 189.152344 25.410156 C 189.515625 25.105469 198.035156 17.910156 195.183594 11.632812 C 195.15625 11.578125 195.128906 11.523438 195.09375 11.472656 C 193.753906 9.488281 192.636719 7.140625 192.71875 6.613281 C 193.039062 6.121094 195.367188 5.226562 197.59375 4.738281 C 198.179688 4.605469 198.761719 4.621094 199.339844 4.789062 C 199.917969 4.957031 200.417969 5.253906 200.839844 5.683594 C 200.875 7.542969 200.40625 9.265625 199.441406 10.855469 C 199.203125 11.375 199.058594 11.917969 199 12.484375 C 198.945312 13.050781 198.980469 13.613281 199.113281 14.167969 C 199.246094 14.722656 199.464844 15.242188 199.769531 15.722656 C 200.074219 16.207031 200.445312 16.625 200.890625 16.980469 C 200.921875 17.003906 200.953125 17.027344 200.988281 17.050781 C 201.53125 17.398438 202.125 17.613281 202.769531 17.699219 C 203.410156 17.785156 204.039062 17.730469 204.65625 17.539062 C 205.375 17.214844 205.980469 16.746094 206.46875 16.128906 C 206.960938 15.511719 207.28125 14.820312 207.433594 14.046875 C 207.453125 13.988281 207.464844 13.929688 207.472656 13.867188 C 207.617188 12.636719 207.484375 11.4375 207.074219 10.269531 C 206.367188 8.523438 206.679688 8.203125 207.277344 7.882812 C 208.46875 7.25 209.867188 7.742188 210.839844 9.101562 C 210.695312 10.359375 210.285156 11.523438 209.609375 12.597656 C 209.589844 12.628906 209.574219 12.664062 209.558594 12.699219 C 209.328125 13.144531 209.1875 13.621094 209.132812 14.121094 C 209.082031 14.621094 209.121094 15.117188 209.253906 15.601562 C 209.386719 16.089844 209.605469 16.535156 209.90625 16.941406 C 210.203125 17.34375 210.566406 17.679688 210.992188 17.949219 C 214.824219 19.808594 219.808594 23.324219 219.3125 25.128906 L 214.261719 36.429688 C 210.429688 34.886719 205.542969 38.417969 205.3125 38.589844 C 205.257812 38.628906 205.207031 38.675781 205.160156 38.726562 L 193.175781 51.578125 C 189.898438 52.230469 188.910156 51.726562 188.617188 51.320312 Z M 196.128906 53.234375 C 195.980469 52.890625 195.777344 52.585938 195.519531 52.316406 L 206.710938 40.316406 C 207.976562 39.414062 211.179688 37.664062 213.355469 38.453125 L 204.457031 58.359375 C 202.300781 58.359375 200.085938 58.371094 197.871094 58.390625 C 197.554688 56.582031 196.972656 54.863281 196.128906 53.234375 Z M 180.109375 61.085938 C 194.332031 60.347656 219.695312 60.484375 224.882812 61.125 C 227.261719 61.417969 228.449219 63.355469 229.046875 65.351562 L 174.417969 65.101562 C 174.96875 63.996094 175.75 63.085938 176.757812 62.375 C 177.769531 61.664062 178.886719 61.234375 180.109375 61.085938 Z M 173.175781 69.027344 C 173.242188 68.449219 173.355469 67.878906 173.511719 67.316406 L 229.503906 67.574219 C 229.570312 68.121094 229.605469 68.625 229.621094 69.027344 Z M 173.175781 69.027344 " fill-opacity="1" fill-rule="nonzero"/></g><path fill="#f9e5df" d="M 195.023438 43.996094 C 195.160156 43.953125 195.28125 43.882812 195.390625 43.789062 L 195.804688 43.429688 C 195.886719 43.355469 195.972656 43.289062 196.050781 43.210938 L 203.707031 36.527344 C 203.730469 36.503906 203.742188 36.476562 203.761719 36.453125 C 203.808594 36.402344 203.851562 36.347656 203.886719 36.292969 C 203.929688 36.226562 203.964844 36.160156 203.996094 36.089844 C 204.015625 36.058594 204.035156 36.023438 204.054688 35.988281 C 204.066406 35.925781 204.074219 35.859375 204.074219 35.796875 C 204.074219 35.78125 204.078125 35.765625 204.078125 35.746094 C 204.074219 35.632812 204.0625 35.523438 204.039062 35.414062 C 204.027344 35.378906 204.023438 35.347656 204.015625 35.316406 C 203.335938 33.464844 202.460938 31.707031 201.386719 30.050781 C 201.15625 29.664062 200.875 29.320312 200.542969 29.015625 C 200.207031 28.714844 199.835938 28.46875 199.425781 28.28125 C 199.019531 28.089844 198.589844 27.964844 198.144531 27.90625 C 197.699219 27.847656 197.253906 27.855469 196.808594 27.929688 C 194.230469 28.363281 192.101562 30.878906 190.96875 34.714844 C 190.84375 35.066406 190.746094 35.425781 190.671875 35.792969 C 190.664062 35.832031 190.652344 35.863281 190.644531 35.902344 C 190.640625 35.910156 190.644531 35.914062 190.644531 35.917969 C 190.640625 35.929688 190.636719 35.941406 190.632812 35.957031 C 190.511719 36.636719 190.394531 37.226562 190.289062 37.769531 C 189.964844 39.171875 189.777344 40.59375 189.71875 42.03125 C 189.683594 43.125 190.019531 44.085938 190.722656 44.921875 C 190.992188 45.160156 191.308594 45.277344 191.664062 45.28125 C 191.757812 45.28125 191.847656 45.273438 191.9375 45.253906 C 193.035156 45.007812 194.066406 44.589844 195.023438 43.996094 Z M 197.179688 30.117188 C 197.644531 30.035156 198.089844 30.097656 198.519531 30.300781 C 198.945312 30.503906 199.273438 30.8125 199.503906 31.226562 C 200.320312 32.550781 201.054688 33.914062 201.707031 35.324219 L 197.78125 38.753906 C 198.234375 36.210938 198.460938 32.878906 197.199219 31.441406 C 196.84375 31.035156 196.398438 30.792969 195.859375 30.722656 C 196.253906 30.417969 196.691406 30.21875 197.179688 30.117188 Z M 192.464844 38.203125 C 192.570312 37.660156 192.6875 37.070312 192.808594 36.390625 C 192.890625 36.03125 192.988281 35.714844 193.082031 35.390625 C 193.25 34.824219 193.53125 34.328125 193.929688 33.894531 C 194.332031 33.460938 194.804688 33.136719 195.351562 32.921875 C 195.40625 32.90625 195.460938 32.894531 195.515625 32.886719 C 196.414062 33.527344 195.652344 39.359375 194.953125 41.03125 C 194.863281 41.21875 194.746094 41.386719 194.601562 41.53125 L 194.136719 41.9375 C 193.5 42.378906 192.8125 42.710938 192.074219 42.933594 C 191.992188 42.660156 191.945312 42.382812 191.9375 42.097656 C 191.992188 40.785156 192.167969 39.484375 192.464844 38.203125 Z M 192.464844 38.203125 " fill-opacity="1" fill-rule="nonzero"/><path fill="#f9e5df" d="M 208.511719 29.667969 C 208.789062 29.667969 209.0625 29.640625 209.332031 29.589844 C 209.601562 29.535156 209.863281 29.453125 210.121094 29.347656 C 210.375 29.242188 210.617188 29.113281 210.847656 28.960938 C 211.074219 28.808594 211.289062 28.632812 211.484375 28.4375 C 211.679688 28.242188 211.851562 28.03125 212.003906 27.800781 C 212.160156 27.574219 212.289062 27.332031 212.394531 27.078125 C 212.5 26.820312 212.578125 26.558594 212.632812 26.289062 C 212.6875 26.019531 212.714844 25.746094 212.714844 25.46875 C 212.714844 25.191406 212.6875 24.917969 212.632812 24.648438 C 212.578125 24.378906 212.5 24.117188 212.394531 23.859375 C 212.289062 23.605469 212.160156 23.363281 212.007812 23.132812 C 211.851562 22.90625 211.679688 22.691406 211.484375 22.496094 C 211.289062 22.300781 211.078125 22.128906 210.847656 21.976562 C 210.617188 21.820312 210.375 21.691406 210.121094 21.585938 C 209.867188 21.480469 209.605469 21.402344 209.332031 21.347656 C 209.0625 21.292969 208.789062 21.265625 208.511719 21.265625 C 208.238281 21.265625 207.964844 21.292969 207.695312 21.347656 C 207.421875 21.402344 207.160156 21.480469 206.90625 21.585938 C 206.652344 21.691406 206.410156 21.820312 206.179688 21.976562 C 205.949219 22.128906 205.738281 22.300781 205.542969 22.496094 C 205.347656 22.691406 205.171875 22.90625 205.019531 23.132812 C 204.867188 23.363281 204.738281 23.605469 204.632812 23.859375 C 204.527344 24.113281 204.445312 24.378906 204.394531 24.648438 C 204.339844 24.917969 204.3125 25.191406 204.3125 25.46875 C 204.3125 25.742188 204.339844 26.015625 204.394531 26.285156 C 204.449219 26.558594 204.527344 26.820312 204.632812 27.074219 C 204.738281 27.328125 204.867188 27.570312 205.019531 27.800781 C 205.175781 28.03125 205.347656 28.242188 205.542969 28.4375 C 205.738281 28.632812 205.949219 28.804688 206.179688 28.960938 C 206.410156 29.113281 206.652344 29.242188 206.90625 29.347656 C 207.160156 29.453125 207.421875 29.535156 207.691406 29.585938 C 207.964844 29.640625 208.238281 29.667969 208.511719 29.667969 Z M 208.511719 23.484375 C 208.773438 23.484375 209.027344 23.535156 209.269531 23.636719 C 209.515625 23.738281 209.726562 23.878906 209.914062 24.066406 C 210.101562 24.253906 210.242188 24.464844 210.34375 24.710938 C 210.445312 24.953125 210.496094 25.203125 210.496094 25.46875 C 210.496094 25.730469 210.445312 25.984375 210.34375 26.226562 C 210.242188 26.46875 210.101562 26.683594 209.914062 26.867188 C 209.730469 27.054688 209.515625 27.199219 209.273438 27.296875 C 209.027344 27.398438 208.777344 27.449219 208.511719 27.449219 C 208.25 27.449219 207.996094 27.398438 207.753906 27.300781 C 207.511719 27.199219 207.296875 27.054688 207.113281 26.871094 C 206.925781 26.683594 206.78125 26.46875 206.683594 26.226562 C 206.582031 25.984375 206.53125 25.730469 206.53125 25.46875 C 206.53125 25.207031 206.582031 24.953125 206.683594 24.710938 C 206.785156 24.46875 206.925781 24.253906 207.113281 24.066406 C 207.296875 23.882812 207.511719 23.738281 207.753906 23.636719 C 207.996094 23.539062 208.25 23.488281 208.511719 23.484375 Z M 208.511719 23.484375 " fill-opacity="1" fill-rule="nonzero"/><path fill="#f9e5df" d="M 370.402344 14.214844 C 371.210938 12.847656 372.238281 12.117188 373.472656 12.035156 C 374.734375 12.003906 375.824219 12.648438 376.703125 13.953125 C 377.582031 15.292969 378.058594 16.898438 378.117188 18.722656 C 378.179688 20.589844 377.785156 22.15625 376.953125 23.359375 C 376.523438 24.066406 376.042969 24.597656 375.480469 24.984375 C 374.972656 25.335938 374.414062 25.523438 373.816406 25.539062 L 373.773438 25.539062 C 372.5625 25.570312 371.496094 24.921875 370.605469 23.617188 C 369.695312 22.359375 369.214844 20.765625 369.183594 18.882812 C 369.09375 17.109375 369.503906 15.535156 370.402344 14.214844 " fill-opacity="1" fill-rule="nonzero"/><path fill="#f9e5df" d="M 376.539062 25.703125 C 379.539062 22.609375 382.484375 21.292969 385.261719 21.792969 L 385.308594 21.804688 C 385.667969 21.929688 386.027344 22.085938 386.367188 22.269531 C 388.742188 23.535156 390.578125 26.140625 391.820312 30.011719 C 392.246094 31.351562 392.609375 32.820312 392.910156 34.386719 C 393.257812 36.886719 393.21875 38.929688 392.792969 40.472656 C 392.121094 42.390625 390.953125 43.386719 389.320312 43.425781 C 387.820312 43.464844 385.902344 42.664062 383.605469 41.035156 C 382.503906 40.15625 381.300781 39.726562 380.023438 39.761719 C 379.863281 39.765625 379.703125 39.773438 379.523438 39.792969 C 379.148438 39.820312 378.777344 39.835938 378.425781 39.847656 C 376.335938 39.898438 374.636719 39.671875 373.375 39.171875 C 372.097656 38.6875 371.265625 37.941406 370.898438 36.953125 C 370.40625 35.625 370.746094 33.910156 371.953125 31.707031 C 373.511719 29.253906 375.054688 27.234375 376.539062 25.703125 " fill-opacity="1" fill-rule="nonzero"/><g clip-path="url(#cb132957c0)"><path fill="#f9e5df" d="M 387.179688 15.964844 C 386.246094 17.539062 385.054688 18.359375 383.644531 18.394531 L 383.632812 18.394531 C 382.246094 18.378906 381.035156 17.625 380.042969 16.160156 C 378.957031 14.722656 378.402344 12.949219 378.394531 10.898438 C 378.371094 8.792969 378.816406 6.988281 379.707031 5.535156 C 380.648438 4 381.828125 3.203125 383.21875 3.171875 L 383.261719 3.167969 C 384.609375 3.152344 385.84375 3.867188 386.929688 5.292969 L 386.945312 5.320312 C 387.875 6.847656 388.363281 8.585938 388.429688 10.628906 C 388.46875 11.65625 388.367188 12.640625 388.121094 13.539062 C 387.933594 14.367188 387.617188 15.183594 387.179688 15.964844 " fill-opacity="1" fill-rule="nonzero"/></g><g clip-path="url(#e76a138fc2)"><path fill="#f9e5df" d="M 392.886719 26.792969 C 393.332031 25.507812 394.160156 24.367188 395.417969 23.320312 C 395.523438 23.230469 395.632812 23.144531 395.746094 23.058594 C 395.8125 23.011719 395.875 22.964844 395.9375 22.914062 C 397.3125 21.824219 398.816406 21.25 400.410156 21.210938 L 400.453125 21.210938 C 402.027344 21.058594 403.210938 21.46875 403.992188 22.433594 C 404.746094 23.433594 404.847656 24.695312 404.296875 26.191406 C 403.722656 27.671875 402.691406 28.984375 401.230469 30.097656 C 400.386719 30.726562 399.546875 31.1875 398.738281 31.464844 C 398.0625 31.6875 397.398438 31.808594 396.769531 31.824219 C 396.675781 31.828125 396.585938 31.835938 396.5 31.835938 C 395.792969 31.855469 395.152344 31.761719 394.585938 31.5625 C 394.003906 31.34375 393.523438 30.996094 393.167969 30.53125 C 392.429688 29.558594 392.335938 28.304688 392.886719 26.792969 " fill-opacity="1" fill-rule="nonzero"/></g><path fill="#f9e5df" d="M 399.097656 16.351562 C 398.527344 17.273438 397.910156 18.007812 397.21875 18.59375 C 396.597656 19.207031 395.878906 19.707031 395.085938 20.089844 L 394.960938 20.144531 C 394.75 20.238281 394.550781 20.328125 394.34375 20.398438 C 393.816406 20.578125 393.308594 20.675781 392.832031 20.6875 C 392.09375 20.707031 391.40625 20.523438 390.785156 20.132812 C 389.640625 19.355469 389.0625 18.054688 389.0625 16.289062 C 388.957031 14.496094 389.480469 12.71875 390.617188 11.003906 C 391.105469 10.261719 391.640625 9.597656 392.214844 9.027344 C 392.988281 8.261719 393.796875 7.683594 394.679688 7.257812 C 396.316406 6.515625 397.757812 6.523438 398.953125 7.28125 C 400.074219 8.003906 400.707031 9.28125 400.828125 11.082031 L 400.832031 11.097656 L 400.828125 11.113281 C 400.753906 12.871094 400.171875 14.632812 399.097656 16.351562 " fill-opacity="1" fill-rule="nonzero"/><g clip-path="url(#7fc99f4973)"><path fill="#f9e5df" d="M 329.628906 46.058594 C 330.621094 45.277344 331.878906 45.144531 333.363281 45.660156 C 334.871094 46.210938 336.214844 47.210938 337.355469 48.636719 C 338.523438 50.09375 339.144531 51.582031 339.203125 53.046875 C 339.28125 53.867188 339.210938 54.582031 338.996094 55.230469 C 338.800781 55.8125 338.464844 56.296875 337.996094 56.667969 L 337.960938 56.691406 C 337.011719 57.441406 335.765625 57.5625 334.273438 57.050781 C 332.789062 56.589844 331.449219 55.597656 330.296875 54.109375 C 329.160156 52.742188 328.546875 51.234375 328.476562 49.644531 C 328.300781 48.066406 328.6875 46.863281 329.628906 46.058594 " fill-opacity="1" fill-rule="nonzero"/></g><g clip-path="url(#6ef7948b61)"><path fill="#f9e5df" d="M 344.914062 46.816406 L 344.960938 46.800781 C 345.324219 46.683594 345.707031 46.597656 346.089844 46.539062 C 348.75 46.132812 351.777344 47.117188 355.09375 49.472656 C 356.238281 50.296875 357.410156 51.25 358.585938 52.324219 C 360.363281 54.121094 361.558594 55.777344 362.140625 57.269531 C 362.753906 59.210938 362.414062 60.707031 361.132812 61.714844 C 359.953125 62.644531 357.9375 63.148438 355.121094 63.21875 C 353.714844 63.175781 352.492188 63.554688 351.488281 64.34375 C 351.363281 64.441406 351.242188 64.546875 351.109375 64.667969 C 350.824219 64.914062 350.539062 65.148438 350.261719 65.367188 C 348.621094 66.660156 347.121094 67.496094 345.8125 67.847656 C 344.5 68.226562 343.386719 68.128906 342.5 67.558594 C 341.308594 66.785156 340.554688 65.210938 340.199219 62.722656 C 339.976562 59.828125 340.003906 57.285156 340.273438 55.167969 C 340.824219 50.898438 342.390625 48.082031 344.914062 46.816406 " fill-opacity="1" fill-rule="nonzero"/></g><path fill="#f9e5df" d="M 341.582031 45.066406 L 341.578125 45.066406 L 341.574219 45.070312 C 340.457031 45.890625 339.035156 46.011719 337.363281 45.429688 C 335.628906 44.929688 334.125 43.84375 332.886719 42.199219 C 331.609375 40.527344 330.882812 38.820312 330.722656 37.121094 C 330.5625 35.328125 331.027344 33.984375 332.117188 33.125 L 332.152344 33.101562 C 333.222656 32.277344 334.640625 32.113281 336.363281 32.609375 L 336.394531 32.617188 C 338.054688 33.285156 339.484375 34.386719 340.761719 35.980469 C 341.410156 36.78125 341.917969 37.628906 342.257812 38.496094 C 342.605469 39.273438 342.84375 40.117188 342.960938 41.003906 C 343.15625 42.824219 342.695312 44.191406 341.582031 45.066406 " fill-opacity="1" fill-rule="nonzero"/><path fill="#f9e5df" d="M 360.144531 47.964844 C 360.074219 48.023438 360.003906 48.082031 359.933594 48.136719 C 359.382812 48.574219 358.8125 48.882812 358.242188 49.058594 C 357.640625 49.238281 357.050781 49.246094 356.484375 49.082031 C 355.3125 48.75 354.484375 47.796875 354.019531 46.261719 C 353.605469 44.964844 353.585938 43.558594 353.964844 41.964844 C 353.996094 41.828125 354.035156 41.695312 354.074219 41.554688 C 354.09375 41.480469 354.117188 41.40625 354.136719 41.328125 C 354.585938 39.628906 355.445312 38.269531 356.699219 37.285156 L 356.734375 37.257812 C 357.90625 36.199219 359.097656 35.816406 360.300781 36.125 C 361.503906 36.472656 362.34375 37.421875 362.796875 38.949219 C 363.226562 40.476562 363.183594 42.148438 362.679688 43.914062 C 362.382812 44.921875 361.988281 45.792969 361.503906 46.5 C 361.101562 47.082031 360.640625 47.578125 360.144531 47.964844 " fill-opacity="1" fill-rule="nonzero"/><path fill="#f9e5df" d="M 351.765625 39.574219 L 351.699219 39.691406 C 351.582031 39.894531 351.476562 40.085938 351.351562 40.265625 C 351.042969 40.726562 350.695312 41.109375 350.320312 41.40625 C 349.738281 41.863281 349.078125 42.125 348.347656 42.183594 C 346.960938 42.246094 345.71875 41.550781 344.664062 40.136719 C 343.503906 38.765625 342.855469 37.027344 342.738281 34.972656 C 342.6875 34.089844 342.71875 33.234375 342.835938 32.433594 C 342.996094 31.355469 343.296875 30.410156 343.75 29.539062 C 344.617188 27.96875 345.777344 27.113281 347.183594 27.003906 C 348.519531 26.914062 349.789062 27.558594 350.964844 28.921875 L 350.976562 28.933594 L 350.984375 28.949219 C 351.976562 30.402344 352.566406 32.160156 352.738281 34.179688 C 352.832031 35.257812 352.78125 36.21875 352.578125 37.101562 C 352.441406 37.964844 352.171875 38.792969 351.765625 39.574219 " fill-opacity="1" fill-rule="nonzero"/><path fill="#f9e5df" d="M 515.3125 62.382812 C 520.601562 59.746094 526.316406 58.3125 532.320312 58.109375 L 532.320312 55.109375 C 522.109375 55.40625 515.007812 58.683594 510.761719 61.496094 C 512.167969 61.816406 513.6875 62.109375 515.3125 62.382812 " fill-opacity="1" fill-rule="nonzero"/><g clip-path="url(#ed47c1a2af)"><path fill="#f9e5df" d="M 544.1875 10.828125 C 543.667969 8.746094 541.242188 7.160156 538.3125 7.160156 C 535.378906 7.160156 532.953125 8.746094 532.433594 10.828125 C 534.332031 10.402344 536.296875 10.15625 538.3125 10.15625 C 540.324219 10.15625 542.289062 10.402344 544.1875 10.828125 " fill-opacity="1" fill-rule="nonzero"/></g><path fill="#f9e5df" d="M 548.863281 44.253906 L 548.210938 33.984375 C 547.382812 20.941406 542.527344 13.148438 538.3125 13.148438 C 534.09375 13.148438 529.238281 20.941406 528.410156 33.984375 L 527.757812 44.253906 C 530.785156 44.457031 534.28125 44.59375 538.3125 44.59375 C 542.339844 44.59375 545.839844 44.457031 548.863281 44.253906 " fill-opacity="1" fill-rule="nonzero"/><path fill="#f9e5df" d="M 535.316406 53.574219 L 535.316406 58.066406 L 541.304688 58.066406 L 541.304688 53.574219 L 535.316406 53.574219 " fill-opacity="1" fill-rule="nonzero"/><path fill="#f9e5df" d="M 525.417969 33.789062 C 525.957031 25.316406 528.246094 18.285156 531.46875 14.15625 C 522.519531 16.804688 515.535156 24.496094 514.160156 34.101562 L 513.019531 42.054688 C 514.726562 42.546875 518.488281 43.429688 524.769531 44.011719 L 525.417969 33.789062 " fill-opacity="1" fill-rule="nonzero"/><g clip-path="url(#cd95e7409e)"><path fill="#f9e5df" d="M 521.121094 63.1875 C 526 63.722656 531.660156 64.058594 538.3125 64.058594 C 544.960938 64.058594 550.621094 63.722656 555.5 63.1875 C 551.46875 61.78125 547.222656 61.0625 542.800781 61.0625 L 533.820312 61.0625 C 529.398438 61.0625 525.152344 61.78125 521.121094 63.1875 " fill-opacity="1" fill-rule="nonzero"/></g><path fill="#f9e5df" d="M 551.851562 44.011719 C 558.125 43.429688 561.894531 42.546875 563.601562 42.054688 L 562.460938 34.101562 C 561.085938 24.496094 554.101562 16.804688 545.152344 14.15625 C 548.375 18.285156 550.664062 25.316406 551.203125 33.789062 L 551.851562 44.011719 " fill-opacity="1" fill-rule="nonzero"/><path fill="#f9e5df" d="M 544.300781 58.109375 C 550.304688 58.3125 556.019531 59.746094 561.308594 62.382812 C 562.933594 62.109375 564.453125 61.816406 565.859375 61.496094 C 561.613281 58.683594 554.511719 55.40625 544.300781 55.109375 L 544.300781 58.109375 " fill-opacity="1" fill-rule="nonzero"/><g clip-path="url(#018402ab0f)"><path fill="#f9e5df" d="M 497.621094 56.640625 C 499.753906 57.925781 502.78125 59.3125 506.980469 60.53125 C 511.191406 57.25 519.640625 52.371094 532.726562 52.109375 C 533.238281 51.203125 534.203125 50.582031 535.316406 50.582031 L 541.304688 50.582031 C 542.417969 50.582031 543.382812 51.203125 543.894531 52.109375 C 556.980469 52.371094 565.429688 57.25 569.636719 60.53125 C 573.839844 59.3125 576.859375 57.925781 579 56.640625 C 579.796875 56.160156 580.257812 55.3125 580.234375 54.382812 C 580.210938 53.429688 579.695312 52.59375 578.867188 52.144531 L 565.128906 44.726562 C 562.882812 45.453125 554.878906 47.585938 538.3125 47.585938 C 521.742188 47.585938 513.738281 45.453125 511.492188 44.726562 L 497.761719 52.144531 C 496.925781 52.59375 496.410156 53.429688 496.386719 54.382812 C 496.363281 55.3125 496.824219 56.160156 497.621094 56.640625 " fill-opacity="1" fill-rule="nonzero"/></g><g clip-path="url(#92a3291529)"><path fill="#f9e5df" d="M 78.871094 64.460938 L 73.660156 51.433594 C 73.519531 51.074219 73.324219 50.746094 73.09375 50.453125 C 73.78125 49.6875 74.210938 48.6875 74.210938 47.578125 L 74.210938 14.964844 C 74.210938 12.578125 72.261719 10.628906 69.875 10.628906 L 60.792969 10.628906 L 57.578125 13.605469 L 69.875 13.605469 C 70.621094 13.605469 71.234375 14.21875 71.234375 14.964844 L 71.234375 47.578125 C 71.234375 48.316406 70.632812 48.929688 69.898438 48.941406 L 22.054688 48.941406 C 21.3125 48.929688 20.710938 48.316406 20.710938 47.578125 L 20.710938 14.964844 C 20.710938 14.21875 21.324219 13.605469 22.078125 13.605469 L 45.589844 13.605469 L 48.347656 10.628906 L 22.078125 10.628906 C 19.683594 10.628906 17.734375 12.578125 17.734375 14.964844 L 17.734375 47.578125 C 17.734375 48.6875 18.164062 49.6875 18.851562 50.453125 C 18.621094 50.746094 18.425781 51.074219 18.28125 51.433594 L 13.070312 64.460938 C 12.582031 65.683594 12.730469 67.0625 13.46875 68.152344 C 14.207031 69.242188 15.433594 69.894531 16.75 69.894531 L 75.191406 69.894531 C 76.511719 69.894531 77.738281 69.242188 78.476562 68.152344 C 79.210938 67.0625 79.363281 65.683594 78.871094 64.460938 Z M 76.011719 66.488281 C 75.925781 66.617188 75.667969 66.921875 75.191406 66.921875 L 16.75 66.921875 C 16.277344 66.921875 16.019531 66.617188 15.929688 66.488281 C 15.84375 66.355469 15.65625 66.003906 15.832031 65.5625 L 21.042969 52.535156 C 21.195312 52.160156 21.554688 51.914062 21.960938 51.914062 L 69.984375 51.914062 C 70.390625 51.914062 70.75 52.160156 70.902344 52.535156 L 76.113281 65.5625 C 76.289062 66.003906 76.101562 66.355469 76.011719 66.488281 Z M 76.011719 66.488281 " fill-opacity="1" fill-rule="nonzero"/></g><path fill="#f9e5df" d="M 51.585938 58.582031 L 40.359375 58.582031 C 40.003906 58.582031 39.695312 58.835938 39.628906 59.1875 L 38.636719 64.386719 C 38.597656 64.605469 38.65625 64.828125 38.796875 65 C 38.9375 65.171875 39.148438 65.269531 39.367188 65.269531 L 52.578125 65.269531 C 52.796875 65.269531 53.007812 65.171875 53.148438 65 C 53.289062 64.828125 53.347656 64.605469 53.304688 64.386719 L 52.316406 59.1875 C 52.25 58.835938 51.941406 58.582031 51.585938 58.582031 Z M 40.265625 63.785156 L 40.972656 60.070312 L 50.972656 60.070312 L 51.679688 63.785156 Z M 40.265625 63.785156 " fill-opacity="1" fill-rule="nonzero"/><path fill="#f9e5df" d="M 58.03125 24.316406 C 57.109375 23.320312 55.855469 22.761719 54.496094 22.722656 C 53.160156 22.679688 51.863281 23.167969 50.878906 24.089844 C 49.890625 25.023438 49.320312 26.265625 49.28125 27.625 C 49.269531 28.308594 49.125 28.984375 48.875 29.628906 C 48.773438 29.90625 48.574219 30.261719 48.410156 30.550781 C 48.222656 30.839844 48.003906 31.171875 47.734375 31.453125 C 46.78125 32.582031 45.339844 33.382812 43.804688 33.640625 C 42.125 33.910156 40.351562 33.578125 38.929688 32.738281 C 38.476562 32.480469 38.039062 32.167969 37.632812 31.804688 C 37.34375 31.835938 37.042969 31.847656 36.734375 31.855469 L 36.535156 31.867188 C 36.101562 31.867188 35.175781 31.824219 34.121094 31.535156 C 35.019531 32.957031 36.246094 34.117188 37.664062 34.925781 C 39.574219 36.035156 41.949219 36.480469 44.210938 36.128906 C 46.355469 35.765625 48.296875 34.6875 49.621094 33.132812 C 50.007812 32.71875 50.285156 32.28125 50.554688 31.855469 C 50.792969 31.453125 51.054688 30.984375 51.21875 30.53125 C 51.570312 29.628906 51.769531 28.683594 51.800781 27.699219 C 51.820312 27.023438 52.101562 26.390625 52.597656 25.925781 C 53.097656 25.46875 53.738281 25.21875 54.425781 25.242188 C 55.109375 25.25 55.730469 25.542969 56.207031 26.039062 C 56.664062 26.535156 56.914062 27.179688 56.890625 27.863281 C 56.882812 28.019531 56.871094 28.175781 56.828125 28.308594 L 56.789062 28.570312 C 56.445312 30.074219 55.875 31.460938 55.066406 32.726562 C 54.652344 33.414062 54.175781 33.972656 53.75 34.460938 C 53.179688 35.101562 52.671875 35.578125 52.140625 35.972656 C 49.964844 37.738281 47.101562 38.730469 44.300781 38.691406 C 41.523438 38.640625 38.890625 37.683594 36.867188 35.984375 C 35.375 34.75 34.242188 33.164062 33.589844 31.371094 C 32.65625 31.027344 31.691406 30.5 30.925781 29.605469 C 30.769531 29.441406 30.644531 29.253906 30.550781 29.058594 C 30.480469 29.378906 30.488281 29.71875 30.550781 30.042969 C 31.164062 33.121094 32.832031 35.921875 35.261719 37.914062 C 37.695312 39.976562 40.902344 41.148438 44.261719 41.210938 L 44.457031 41.210938 C 47.816406 41.210938 51.09375 40.058594 53.707031 37.953125 C 54.332031 37.476562 54.933594 36.917969 55.636719 36.140625 C 56.125 35.578125 56.695312 34.894531 57.203125 34.074219 C 58.15625 32.574219 58.839844 30.902344 59.234375 29.121094 L 59.296875 28.859375 C 59.359375 28.558594 59.402344 28.25 59.410156 27.9375 C 59.453125 26.578125 58.964844 25.304688 58.03125 24.316406 Z M 58.03125 24.316406 " fill-opacity="1" fill-rule="nonzero"/><g clip-path="url(#1b61af76d9)"><path fill="#f9e5df" d="M 60.464844 4.335938 C 59.234375 3.195312 57.304688 3.265625 56.160156 4.5 L 41.019531 20.820312 C 36.964844 20.894531 34.839844 23.984375 34.222656 25.8125 C 34.101562 25.996094 33.820312 26.316406 33.164062 26.316406 C 33.160156 26.316406 33.152344 26.316406 33.144531 26.316406 C 32.589844 26.332031 32.117188 26.621094 31.894531 27.109375 C 31.664062 27.597656 31.746094 28.179688 32.097656 28.589844 C 33.476562 30.191406 35.859375 30.308594 36.535156 30.308594 C 36.609375 30.308594 36.664062 30.308594 36.695312 30.308594 C 39.164062 30.25 41.101562 29.5 42.449219 28.074219 C 43.871094 26.570312 44.21875 24.726562 44.300781 23.800781 L 60.464844 8.804688 C 60.519531 8.753906 60.578125 8.699219 60.628906 8.644531 C 61.179688 8.046875 61.46875 7.269531 61.4375 6.457031 C 61.40625 5.644531 61.0625 4.890625 60.464844 4.335938 Z M 36.632812 28.125 C 36.335938 28.136719 35.730469 28.097656 35.125 27.933594 C 35.550781 27.652344 35.90625 27.269531 36.171875 26.804688 L 36.261719 26.589844 C 36.308594 26.445312 37.296875 23.394531 40.546875 23.039062 C 40.644531 23.328125 40.792969 23.601562 41.011719 23.835938 C 41.28125 24.125 41.617188 24.324219 41.984375 24.4375 C 41.828125 25.082031 41.511719 25.890625 40.863281 26.574219 C 39.929688 27.5625 38.511719 28.082031 36.632812 28.125 Z M 58.980469 7.207031 L 43.210938 21.761719 L 43.164062 21.71875 L 57.757812 5.984375 C 57.929688 5.800781 58.160156 5.707031 58.394531 5.707031 C 58.605469 5.707031 58.816406 5.785156 58.980469 5.9375 C 59.152344 6.09375 59.25 6.308594 59.257812 6.539062 C 59.265625 6.769531 59.183594 6.988281 58.980469 7.207031 Z M 58.980469 7.207031 " fill-opacity="1" fill-rule="nonzero"/></g><path fill="#f9e5df" d="M 709.714844 60.570312 C 708.847656 58.847656 706.136719 58.519531 703.539062 59.820312 C 702.335938 60.417969 701.347656 61.28125 700.753906 62.25 C 700.117188 63.292969 700 64.347656 700.433594 65.214844 C 700.660156 65.664062 701.019531 66.023438 701.492188 66.289062 C 701.496094 66.292969 701.5 66.292969 701.5 66.296875 C 701.507812 66.300781 701.511719 66.304688 701.519531 66.304688 C 701.519531 66.308594 701.519531 66.308594 701.519531 66.308594 C 702.066406 66.601562 702.742188 66.75 703.476562 66.75 C 704.472656 66.75 705.574219 66.484375 706.609375 65.964844 C 708.449219 65.039062 709.722656 63.558594 709.929688 62.105469 C 709.933594 62.082031 709.933594 62.0625 709.9375 62.042969 C 709.9375 62.035156 709.941406 62.03125 709.941406 62.023438 C 709.941406 62.019531 709.9375 62.015625 709.9375 62.011719 C 710.003906 61.503906 709.929688 61.007812 709.714844 60.570312 Z M 701.648438 62.796875 C 702.140625 61.992188 702.976562 61.269531 704.007812 60.757812 C 706.011719 59.75 708.195312 59.882812 708.777344 61.039062 C 708.8125 61.109375 708.839844 61.1875 708.863281 61.265625 C 707.625 60.953125 706.042969 61.167969 704.582031 61.90625 C 703.113281 62.636719 701.992188 63.773438 701.5 64.945312 C 701.449219 64.882812 701.40625 64.816406 701.371094 64.742188 C 701.105469 64.214844 701.207031 63.523438 701.648438 62.796875 Z M 706.140625 65.027344 C 704.824219 65.683594 703.378906 65.871094 702.382812 65.539062 C 702.714844 64.542969 703.730469 63.5 705.050781 62.839844 C 706.359375 62.179688 707.804688 61.996094 708.800781 62.328125 C 708.476562 63.320312 707.460938 64.363281 706.140625 65.027344 Z M 706.140625 65.027344 " fill-opacity="1" fill-rule="nonzero"/><path fill="#f9e5df" d="M 724.351562 16.007812 C 724.402344 16.007812 724.453125 16.007812 724.507812 16.003906 C 725.101562 15.949219 725.730469 15.589844 726.195312 15.039062 C 726.664062 14.480469 726.90625 13.8125 726.855469 13.210938 C 726.820312 12.800781 726.648438 12.457031 726.363281 12.214844 C 725.636719 11.609375 724.425781 11.894531 723.605469 12.867188 C 722.789062 13.84375 722.714844 15.082031 723.4375 15.691406 C 723.6875 15.902344 724 16.007812 724.351562 16.007812 Z M 724.351562 16.007812 " fill-opacity="1" fill-rule="nonzero"/><path fill="#f9e5df" d="M 703.789062 29.488281 C 704.425781 28.386719 704.285156 27.152344 703.460938 26.675781 C 702.640625 26.203125 701.5 26.699219 700.867188 27.796875 C 700.503906 28.421875 700.378906 29.136719 700.53125 29.714844 C 700.636719 30.117188 700.867188 30.425781 701.191406 30.613281 C 701.402344 30.734375 701.632812 30.789062 701.871094 30.789062 C 702.566406 30.789062 703.320312 30.308594 703.789062 29.488281 Z M 703.789062 29.488281 " fill-opacity="1" fill-rule="nonzero"/><path fill="#f9e5df" d="M 711.78125 19.207031 C 712.855469 19.207031 714.097656 18.753906 715.207031 17.867188 C 716.136719 17.121094 716.824219 16.183594 717.148438 15.222656 C 717.5 14.183594 717.386719 13.226562 716.832031 12.535156 C 715.730469 11.160156 713.289062 11.339844 711.273438 12.953125 C 709.257812 14.5625 708.542969 16.902344 709.640625 18.28125 C 710.136719 18.902344 710.902344 19.207031 711.78125 19.207031 Z M 711.78125 19.207031 " fill-opacity="1" fill-rule="nonzero"/><g clip-path="url(#0090b808c6)"><path fill="#f9e5df" d="M 734.671875 45.816406 C 734.511719 45.714844 734.339844 45.605469 734.167969 45.5 L 734.167969 8.128906 C 734.167969 7.835938 733.933594 7.601562 733.644531 7.601562 L 684.664062 7.601562 C 684.375 7.601562 684.140625 7.835938 684.140625 8.128906 L 684.140625 30.824219 C 680.269531 32.640625 677.625 36.105469 676.648438 37.546875 C 671.742188 44.816406 672.503906 55.855469 678.425781 63.21875 C 683.082031 69.007812 690.003906 71.527344 696.597656 71.527344 C 700.851562 71.527344 704.964844 70.484375 708.25 68.589844 C 709.335938 67.964844 712.078125 66.222656 714.480469 63.414062 L 733.644531 63.414062 C 733.933594 63.414062 734.167969 63.183594 734.167969 62.890625 L 734.167969 49.65625 C 736.375 50.328125 737.636719 50.601562 738.363281 50.601562 C 738.9375 50.601562 739.191406 50.433594 739.335938 50.164062 C 739.769531 49.363281 738.808594 48.46875 734.671875 45.816406 Z M 715.433594 40.976562 C 714.199219 41.023438 711.089844 40.902344 708.121094 38.84375 C 705.671875 37.140625 704.667969 35 704.277344 33.816406 C 704.980469 33.578125 706.082031 33.296875 707.449219 33.25 C 708.636719 33.203125 709.820312 33.339844 710.984375 33.660156 C 714.464844 34.613281 716.433594 36.808594 717.160156 37.773438 L 716.539062 38.925781 L 712.839844 37.207031 C 712.578125 37.085938 712.265625 37.199219 712.144531 37.460938 C 712.023438 37.722656 712.136719 38.035156 712.398438 38.15625 L 716.039062 39.847656 Z M 718.003906 38.417969 L 719.996094 39.351562 L 718.476562 42.175781 L 716.480469 41.246094 Z M 703.265625 8.652344 C 702.5625 9.488281 702.015625 10.4375 701.664062 11.449219 C 700.511719 14.757812 701.707031 17.730469 702.265625 18.839844 C 702.738281 19.832031 702.546875 21.019531 701.796875 21.730469 C 700.910156 22.570312 699.441406 22.570312 698.441406 21.734375 C 697.382812 20.570312 695.65625 20.292969 694.316406 21.074219 C 693.015625 21.824219 692.390625 23.367188 692.792969 24.832031 C 692.910156 25.253906 693.019531 25.652344 693.03125 26.042969 C 693.050781 26.859375 692.835938 27.589844 692.398438 28.21875 C 691.695312 29.214844 690.675781 29.570312 689.929688 29.695312 C 688.34375 29.578125 686.75 29.808594 685.1875 30.382812 L 685.1875 8.652344 Z M 707.726562 67.683594 C 699.714844 72.296875 686.546875 71.652344 679.242188 62.5625 C 673.597656 55.542969 672.855469 45.039062 677.519531 38.128906 C 678.46875 36.726562 681.082031 33.292969 684.878906 31.632812 C 686.28125 31.019531 687.707031 30.710938 689.136719 30.710938 C 689.410156 30.710938 689.683594 30.722656 689.953125 30.742188 C 690.113281 30.753906 690.269531 30.769531 690.429688 30.789062 C 693.675781 31.199219 696.089844 33.097656 697.542969 34.617188 C 698.535156 35.660156 699.222656 36.988281 699.53125 38.464844 C 699.921875 40.375 700.945312 43.101562 703.578125 45.238281 C 705.371094 46.691406 707.488281 47.539062 709.875 47.761719 C 711.683594 47.925781 713.371094 48.652344 714.632812 49.816406 C 715.394531 50.507812 715.976562 51.328125 716.367188 52.257812 C 716.554688 52.722656 716.707031 53.199219 716.808594 53.679688 C 717.199219 55.523438 716.890625 57.476562 715.894531 59.480469 C 715.382812 60.507812 714.691406 61.542969 713.839844 62.554688 C 713.839844 62.554688 713.839844 62.558594 713.839844 62.558594 C 712.21875 64.492188 709.933594 66.410156 707.726562 67.683594 Z M 715.320312 62.367188 C 715.828125 61.691406 716.261719 61.007812 716.628906 60.320312 C 717.054688 60.417969 717.617188 60.503906 718.257812 60.503906 C 719.292969 60.503906 720.527344 60.277344 721.695312 59.476562 C 721.964844 59.292969 724.347656 57.621094 724.257812 55.394531 C 724.234375 54.847656 724.113281 54.539062 723.996094 54.238281 C 723.875 53.933594 723.753906 53.621094 723.671875 52.9375 C 723.578125 52.140625 723.660156 51.609375 723.730469 51.140625 C 723.820312 50.574219 723.902344 50.039062 723.644531 49.3125 C 723.167969 47.972656 721.992188 47.28125 721.648438 47.105469 C 719.769531 46.09375 717.074219 46.765625 714.960938 48.722656 C 713.582031 47.59375 711.832031 46.882812 709.972656 46.714844 C 707.792969 46.511719 705.863281 45.742188 704.238281 44.425781 C 701.84375 42.484375 700.914062 39.996094 700.554688 38.25 C 700.210938 36.585938 699.429688 35.078125 698.296875 33.894531 C 696.945312 32.476562 694.816406 30.761719 691.984375 30.023438 C 692.4375 29.738281 692.882812 29.351562 693.257812 28.820312 C 693.820312 28.019531 694.101562 27.050781 694.078125 26.011719 C 694.0625 25.492188 693.929688 25.015625 693.804688 24.554688 C 693.527344 23.550781 693.953125 22.492188 694.839844 21.980469 C 695.765625 21.441406 696.960938 21.644531 697.683594 22.460938 C 697.699219 22.476562 697.71875 22.492188 697.734375 22.507812 C 699.136719 23.710938 701.238281 23.703125 702.519531 22.492188 C 703.59375 21.472656 703.878906 19.785156 703.207031 18.378906 C 702.703125 17.375 701.632812 14.726562 702.652344 11.792969 C 703.160156 10.339844 704.019531 9.300781 704.699219 8.652344 L 733.121094 8.652344 L 733.121094 44.859375 C 729.589844 42.707031 725.75 40.726562 721.679688 38.960938 C 729.761719 31.4375 729.9375 30.089844 729.402344 29.367188 C 729.125 28.996094 728.613281 28.945312 728.160156 28.902344 C 728.101562 28.894531 728.027344 28.890625 727.953125 28.882812 C 727.996094 28.84375 728.039062 28.804688 728.074219 28.773438 C 728.464844 28.429688 729.003906 27.960938 728.921875 27.289062 C 728.855469 26.757812 728.457031 26.527344 728.167969 26.359375 C 727.933594 26.226562 727.789062 26.136719 727.703125 25.957031 C 727.597656 25.734375 727.667969 25.527344 727.890625 25.027344 C 728.089844 24.574219 728.339844 24.011719 728.339844 23.273438 C 728.339844 21.957031 727.488281 20.539062 726.3125 19.898438 C 724.894531 19.132812 723.0625 19.382812 721.671875 20.523438 C 720.09375 21.699219 718.367188 22.65625 716.546875 23.367188 C 715.175781 23.90625 714.046875 24.191406 713.054688 24.445312 C 711.339844 24.878906 710.105469 25.191406 709.292969 26.492188 C 708.765625 27.34375 708.738281 28.105469 708.714844 28.84375 C 708.691406 29.585938 708.667969 30.285156 708.125 31.15625 C 707.886719 31.539062 707.578125 31.894531 707.210938 32.214844 C 705.445312 32.304688 704.097656 32.746094 703.441406 33.007812 C 703.195312 33.105469 703.0625 33.371094 703.128906 33.628906 C 703.417969 34.738281 704.425781 37.550781 707.523438 39.703125 C 710.445312 41.734375 713.503906 42.03125 715.054688 42.03125 C 715.296875 42.03125 715.488281 42.023438 715.652344 42.015625 L 718.464844 43.324219 C 723.242188 45.753906 728.09375 47.75 732.878906 49.253906 C 732.953125 49.277344 733.039062 49.304688 733.121094 49.328125 L 733.121094 62.367188 Z M 715.320312 62.367188 " fill-opacity="1" fill-rule="nonzero"/></g><path fill="#f9e5df" d="M 695.578125 48.375 C 694.097656 47.578125 692.058594 47.898438 691.304688 49.046875 C 691.007812 49.5 691.039062 49.910156 691.0625 50.269531 C 691.082031 50.566406 691.105469 50.871094 690.957031 51.308594 C 690.765625 51.882812 690.457031 52.171875 690.160156 52.449219 C 689.835938 52.757812 689.464844 53.105469 689.476562 53.722656 C 689.496094 55.171875 691.554688 56.1875 693.03125 56.359375 L 693.089844 56.367188 C 693.289062 56.394531 693.640625 56.441406 694.035156 56.441406 C 694.738281 56.441406 695.582031 56.292969 695.988281 55.636719 C 696.355469 55.039062 696.136719 54.382812 695.957031 53.855469 C 695.8125 53.417969 695.722656 53.121094 695.835938 52.964844 C 695.902344 52.875 696.011719 52.851562 696.273438 52.808594 C 696.597656 52.757812 697.042969 52.6875 697.335938 52.253906 C 697.582031 51.894531 697.636719 51.402344 697.496094 50.828125 C 697.25 49.828125 696.496094 48.867188 695.578125 48.375 Z M 695.578125 48.375 " fill-opacity="1" fill-rule="nonzero"/><path fill="#f9e5df" d="M 688.367188 57.324219 C 687.441406 57.476562 686.601562 58.042969 686.003906 58.914062 C 685.414062 59.777344 685.152344 60.8125 685.320312 61.621094 C 685.34375 61.742188 685.390625 61.964844 685.558594 62.332031 C 685.835938 62.925781 686.109375 63.582031 686.378906 64.28125 C 686.515625 64.839844 686.875 65.308594 687.367188 65.5625 C 687.621094 65.695312 687.882812 65.761719 688.136719 65.761719 C 688.316406 65.761719 688.492188 65.726562 688.65625 65.660156 C 688.929688 65.542969 689.058594 65.347656 689.152344 65.203125 C 689.207031 65.121094 689.261719 65.039062 689.355469 64.941406 C 689.601562 64.683594 689.855469 64.613281 690.148438 64.535156 C 690.464844 64.453125 690.859375 64.347656 691.125 63.957031 C 691.433594 63.515625 691.316406 63.09375 691.214844 62.71875 C 691.15625 62.515625 691.09375 62.285156 691.070312 61.992188 C 691.015625 61.277344 691.242188 60.828125 691.464844 60.394531 C 691.695312 59.9375 691.960938 59.414062 691.707031 58.757812 C 691.277344 57.640625 689.632812 57.113281 688.367188 57.324219 Z M 688.367188 57.324219 " fill-opacity="1" fill-rule="nonzero"/><path fill="#f9e5df" d="M 704.203125 56.921875 C 704.28125 56.921875 704.363281 56.914062 704.445312 56.90625 C 705.25 56.824219 705.664062 56.453125 705.867188 56.160156 C 706.308594 55.527344 706.113281 54.820312 705.957031 54.253906 C 705.882812 53.980469 705.777344 53.613281 705.855469 53.519531 C 705.882812 53.488281 706.039062 53.488281 706.164062 53.484375 C 706.472656 53.480469 706.941406 53.476562 707.355469 53.113281 C 708.144531 52.417969 708.195312 50.8125 707.457031 49.742188 C 706.726562 48.6875 705.433594 48.597656 704.488281 48.53125 C 704.484375 48.53125 704.46875 48.53125 704.46875 48.53125 C 703.8125 48.496094 702.203125 48.480469 701.449219 49.113281 C 700.867188 49.601562 700.523438 50.355469 700.457031 51.300781 C 700.347656 52.785156 700.933594 54.523438 701.925781 55.636719 C 702.25 55.996094 703.070312 56.921875 704.203125 56.921875 Z M 704.203125 56.921875 " fill-opacity="1" fill-rule="nonzero"/><path fill="#f9e5df" d="M 684.816406 49.738281 C 684.621094 48.570312 682.976562 47.816406 681.738281 47.976562 C 679.664062 48.230469 678.871094 50.746094 678.675781 51.511719 C 678.558594 51.972656 678.339844 52.835938 678.667969 53.859375 C 678.695312 53.949219 679.34375 56.027344 681.191406 56.34375 C 681.34375 56.371094 681.496094 56.382812 681.652344 56.382812 C 682.433594 56.382812 683.242188 56.066406 683.894531 55.488281 C 684.503906 54.945312 684.839844 54.296875 684.8125 53.710938 C 684.785156 53.171875 684.464844 52.855469 684.230469 52.625 C 684.019531 52.417969 683.90625 52.296875 683.882812 52.074219 C 683.84375 51.773438 684.011719 51.542969 684.28125 51.191406 C 684.566406 50.824219 684.921875 50.367188 684.816406 49.738281 Z M 684.816406 49.738281 " fill-opacity="1" fill-rule="nonzero"/><path fill="#f9e5df" d="M 688.222656 46.359375 C 688.558594 46.449219 688.925781 46.496094 689.292969 46.496094 C 690.253906 46.496094 691.222656 46.175781 691.667969 45.429688 C 691.972656 44.921875 691.871094 44.488281 691.789062 44.140625 C 691.730469 43.890625 691.671875 43.65625 691.734375 43.324219 C 691.847656 42.703125 692.285156 42.371094 692.75 42.023438 C 693.234375 41.652344 693.789062 41.234375 693.835938 40.476562 C 693.902344 39.464844 693.035156 38.511719 692.273438 38 C 691.886719 37.742188 690.902344 37.183594 690.121094 37.566406 C 689.609375 37.8125 689.496094 38.320312 689.414062 38.6875 C 689.332031 39.058594 689.265625 39.292969 689.027344 39.46875 C 688.789062 39.640625 688.539062 39.636719 688.148438 39.617188 C 687.707031 39.597656 687.15625 39.566406 686.667969 40 C 686.101562 40.496094 686.082031 41.179688 686.046875 42.304688 C 686.007812 43.503906 686.046875 44.753906 686.929688 45.691406 C 687.34375 46.125 687.832031 46.253906 688.222656 46.359375 Z M 688.222656 46.359375 " fill-opacity="1" fill-rule="nonzero"/><g clip-path="url(#b00691bf6d)"><path fill="#f9e5df" d="M 860.707031 11.121094 C 860.335938 11.007812 859.9375 10.933594 859.550781 10.933594 C 857.976562 10.933594 856.578125 11.949219 856.078125 13.4375 L 841.4375 57.351562 C 841.308594 57.722656 841.253906 58.109375 841.253906 58.507812 C 841.253906 60.523438 842.910156 62.167969 844.914062 62.167969 C 846.484375 62.167969 847.886719 61.152344 848.386719 59.667969 L 863.023438 15.753906 C 863.152344 15.378906 863.210938 14.980469 863.210938 14.59375 C 863.210938 13.023438 862.195312 11.621094 860.707031 11.121094 " fill-opacity="1" fill-rule="nonzero"/></g><g clip-path="url(#678fb871c6)"><path fill="#f9e5df" d="M 832.863281 19.324219 C 832.175781 18.640625 831.246094 18.253906 830.273438 18.253906 C 829.300781 18.253906 828.371094 18.640625 827.6875 19.324219 L 813.046875 33.964844 C 812.363281 34.652344 811.976562 35.578125 811.976562 36.550781 C 811.976562 37.523438 812.363281 38.453125 813.046875 39.140625 L 827.6875 53.777344 C 828.371094 54.433594 829.289062 54.808594 830.230469 54.808594 C 832.234375 54.808594 833.890625 53.148438 833.890625 51.148438 C 833.890625 50.203125 833.519531 49.289062 832.863281 48.601562 L 820.808594 36.550781 L 832.863281 24.5 C 833.546875 23.816406 833.933594 22.886719 833.933594 21.914062 C 833.933594 20.941406 833.546875 20.011719 832.863281 19.324219 " fill-opacity="1" fill-rule="nonzero"/></g><g clip-path="url(#c778f4daaf)"><path fill="#f9e5df" d="M 891.414062 33.964844 L 876.777344 19.324219 C 876.089844 18.667969 875.175781 18.296875 874.230469 18.296875 C 872.230469 18.296875 870.574219 19.953125 870.574219 21.957031 C 870.574219 22.898438 870.945312 23.816406 871.601562 24.5 L 883.652344 36.550781 L 871.601562 48.601562 C 870.886719 49.289062 870.488281 50.246094 870.488281 51.234375 C 870.488281 53.25 872.128906 54.894531 874.144531 54.894531 C 875.132812 54.894531 876.089844 54.492188 876.777344 53.777344 L 891.414062 39.140625 C 892.101562 38.453125 892.488281 37.523438 892.488281 36.550781 C 892.488281 35.578125 892.101562 34.652344 891.414062 33.964844 " fill-opacity="1" fill-rule="nonzero"/></g></svg>