<svg xmlns="http://www.w3.org/2000/svg" xmlns:xlink="http://www.w3.org/1999/xlink" width="1200" zoomAndPan="magnify" viewBox="0 0 900 74.999997" height="100" preserveAspectRatio="xMidYMid meet" version="1.0"><defs><clipPath id="dd66d40a8c"><path d="M 0 24.390625 L 900 24.390625 L 900 75 L 0 75 Z M 0 24.390625 " clip-rule="nonzero"/></clipPath></defs><g clip-path="url(#dd66d40a8c)"><path fill="#fe700f" d="M 921.699219 32.300781 C 921.699219 27.914062 918.085938 24.378906 913.699219 24.503906 C 842.75 26.539062 840.085938 55.585938 763.996094 55.585938 C 685.144531 55.585938 685.144531 24.390625 606.289062 24.390625 C 527.4375 24.390625 527.4375 55.585938 448.585938 55.585938 C 369.738281 55.585938 369.738281 24.390625 290.886719 24.390625 C 212.035156 24.390625 212.035156 55.585938 133.1875 55.585938 C 57.097656 55.585938 54.433594 26.539062 -16.515625 24.503906 C -20.898438 24.378906 -24.511719 27.914062 -24.511719 32.300781 L -24.511719 177.761719 C -24.511719 182.066406 -21.019531 185.558594 -16.714844 185.558594 L 913.902344 185.558594 C 918.207031 185.558594 921.699219 182.066406 921.699219 177.761719 Z M 921.699219 32.300781 " fill-opacity="1" fill-rule="nonzero"/></g></svg>