<svg xmlns="http://www.w3.org/2000/svg" xmlns:xlink="http://www.w3.org/1999/xlink" width="40" zoomAndPan="magnify" viewBox="0 0 30 30.000001" height="40" preserveAspectRatio="xMidYMid meet" version="1.0"><defs><clipPath id="013be59327"><path d="M 0.714844 0 L 29.515625 0 L 29.515625 29.03125 L 0.714844 29.03125 Z M 0.714844 0 " clip-rule="nonzero"/></clipPath><clipPath id="eb488d5619"><path d="M 5.796875 0 L 24.433594 0 C 25.78125 0 27.074219 0.535156 28.027344 1.488281 C 28.980469 2.441406 29.515625 3.734375 29.515625 5.082031 L 29.515625 23.953125 C 29.515625 25.300781 28.980469 26.589844 28.027344 27.542969 C 27.074219 28.496094 25.78125 29.03125 24.433594 29.03125 L 5.796875 29.03125 C 4.449219 29.03125 3.15625 28.496094 2.203125 27.542969 C 1.25 26.589844 0.714844 25.300781 0.714844 23.953125 L 0.714844 5.082031 C 0.714844 3.734375 1.25 2.441406 2.203125 1.488281 C 3.15625 0.535156 4.449219 0 5.796875 0 Z M 5.796875 0 " clip-rule="nonzero"/></clipPath><clipPath id="77f623bb00"><path d="M 5.8125 5.363281 L 23.957031 5.363281 L 23.957031 23.507812 L 5.8125 23.507812 Z M 5.8125 5.363281 " clip-rule="nonzero"/></clipPath></defs><g clip-path="url(#013be59327)"><g clip-path="url(#eb488d5619)"><path fill="#fff3ef" d="M 0.714844 0 L 29.515625 0 L 29.515625 29.023438 L 0.714844 29.023438 Z M 0.714844 0 " fill-opacity="1" fill-rule="nonzero"/></g></g><g clip-path="url(#77f623bb00)"><path fill="#fe700f" d="M 24.148438 16.28125 L 20.882812 5.820312 C 20.804688 5.558594 20.566406 5.375 20.292969 5.363281 C 20.027344 5.351562 19.769531 5.5 19.660156 5.75 L 17.214844 11.246094 L 12.835938 11.246094 L 10.394531 5.75 C 10.285156 5.5 10.035156 5.351562 9.761719 5.363281 C 9.488281 5.375 9.257812 5.558594 9.175781 5.820312 L 5.910156 16.28125 C 5.832031 16.542969 5.917969 16.824219 6.132812 16.992188 L 14.632812 23.53125 C 14.75 23.621094 14.894531 23.667969 15.03125 23.667969 C 15.167969 23.667969 15.3125 23.621094 15.429688 23.53125 L 23.929688 16.992188 C 24.144531 16.824219 24.234375 16.542969 24.148438 16.28125 Z M 24.148438 16.28125 " fill-opacity="1" fill-rule="nonzero"/></g></svg>