<svg xmlns="http://www.w3.org/2000/svg" xmlns:xlink="http://www.w3.org/1999/xlink" width="70" zoomAndPan="magnify" viewBox="0 0 52.5 52.499999" height="70" preserveAspectRatio="xMidYMid meet" version="1.0"><defs><clipPath id="ddd6587636"><path d="M 3.25 0 L 13 0 L 13 18 L 3.25 18 Z M 3.25 0 " clip-rule="nonzero"/></clipPath><clipPath id="f884519a66"><path d="M 4 18 L 47 18 L 47 52.003906 L 4 52.003906 Z M 4 18 " clip-rule="nonzero"/></clipPath><clipPath id="0202b99797"><path d="M 45 5 L 48.570312 5 L 48.570312 8 L 45 8 Z M 45 5 " clip-rule="nonzero"/></clipPath></defs><path fill="#fed0bb" d="M 26.570312 14.214844 C 27.90625 14.214844 29 13.121094 29 11.785156 C 29 10.449219 27.90625 9.355469 26.570312 9.355469 C 25.234375 9.355469 24.140625 10.449219 24.140625 11.785156 C 24.179688 13.121094 25.273438 14.214844 26.570312 14.214844 Z M 26.570312 10.976562 C 27.015625 10.976562 27.378906 11.339844 27.378906 11.785156 C 27.378906 12.230469 27.015625 12.597656 26.570312 12.597656 C 26.125 12.597656 25.757812 12.230469 25.757812 11.785156 C 25.757812 11.339844 26.164062 10.976562 26.570312 10.976562 Z M 26.570312 10.976562 " fill-opacity="1" fill-rule="nonzero"/><path fill="#fed0bb" d="M 22.355469 4.902344 C 21.019531 4.902344 19.925781 5.996094 19.925781 7.332031 C 19.925781 8.667969 21.019531 9.761719 22.355469 9.761719 C 23.695312 9.761719 24.789062 8.667969 24.789062 7.332031 C 24.789062 5.996094 23.652344 4.902344 22.355469 4.902344 Z M 22.355469 8.140625 C 21.910156 8.140625 21.546875 7.777344 21.546875 7.332031 C 21.546875 6.886719 21.910156 6.519531 22.355469 6.519531 C 22.800781 6.519531 23.167969 6.886719 23.167969 7.332031 C 23.167969 7.777344 22.761719 8.140625 22.355469 8.140625 Z M 22.355469 8.140625 " fill-opacity="1" fill-rule="nonzero"/><path fill="#fed0bb" d="M 18.589844 7.332031 C 18.589844 5.996094 17.496094 4.902344 16.160156 4.902344 C 14.824219 4.902344 13.730469 5.996094 13.730469 7.332031 C 13.730469 8.667969 14.824219 9.761719 16.160156 9.761719 C 17.496094 9.761719 18.589844 8.667969 18.589844 7.332031 Z M 15.390625 7.332031 C 15.390625 6.886719 15.753906 6.519531 16.199219 6.519531 C 16.644531 6.519531 17.011719 6.886719 17.011719 7.332031 C 17.011719 7.777344 16.644531 8.140625 16.199219 8.140625 C 15.753906 8.140625 15.390625 7.777344 15.390625 7.332031 Z M 15.390625 7.332031 " fill-opacity="1" fill-rule="nonzero"/><g clip-path="url(#ddd6587636)"><path fill="#fed0bb" d="M 3.363281 8.140625 C 3.363281 8.179688 3.363281 8.179688 3.363281 8.140625 C 3.402344 8.222656 3.402344 8.222656 3.402344 8.261719 L 6.277344 17.214844 C 6.480469 17.132812 6.722656 17.09375 6.964844 17.09375 L 7.9375 17.09375 L 5.144531 8.34375 L 5.832031 8.101562 L 8.707031 17.132812 L 10.410156 17.132812 L 7.371094 7.613281 L 8.058594 7.371094 L 11.179688 17.132812 L 12.878906 17.132812 L 9.398438 6.238281 C 9.398438 6.195312 9.355469 6.195312 9.355469 6.15625 C 9.355469 6.117188 9.355469 6.117188 9.355469 6.074219 C 9.316406 5.953125 9.234375 5.871094 9.195312 5.792969 C 9.195312 5.792969 9.152344 5.75 9.152344 5.75 L 5.023438 0.445312 C 4.820312 0.160156 4.457031 0.0820312 4.132812 0.160156 C 3.808594 0.285156 3.5625 0.566406 3.5625 0.890625 L 3.320312 7.695312 C 3.320312 7.734375 3.320312 7.734375 3.320312 7.777344 C 3.320312 7.898438 3.320312 8.019531 3.363281 8.140625 Z M 7.25 5.953125 L 6.117188 6.359375 L 4.980469 6.765625 L 5.0625 4.171875 L 5.671875 3.96875 Z M 7.25 5.953125 " fill-opacity="1" fill-rule="nonzero"/></g><g clip-path="url(#f884519a66)"><path fill="#fed0bb" d="M 44.714844 36.453125 L 44.875 36.371094 C 44.917969 36.371094 44.996094 36.332031 45.039062 36.332031 C 45.402344 36.207031 46.011719 36.007812 46.375 35.4375 C 46.660156 34.953125 46.738281 34.347656 46.496094 33.820312 C 46.171875 33.007812 45.644531 32.359375 45.078125 31.632812 C 44.632812 31.066406 44.1875 30.5 43.78125 29.808594 C 43.703125 29.648438 43.582031 29.484375 43.5 29.324219 C 42.851562 28.230469 42.203125 27.097656 42.40625 26.203125 C 42.8125 23.894531 42.609375 21.546875 41.796875 19.320312 C 41.675781 18.996094 41.394531 18.792969 41.027344 18.792969 L 6.601562 18.792969 C 6.277344 18.792969 5.996094 18.996094 5.832031 19.277344 C 5.101562 21.0625 4.617188 22.925781 4.496094 24.503906 C 4.253906 27.824219 5.0625 31.066406 6.804688 33.65625 C 7.085938 34.101562 7.371094 34.546875 7.613281 34.953125 C 7.9375 35.519531 8.304688 36.085938 8.75 36.695312 C 10.652344 39.367188 14.621094 46.011719 10.53125 50.667969 C 10.328125 50.910156 10.289062 51.234375 10.410156 51.519531 C 10.53125 51.800781 10.8125 52.003906 11.136719 52.003906 L 30.132812 52.003906 C 30.457031 52.003906 30.78125 51.800781 30.902344 51.476562 C 31.023438 51.152344 30.945312 50.832031 30.699219 50.585938 C 29.605469 49.535156 29.039062 48.683594 29.082031 46.941406 C 32.160156 48.722656 35.4375 49.777344 38.597656 50.0625 C 39.570312 50.140625 40.460938 49.898438 41.191406 49.371094 C 41.796875 48.925781 42.242188 48.320312 42.445312 47.628906 C 42.769531 46.535156 42.609375 45.320312 42.488281 44.351562 C 42.445312 44.027344 42.40625 43.582031 42.40625 43.296875 C 42.40625 43.296875 42.445312 43.296875 42.445312 43.296875 C 42.851562 43.214844 43.863281 43.011719 43.863281 42.042969 C 43.863281 41.71875 43.742188 41.433594 43.582031 41.230469 C 43.824219 41.191406 44.027344 41.109375 44.1875 40.988281 C 45.242188 40.179688 44.675781 38.839844 44.269531 37.992188 C 44.105469 37.625 43.824219 37.019531 43.90625 36.816406 C 44.105469 36.65625 44.429688 36.574219 44.714844 36.453125 Z M 42.851562 35.640625 C 41.917969 36.53125 42.445312 37.746094 42.851562 38.640625 C 42.972656 38.964844 43.214844 39.449219 43.214844 39.652344 C 43.09375 39.652344 42.890625 39.652344 42.769531 39.691406 C 42.242188 39.691406 41.472656 39.734375 41.3125 40.460938 C 41.191406 41.027344 41.59375 41.433594 41.917969 41.796875 C 41.554688 41.878906 41.148438 42.042969 40.949219 42.488281 C 40.703125 43.054688 40.824219 43.742188 40.90625 44.59375 C 41.027344 45.445312 41.148438 46.457031 40.90625 47.226562 C 40.824219 47.550781 40.582031 47.875 40.257812 48.117188 C 39.894531 48.398438 39.367188 48.523438 38.800781 48.480469 C 35.683594 48.199219 32.441406 47.105469 29.40625 45.242188 L 29.28125 45.160156 C 29.160156 45.078125 29 44.996094 28.878906 44.917969 C 28.878906 44.917969 28.835938 44.917969 28.835938 44.875 C 26.894531 43.621094 26.851562 42.851562 26.851562 42.6875 C 26.894531 42.242188 26.570312 41.839844 26.125 41.796875 C 25.679688 41.757812 25.273438 42.082031 25.234375 42.527344 C 25.152344 43.660156 25.921875 44.835938 27.542969 45.929688 C 27.378906 47.953125 27.703125 49.210938 28.433594 50.304688 L 12.796875 50.304688 C 15.957031 44.996094 12.070312 38.4375 10.125 35.683594 C 9.71875 35.117188 9.398438 34.589844 9.074219 34.0625 C 8.828125 33.617188 8.546875 33.171875 8.222656 32.726562 C 6.683594 30.417969 5.953125 27.542969 6.195312 24.585938 C 6.277344 23.328125 6.640625 21.832031 7.210938 20.371094 L 40.503906 20.371094 C 41.070312 22.15625 41.191406 24.058594 40.867188 25.878906 C 40.582031 27.378906 41.433594 28.835938 42.164062 30.09375 C 42.242188 30.253906 42.363281 30.417969 42.445312 30.578125 C 42.890625 31.347656 43.417969 32.039062 43.863281 32.605469 C 44.390625 33.253906 44.796875 33.820312 45.039062 34.386719 C 45.078125 34.46875 45.078125 34.507812 45.039062 34.507812 C 44.996094 34.589844 44.753906 34.667969 44.59375 34.75 C 44.511719 34.792969 44.429688 34.792969 44.351562 34.832031 L 44.1875 34.871094 C 43.742188 35.074219 43.257812 35.238281 42.851562 35.640625 Z M 42.851562 35.640625 " fill-opacity="1" fill-rule="nonzero"/></g><path fill="#fed0bb" d="M 38.195312 0.121094 C 36.492188 0 34.832031 0.609375 33.578125 1.742188 C 32.359375 2.875 31.671875 4.414062 31.671875 6.074219 C 31.671875 7.9375 32.523438 9.679688 34.0625 10.8125 C 34.507812 11.136719 34.792969 11.664062 34.792969 12.152344 L 34.792969 13.164062 C 34.792969 13.890625 35.316406 14.660156 36.128906 14.660156 L 39.367188 14.660156 C 40.179688 14.660156 40.746094 13.890625 40.746094 13.164062 L 40.746094 12.070312 C 40.746094 11.582031 40.988281 11.097656 41.433594 10.773438 C 43.054688 9.558594 43.945312 7.613281 43.78125 5.628906 C 43.621094 2.714844 41.191406 0.324219 38.195312 0.121094 Z M 40.460938 9.558594 C 39.609375 10.207031 39.125 11.136719 39.125 12.152344 L 39.125 13.082031 L 36.371094 13.082031 L 36.371094 12.191406 C 36.371094 11.179688 35.84375 10.167969 35.035156 9.558594 C 33.941406 8.707031 33.292969 7.453125 33.292969 6.117188 C 33.292969 4.902344 33.777344 3.808594 34.667969 2.957031 C 35.601562 2.105469 36.777344 1.660156 38.070312 1.742188 C 40.300781 1.902344 42.042969 3.644531 42.203125 5.792969 C 42.285156 7.25 41.636719 8.667969 40.460938 9.558594 Z M 40.460938 9.558594 " fill-opacity="1" fill-rule="nonzero"/><path fill="#fed0bb" d="M 39.691406 6.441406 C 39.691406 6.359375 39.691406 6.316406 39.691406 6.277344 C 39.691406 6.238281 39.691406 6.238281 39.652344 6.195312 C 39.652344 6.15625 39.652344 6.15625 39.609375 6.117188 C 39.609375 6.074219 39.570312 6.074219 39.570312 6.035156 C 39.570312 5.996094 39.53125 5.996094 39.53125 5.953125 C 39.53125 5.953125 39.488281 5.914062 39.488281 5.914062 C 39.488281 5.871094 39.449219 5.871094 39.449219 5.832031 C 39.449219 5.832031 39.410156 5.792969 39.410156 5.792969 C 39.367188 5.832031 39.367188 5.792969 39.328125 5.792969 C 39.285156 5.792969 39.285156 5.75 39.246094 5.75 C 39.246094 5.75 39.207031 5.75 39.207031 5.710938 C 39.164062 5.671875 39.125 5.671875 39.042969 5.671875 C 39.003906 5.671875 38.921875 5.671875 38.882812 5.671875 L 37.992188 5.671875 L 38.558594 4.292969 C 38.71875 3.886719 38.558594 3.402344 38.152344 3.238281 C 37.746094 3.078125 37.261719 3.238281 37.101562 3.644531 L 36.046875 6.117188 C 36.007812 6.15625 36.007812 6.238281 36.007812 6.277344 C 36.007812 6.316406 36.007812 6.398438 36.007812 6.441406 C 36.007812 6.441406 36.007812 6.480469 36.007812 6.480469 C 36.007812 6.519531 36.007812 6.5625 36.007812 6.601562 C 36.007812 6.640625 36.007812 6.640625 36.046875 6.683594 C 36.046875 6.722656 36.046875 6.722656 36.085938 6.765625 C 36.085938 6.804688 36.128906 6.804688 36.128906 6.84375 C 36.128906 6.886719 36.167969 6.886719 36.167969 6.925781 C 36.167969 6.964844 36.207031 6.964844 36.207031 6.964844 C 36.207031 7.007812 36.25 7.007812 36.25 7.046875 C 36.25 7.046875 36.289062 7.085938 36.332031 7.085938 C 36.332031 7.085938 36.371094 7.128906 36.371094 7.128906 C 36.410156 7.167969 36.453125 7.167969 36.492188 7.210938 C 36.53125 7.25 36.613281 7.25 36.65625 7.25 C 36.695312 7.25 36.777344 7.25 36.816406 7.25 L 37.707031 7.25 L 37.058594 8.625 C 36.898438 9.03125 37.058594 9.519531 37.503906 9.679688 C 37.625 9.71875 37.707031 9.761719 37.828125 9.761719 C 38.152344 9.761719 38.4375 9.558594 38.558594 9.273438 L 39.609375 6.804688 C 39.652344 6.765625 39.652344 6.683594 39.652344 6.640625 C 39.691406 6.5625 39.691406 6.519531 39.691406 6.441406 Z M 39.691406 6.441406 " fill-opacity="1" fill-rule="nonzero"/><path fill="#fed0bb" d="M 36.53125 15.511719 C 36.085938 15.511719 35.722656 15.875 35.722656 16.324219 C 35.722656 16.769531 36.085938 17.132812 36.53125 17.132812 L 38.964844 17.132812 C 39.410156 17.132812 39.773438 16.769531 39.773438 16.324219 C 39.773438 15.875 39.410156 15.511719 38.964844 15.511719 Z M 36.53125 15.511719 " fill-opacity="1" fill-rule="nonzero"/><path fill="#fed0bb" d="M 45.445312 3.96875 C 45.644531 3.96875 45.890625 3.886719 46.050781 3.726562 L 47.183594 2.511719 C 47.46875 2.1875 47.46875 1.660156 47.144531 1.378906 C 46.820312 1.09375 46.292969 1.09375 46.011719 1.417969 L 44.875 2.632812 C 44.59375 2.957031 44.59375 3.484375 44.917969 3.765625 C 45.039062 3.886719 45.242188 3.96875 45.445312 3.96875 Z M 45.445312 3.96875 " fill-opacity="1" fill-rule="nonzero"/><path fill="#fed0bb" d="M 47.144531 9.882812 L 46.011719 8.667969 C 45.726562 8.34375 45.199219 8.304688 44.875 8.625 C 44.550781 8.910156 44.511719 9.4375 44.835938 9.761719 L 45.96875 10.976562 C 46.132812 11.136719 46.335938 11.21875 46.578125 11.21875 C 46.78125 11.21875 46.984375 11.136719 47.144531 11.015625 C 47.429688 10.734375 47.46875 10.246094 47.144531 9.882812 Z M 47.144531 9.882812 " fill-opacity="1" fill-rule="nonzero"/><g clip-path="url(#0202b99797)"><path fill="#fed0bb" d="M 48.683594 6.195312 C 48.683594 5.75 48.320312 5.386719 47.875 5.386719 L 46.375 5.386719 C 45.929688 5.386719 45.566406 5.75 45.566406 6.195312 C 45.566406 6.640625 45.929688 7.007812 46.375 7.007812 L 47.875 7.007812 C 48.320312 7.007812 48.683594 6.640625 48.683594 6.195312 Z M 48.683594 6.195312 " fill-opacity="1" fill-rule="nonzero"/></g><path fill="#fed0bb" d="M 14.660156 17.132812 C 14.621094 17.132812 14.621094 17.09375 14.582031 17.09375 L 14.582031 17.132812 Z M 14.660156 17.132812 " fill-opacity="1" fill-rule="nonzero"/><path fill="#fed0bb" d="M 33.292969 17.132812 C 33.375 15.351562 33.171875 13.566406 32.683594 11.828125 C 31.066406 10.410156 30.09375 8.425781 30.050781 6.277344 C 28.066406 3.5625 25.355469 1.824219 22.234375 1.253906 C 19.886719 0.851562 14.015625 0.285156 10.53125 4.132812 C 10.410156 4.253906 10.328125 4.375 10.246094 4.496094 L 10.53125 4.902344 C 10.691406 5.144531 10.855469 5.386719 10.9375 5.671875 L 11.097656 6.117188 C 11.300781 5.832031 11.503906 5.507812 11.746094 5.265625 C 14.660156 1.945312 19.847656 2.46875 21.953125 2.835938 C 24.988281 3.363281 27.664062 5.304688 29.445312 8.222656 C 31.023438 10.855469 31.792969 14.054688 31.671875 17.132812 Z M 33.292969 17.132812 " fill-opacity="1" fill-rule="nonzero"/><path fill="#fed0bb" d="M 27.785156 16.890625 C 27.988281 16.890625 28.191406 16.96875 28.351562 17.132812 L 30.132812 17.132812 C 29.890625 16.078125 28.917969 15.269531 27.785156 15.269531 C 26.652344 15.269531 25.679688 16.078125 25.433594 17.132812 L 27.21875 17.132812 C 27.378906 16.96875 27.582031 16.890625 27.785156 16.890625 Z M 27.785156 16.890625 " fill-opacity="1" fill-rule="nonzero"/></svg>