<svg xmlns="http://www.w3.org/2000/svg" xmlns:xlink="http://www.w3.org/1999/xlink" width="70" zoomAndPan="magnify" viewBox="0 0 52.5 52.499999" height="70" preserveAspectRatio="xMidYMid meet" version="1.0"><defs><clipPath id="1b017fe7eb"><path d="M 0 5.980469 L 52 5.980469 L 52 46 L 0 46 Z M 0 5.980469 " clip-rule="nonzero"/></clipPath></defs><g clip-path="url(#1b017fe7eb)"><path fill="#fed0bb" d="M 45.359375 5.972656 L 28.054688 5.972656 C 27.628906 5.972656 27.207031 6.015625 26.789062 6.097656 C 26.375 6.179688 25.96875 6.304688 25.574219 6.464844 C 25.179688 6.628906 24.808594 6.828125 24.453125 7.0625 C 24.101562 7.300781 23.773438 7.566406 23.472656 7.867188 C 23.171875 8.167969 22.902344 8.496094 22.664062 8.847656 C 22.429688 9.203125 22.226562 9.578125 22.066406 9.96875 C 21.902344 10.363281 21.777344 10.765625 21.695312 11.183594 C 21.613281 11.601562 21.570312 12.023438 21.570312 12.449219 L 21.570312 16.027344 L 6.707031 16.027344 C 6.28125 16.027344 5.859375 16.070312 5.441406 16.152344 C 5.023438 16.238281 4.617188 16.359375 4.226562 16.523438 C 3.832031 16.6875 3.460938 16.886719 3.105469 17.125 C 2.75 17.359375 2.425781 17.628906 2.125 17.929688 C 1.824219 18.230469 1.554688 18.558594 1.316406 18.914062 C 1.082031 19.265625 0.882812 19.640625 0.71875 20.035156 C 0.554688 20.425781 0.433594 20.832031 0.351562 21.25 C 0.269531 21.667969 0.226562 22.089844 0.226562 22.515625 L 0.226562 32.347656 C 0.226562 32.734375 0.261719 33.121094 0.332031 33.5 C 0.402344 33.882812 0.503906 34.253906 0.640625 34.617188 C 0.777344 34.980469 0.941406 35.328125 1.140625 35.660156 C 1.339844 35.992188 1.566406 36.304688 1.820312 36.597656 C 2.074219 36.890625 2.351562 37.15625 2.65625 37.398438 C 2.957031 37.640625 3.28125 37.855469 3.621094 38.039062 C 3.960938 38.226562 4.316406 38.378906 4.683594 38.5 C 5.050781 38.621094 5.425781 38.707031 5.8125 38.761719 L 5.8125 45.074219 C 5.8125 45.425781 5.96875 45.683594 6.277344 45.855469 C 6.582031 46.023438 6.886719 46.011719 7.183594 45.828125 L 18.277344 38.820312 L 24.050781 38.820312 C 24.476562 38.820312 24.894531 38.777344 25.308594 38.691406 C 25.726562 38.609375 26.128906 38.484375 26.519531 38.320312 C 26.910156 38.15625 27.28125 37.957031 27.632812 37.71875 C 27.984375 37.484375 28.3125 37.214844 28.609375 36.914062 C 28.910156 36.613281 29.175781 36.289062 29.410156 35.933594 C 29.644531 35.582031 29.84375 35.210938 30.003906 34.816406 C 30.167969 34.425781 30.289062 34.023438 30.371094 33.605469 C 30.453125 33.191406 30.496094 32.769531 30.496094 32.347656 L 30.496094 28.765625 L 33.820312 28.765625 L 44.867188 35.761719 C 45.015625 35.851562 45.175781 35.898438 45.347656 35.898438 C 45.5 35.898438 45.644531 35.863281 45.78125 35.789062 C 46.089844 35.617188 46.242188 35.355469 46.242188 35.003906 L 46.242188 28.695312 C 46.625 28.640625 47 28.554688 47.371094 28.433594 C 47.738281 28.3125 48.089844 28.160156 48.433594 27.972656 C 48.773438 27.789062 49.09375 27.574219 49.398438 27.332031 C 49.699219 27.089844 49.976562 26.824219 50.230469 26.53125 C 50.488281 26.238281 50.714844 25.925781 50.910156 25.59375 C 51.109375 25.261719 51.277344 24.914062 51.414062 24.550781 C 51.550781 24.1875 51.652344 23.816406 51.722656 23.433594 C 51.789062 23.054688 51.824219 22.667969 51.828125 22.28125 L 51.828125 12.449219 C 51.824219 12.023438 51.785156 11.601562 51.699219 11.1875 C 51.617188 10.769531 51.492188 10.367188 51.332031 9.972656 C 51.167969 9.582031 50.96875 9.210938 50.734375 8.855469 C 50.496094 8.503906 50.230469 8.175781 49.929688 7.875 C 49.628906 7.574219 49.300781 7.308594 48.949219 7.070312 C 48.597656 6.835938 48.222656 6.636719 47.832031 6.472656 C 47.441406 6.308594 47.035156 6.1875 46.621094 6.101562 C 46.203125 6.019531 45.78125 5.976562 45.359375 5.972656 Z M 28.707031 32.347656 C 28.703125 32.65625 28.675781 32.960938 28.613281 33.261719 C 28.554688 33.5625 28.464844 33.855469 28.347656 34.140625 C 28.230469 34.421875 28.085938 34.691406 27.914062 34.949219 C 27.742188 35.203125 27.550781 35.441406 27.332031 35.65625 C 27.113281 35.875 26.878906 36.070312 26.621094 36.238281 C 26.367188 36.410156 26.097656 36.554688 25.8125 36.671875 C 25.527344 36.792969 25.234375 36.878906 24.933594 36.941406 C 24.632812 37 24.328125 37.03125 24.019531 37.03125 L 17.988281 37.03125 C 17.8125 37.03125 17.652344 37.078125 17.503906 37.175781 L 7.605469 43.445312 L 7.605469 37.902344 C 7.605469 37.65625 7.519531 37.445312 7.34375 37.269531 C 7.171875 37.09375 6.960938 37.007812 6.710938 37.007812 C 6.40625 37.007812 6.101562 36.976562 5.796875 36.917969 C 5.496094 36.855469 5.203125 36.765625 4.917969 36.648438 C 4.636719 36.53125 4.367188 36.386719 4.109375 36.214844 C 3.855469 36.046875 3.617188 35.851562 3.398438 35.632812 C 3.183594 35.417969 2.988281 35.179688 2.816406 34.925781 C 2.644531 34.667969 2.5 34.398438 2.382812 34.117188 C 2.265625 33.832031 2.175781 33.539062 2.113281 33.238281 C 2.054688 32.9375 2.023438 32.632812 2.023438 32.324219 L 2.023438 22.515625 C 2.023438 22.207031 2.054688 21.902344 2.113281 21.601562 C 2.175781 21.300781 2.265625 21.007812 2.382812 20.722656 C 2.5 20.4375 2.644531 20.167969 2.816406 19.914062 C 2.988281 19.65625 3.183594 19.421875 3.398438 19.203125 C 3.617188 18.988281 3.855469 18.792969 4.109375 18.621094 C 4.367188 18.449219 4.636719 18.304688 4.917969 18.1875 C 5.203125 18.070312 5.496094 17.980469 5.796875 17.921875 C 6.101562 17.859375 6.40625 17.832031 6.710938 17.832031 L 24.015625 17.832031 C 24.324219 17.832031 24.628906 17.859375 24.929688 17.921875 C 25.230469 17.980469 25.523438 18.070312 25.808594 18.1875 C 26.089844 18.304688 26.359375 18.449219 26.617188 18.621094 C 26.871094 18.792969 27.109375 18.988281 27.324219 19.203125 C 27.542969 19.421875 27.738281 19.65625 27.90625 19.914062 C 28.078125 20.167969 28.222656 20.4375 28.339844 20.722656 C 28.460938 21.007812 28.546875 21.300781 28.609375 21.601562 C 28.667969 21.902344 28.699219 22.207031 28.699219 22.515625 Z M 50.046875 22.28125 C 50.046875 22.589844 50.015625 22.894531 49.957031 23.195312 C 49.894531 23.496094 49.804688 23.789062 49.6875 24.074219 C 49.570312 24.359375 49.425781 24.628906 49.253906 24.882812 C 49.082031 25.136719 48.886719 25.375 48.671875 25.59375 C 48.453125 25.808594 48.214844 26.003906 47.960938 26.175781 C 47.703125 26.34375 47.433594 26.488281 47.152344 26.609375 C 46.867188 26.726562 46.574219 26.8125 46.273438 26.875 C 45.96875 26.933594 45.664062 26.964844 45.359375 26.964844 C 45.109375 26.964844 44.898438 27.054688 44.726562 27.226562 C 44.550781 27.402344 44.464844 27.613281 44.464844 27.859375 L 44.464844 33.378906 L 34.558594 27.109375 C 34.410156 27.011719 34.25 26.964844 34.074219 26.964844 L 30.496094 26.964844 L 30.496094 22.515625 C 30.496094 22.089844 30.453125 21.667969 30.371094 21.25 C 30.285156 20.835938 30.164062 20.429688 30 20.039062 C 29.839844 19.644531 29.636719 19.273438 29.402344 18.917969 C 29.167969 18.566406 28.898438 18.238281 28.597656 17.9375 C 28.296875 17.636719 27.96875 17.371094 27.617188 17.132812 C 27.261719 16.898438 26.890625 16.699219 26.496094 16.535156 C 26.105469 16.371094 25.699219 16.25 25.285156 16.164062 C 24.867188 16.082031 24.445312 16.039062 24.019531 16.039062 L 23.359375 16.039062 L 23.359375 12.460938 C 23.359375 12.152344 23.390625 11.847656 23.449219 11.546875 C 23.511719 11.246094 23.597656 10.953125 23.71875 10.667969 C 23.835938 10.386719 23.980469 10.113281 24.148438 9.859375 C 24.320312 9.605469 24.515625 9.367188 24.734375 9.148438 C 24.949219 8.933594 25.1875 8.738281 25.441406 8.566406 C 25.699219 8.398438 25.96875 8.253906 26.25 8.132812 C 26.535156 8.015625 26.828125 7.929688 27.128906 7.867188 C 27.429688 7.808594 27.734375 7.777344 28.042969 7.777344 L 45.347656 7.777344 C 45.652344 7.777344 45.957031 7.808594 46.261719 7.867188 C 46.5625 7.925781 46.855469 8.015625 47.140625 8.132812 C 47.421875 8.253906 47.691406 8.398438 47.949219 8.566406 C 48.203125 8.738281 48.441406 8.933594 48.660156 9.148438 C 48.875 9.367188 49.070312 9.605469 49.242188 9.859375 C 49.414062 10.113281 49.558594 10.382812 49.675781 10.667969 C 49.792969 10.953125 49.882812 11.246094 49.945312 11.546875 C 50.003906 11.847656 50.035156 12.152344 50.035156 12.460938 Z M 50.046875 22.28125 " fill-opacity="1" fill-rule="nonzero"/></g><path fill="#fed0bb" d="M 16.164062 21.488281 C 15.996094 21.160156 15.730469 20.996094 15.363281 20.996094 C 14.996094 20.996094 14.730469 21.160156 14.5625 21.488281 L 9.046875 32.359375 C 8.984375 32.464844 8.945312 32.578125 8.933594 32.703125 C 8.917969 32.824219 8.929688 32.941406 8.964844 33.058594 C 9 33.175781 9.054688 33.28125 9.132812 33.378906 C 9.210938 33.472656 9.304688 33.546875 9.414062 33.601562 C 9.523438 33.65625 9.640625 33.6875 9.761719 33.695312 C 9.882812 33.707031 10.003906 33.6875 10.117188 33.648438 C 10.234375 33.609375 10.335938 33.546875 10.425781 33.460938 C 10.519531 33.378906 10.585938 33.28125 10.636719 33.171875 L 12.542969 29.421875 L 18.1875 29.421875 L 20.066406 33.171875 C 20.117188 33.28125 20.1875 33.378906 20.277344 33.460938 C 20.367188 33.546875 20.46875 33.609375 20.585938 33.648438 C 20.699219 33.6875 20.820312 33.707031 20.941406 33.695312 C 21.0625 33.6875 21.179688 33.65625 21.289062 33.601562 C 21.398438 33.546875 21.492188 33.472656 21.570312 33.378906 C 21.648438 33.28125 21.703125 33.175781 21.738281 33.058594 C 21.773438 32.941406 21.785156 32.824219 21.769531 32.703125 C 21.757812 32.578125 21.71875 32.464844 21.660156 32.359375 Z M 13.449219 27.632812 L 15.363281 23.867188 L 17.273438 27.632812 Z M 13.449219 27.632812 " fill-opacity="1" fill-rule="nonzero"/><path fill="#fed0bb" d="M 41.933594 21.570312 L 38.441406 19.21875 C 39.167969 18.074219 39.765625 16.867188 40.234375 15.59375 L 41.425781 15.59375 C 41.671875 15.59375 41.882812 15.503906 42.058594 15.332031 C 42.234375 15.15625 42.320312 14.945312 42.320312 14.699219 C 42.320312 14.449219 42.234375 14.238281 42.058594 14.066406 C 41.882812 13.890625 41.671875 13.804688 41.425781 13.804688 L 37.808594 13.804688 L 37.808594 11.941406 C 37.808594 11.695312 37.722656 11.484375 37.546875 11.308594 C 37.375 11.132812 37.164062 11.046875 36.914062 11.046875 C 36.667969 11.046875 36.457031 11.132812 36.28125 11.308594 C 36.109375 11.484375 36.019531 11.695312 36.019531 11.941406 L 36.019531 13.804688 L 32 13.804688 C 31.75 13.804688 31.539062 13.890625 31.367188 14.066406 C 31.191406 14.238281 31.105469 14.449219 31.105469 14.699219 C 31.105469 14.945312 31.191406 15.15625 31.367188 15.332031 C 31.539062 15.503906 31.75 15.59375 32 15.59375 L 38.328125 15.59375 C 37.949219 16.503906 37.488281 17.378906 36.957031 18.210938 L 34.707031 16.695312 C 34.5 16.558594 34.269531 16.511719 34.023438 16.5625 C 33.777344 16.613281 33.585938 16.742188 33.449219 16.953125 C 33.308594 17.164062 33.265625 17.390625 33.316406 17.636719 C 33.367188 17.882812 33.496094 18.074219 33.707031 18.210938 L 35.925781 19.703125 C 35.230469 20.582031 34.460938 21.394531 33.617188 22.132812 C 33.429688 22.296875 33.332031 22.503906 33.316406 22.75 C 33.300781 23 33.378906 23.214844 33.542969 23.398438 C 33.707031 23.585938 33.914062 23.683594 34.160156 23.699219 C 34.40625 23.714844 34.625 23.640625 34.808594 23.476562 C 35.769531 22.632812 36.640625 21.710938 37.429688 20.707031 L 40.949219 23.09375 C 41.097656 23.195312 41.265625 23.242188 41.445312 23.242188 C 41.640625 23.242188 41.816406 23.183594 41.976562 23.066406 C 42.132812 22.949219 42.238281 22.796875 42.296875 22.609375 C 42.355469 22.421875 42.351562 22.234375 42.285156 22.050781 C 42.222656 21.867188 42.109375 21.71875 41.945312 21.605469 Z M 41.933594 21.570312 " fill-opacity="1" fill-rule="nonzero"/></svg>