<svg xmlns="http://www.w3.org/2000/svg" xmlns:xlink="http://www.w3.org/1999/xlink" width="40" zoomAndPan="magnify" viewBox="0 0 30 30.000001" height="40" preserveAspectRatio="xMidYMid meet" version="1.0"><defs><clipPath id="7ebfa4188c"><path d="M 0.484375 0.144531 L 29.515625 0.144531 L 29.515625 29.03125 L 0.484375 29.03125 Z M 0.484375 0.144531 " clip-rule="nonzero"/></clipPath></defs><g clip-path="url(#7ebfa4188c)"><path fill="#fff3ef" d="M 29.367188 24.640625 C 29.367188 27.0625 27.398438 29.03125 24.980469 29.03125 L 4.875 29.03125 C 2.453125 29.03125 0.484375 27.0625 0.484375 24.640625 L 0.484375 4.535156 C 0.484375 2.113281 2.453125 0.144531 4.875 0.144531 L 24.980469 0.144531 C 27.398438 0.144531 29.367188 2.113281 29.367188 4.535156 Z M 29.367188 24.640625 " fill-opacity="1" fill-rule="nonzero"/></g><path fill="#fe700f" d="M 8.886719 6.550781 L 21.371094 6.550781 C 22.558594 6.550781 23.53125 7.519531 23.53125 8.707031 L 23.53125 21.195312 C 23.53125 22.378906 22.5625 23.347656 21.371094 23.347656 L 8.886719 23.347656 C 7.703125 23.347656 6.726562 22.378906 6.726562 21.195312 L 6.726562 8.707031 C 6.726562 7.519531 7.695312 6.550781 8.886719 6.550781 Z M 18.960938 8.417969 C 18.546875 8.417969 18.207031 8.757812 18.207031 9.175781 L 18.207031 10.988281 C 18.207031 11.40625 18.550781 11.746094 18.960938 11.746094 L 20.855469 11.746094 C 21.273438 11.746094 21.609375 11.40625 21.609375 10.988281 L 21.609375 9.175781 C 21.609375 8.757812 21.265625 8.417969 20.855469 8.417969 Z M 21.628906 13.65625 L 20.152344 13.65625 C 20.289062 14.117188 20.367188 14.59375 20.367188 15.097656 C 20.367188 17.890625 18.027344 20.15625 15.148438 20.15625 C 12.273438 20.15625 9.929688 17.890625 9.929688 15.097656 C 9.929688 14.59375 10.007812 14.113281 10.148438 13.65625 L 8.605469 13.65625 L 8.605469 20.753906 C 8.605469 21.121094 8.90625 21.414062 9.273438 21.414062 L 20.972656 21.414062 C 21.335938 21.414062 21.640625 21.113281 21.640625 20.753906 Z M 15.140625 11.648438 C 13.28125 11.648438 11.769531 13.113281 11.769531 14.917969 C 11.769531 16.71875 13.28125 18.1875 15.140625 18.1875 C 17.003906 18.1875 18.511719 16.71875 18.511719 14.917969 C 18.515625 13.101562 17.007812 11.648438 15.140625 11.648438 Z M 15.140625 11.648438 " fill-opacity="1" fill-rule="nonzero"/></svg>