<svg xmlns="http://www.w3.org/2000/svg" xmlns:xlink="http://www.w3.org/1999/xlink" width="70" zoomAndPan="magnify" viewBox="0 0 52.5 52.499999" height="70" preserveAspectRatio="xMidYMid meet" version="1.0"><defs><clipPath id="34b3392c5a"><path d="M 19 1.203125 L 52 1.203125 L 52 31 L 19 31 Z M 19 1.203125 " clip-rule="nonzero"/></clipPath><clipPath id="707b29c8f3"><path d="M 26 25 L 44 25 L 44 50.980469 L 26 50.980469 Z M 26 25 " clip-rule="nonzero"/></clipPath></defs><path fill="#fed0bb" d="M 14.695312 7.089844 C 14.644531 7.53125 14.597656 7.949219 14.59375 8.242188 C 14.578125 10.535156 15.6875 12.796875 17.347656 13.875 C 18.128906 14.378906 18.980469 14.597656 19.871094 14.527344 C 19.875 14.527344 19.878906 14.527344 19.878906 14.527344 C 20.417969 14.480469 20.972656 14.332031 21.53125 14.078125 C 22.09375 13.820312 22.511719 13.460938 22.808594 13.039062 C 22.824219 13.003906 22.847656 12.976562 22.871094 12.945312 C 23.589844 11.839844 23.535156 10.324219 23.136719 9.042969 C 22.558594 7.175781 21.347656 5.722656 19.828125 4.640625 C 18.28125 3.535156 16.460938 2.859375 14.558594 2.785156 C 14.46875 2.78125 14.375 2.777344 14.28125 2.777344 C 14.527344 3.132812 14.679688 3.546875 14.761719 3.992188 C 14.945312 4.972656 14.8125 6.109375 14.695312 7.089844 Z M 14.695312 7.089844 " fill-opacity="1" fill-rule="nonzero"/><g clip-path="url(#34b3392c5a)"><path fill="#fed0bb" d="M 34.285156 29.777344 C 36.964844 29.777344 39.378906 30.273438 39.855469 30.378906 C 39.886719 30.382812 39.910156 30.390625 39.941406 30.394531 C 43.824219 31.0625 46.820312 30.488281 48.835938 28.691406 C 51.972656 25.898438 51.871094 20.953125 51.816406 19.988281 C 51.8125 19.890625 51.804688 19.8125 51.785156 19.722656 C 50.207031 11.652344 45.664062 6.128906 38.277344 3.3125 C 32.742188 1.203125 27.621094 1.480469 27.570312 1.488281 C 24.644531 1.691406 21.894531 2.148438 19.378906 2.847656 C 19.644531 2.992188 19.890625 3.136719 20.113281 3.285156 C 21.558594 4.21875 22.753906 5.507812 23.558594 6.953125 C 23.773438 7.34375 23.964844 7.746094 24.117188 8.15625 C 25.925781 8.238281 27.371094 9.734375 27.371094 11.5625 C 27.371094 12.957031 26.515625 14.203125 25.25 14.71875 L 26.039062 15.695312 C 26.042969 15.699219 26.042969 15.699219 26.046875 15.703125 C 26.300781 16.003906 26.523438 16.332031 26.722656 16.675781 Z M 38.890625 17.394531 C 36.933594 17.394531 35.359375 15.742188 35.488281 13.761719 C 35.601562 12.003906 37.078125 10.601562 38.839844 10.578125 C 40.742188 10.550781 42.300781 12.089844 42.300781 13.988281 C 42.300781 15.867188 40.769531 17.394531 38.890625 17.394531 Z M 38.890625 17.394531 " fill-opacity="1" fill-rule="nonzero"/></g><g clip-path="url(#707b29c8f3)"><path fill="#fed0bb" d="M 33.40625 30.6875 L 30.199219 25.128906 L 26.773438 27.105469 L 29.183594 31.277344 C 29.183594 31.277344 29.1875 31.28125 29.1875 31.285156 C 29.195312 31.300781 29.207031 31.316406 29.210938 31.332031 L 39.71875 49.527344 C 40.265625 50.46875 41.472656 50.792969 42.417969 50.25 C 43.359375 49.703125 43.6875 48.492188 43.140625 47.550781 Z M 33.40625 30.6875 " fill-opacity="1" fill-rule="nonzero"/></g><path fill="#fed0bb" d="M 22.300781 19.359375 L 25.726562 17.382812 L 29.589844 24.078125 L 26.164062 26.054688 Z M 22.300781 19.359375 " fill-opacity="1" fill-rule="nonzero"/><path fill="#fed0bb" d="M 25.964844 35.132812 C 26.0625 33.566406 26.695312 32.324219 27.859375 31.425781 L 25.414062 27.1875 L 25.398438 27.152344 L 20.945312 19.4375 C 20.921875 19.402344 20.90625 19.367188 20.894531 19.328125 L 19.519531 15.753906 C 18.523438 15.746094 17.5625 15.460938 16.691406 14.898438 C 14.691406 13.605469 13.359375 10.925781 13.378906 8.234375 C 13.378906 7.871094 13.429688 7.441406 13.488281 6.945312 C 13.558594 6.371094 13.636719 5.695312 13.636719 5.066406 C 2.140625 10.976562 1.011719 21.992188 0.96875 22.46875 C 0.96875 22.5 0.964844 22.527344 0.960938 22.558594 C 0.0195312 30.257812 1.390625 36.507812 5.027344 41.140625 C 10.082031 47.574219 18.105469 49.15625 21.316406 49.539062 C 23.929688 49.847656 26.769531 48.664062 28.078125 46.730469 C 28.695312 45.8125 29.222656 44.335938 28.214844 42.496094 C 26.605469 39.558594 25.847656 37.082031 25.964844 35.132812 Z M 9.675781 36.40625 C 7.664062 36.40625 6.054688 34.65625 6.289062 32.601562 C 6.464844 31.035156 7.726562 29.777344 9.289062 29.605469 C 11.34375 29.378906 13.085938 30.988281 13.085938 32.996094 C 13.085938 34.875 11.554688 36.40625 9.675781 36.40625 Z M 11.355469 22.234375 C 9.257812 22.402344 7.511719 20.65625 7.679688 18.558594 C 7.8125 16.90625 9.148438 15.566406 10.800781 15.4375 C 12.898438 15.269531 14.644531 17.015625 14.476562 19.113281 C 14.34375 20.765625 13.007812 22.101562 11.355469 22.234375 Z M 11.355469 22.234375 " fill-opacity="1" fill-rule="nonzero"/><path fill="#fed0bb" d="M 23.335938 14.292969 C 22.972656 14.65625 22.539062 14.957031 22.039062 15.183594 C 21.617188 15.378906 21.191406 15.523438 20.769531 15.617188 L 21.78125 18.25 L 25.027344 16.378906 Z M 23.335938 14.292969 " fill-opacity="1" fill-rule="nonzero"/></svg>