<svg xmlns="http://www.w3.org/2000/svg" xmlns:xlink="http://www.w3.org/1999/xlink" width="40" zoomAndPan="magnify" viewBox="0 0 30 30.000001" height="40" preserveAspectRatio="xMidYMid meet" version="1.0"><defs><clipPath id="ecbf8186f5"><path d="M 0.484375 0 L 29.515625 0 L 29.515625 29.03125 L 0.484375 29.03125 Z M 0.484375 0 " clip-rule="nonzero"/></clipPath></defs><g clip-path="url(#ecbf8186f5)"><path fill="#fff3ef" d="M 29.515625 24.617188 C 29.515625 27.054688 27.542969 29.03125 25.105469 29.03125 L 4.894531 29.03125 C 2.460938 29.03125 0.484375 27.054688 0.484375 24.617188 L 0.484375 4.410156 C 0.484375 1.972656 2.460938 0 4.894531 0 L 25.105469 0 C 27.542969 0 29.515625 1.972656 29.515625 4.410156 Z M 29.515625 24.617188 " fill-opacity="1" fill-rule="nonzero"/></g><path fill="#fe700f" d="M 11.964844 10.355469 C 11.964844 10.644531 11.910156 10.921875 11.800781 11.1875 C 11.6875 11.453125 11.53125 11.6875 11.328125 11.890625 C 11.125 12.09375 10.890625 12.25 10.625 12.359375 C 10.359375 12.46875 10.082031 12.523438 9.796875 12.523438 C 9.507812 12.523438 9.230469 12.46875 8.964844 12.359375 C 8.699219 12.25 8.464844 12.09375 8.261719 11.890625 C 8.058594 11.6875 7.902344 11.453125 7.792969 11.1875 C 7.683594 10.921875 7.628906 10.644531 7.628906 10.355469 C 7.628906 10.066406 7.683594 9.792969 7.792969 9.527344 C 7.902344 9.261719 8.058594 9.027344 8.261719 8.820312 C 8.464844 8.617188 8.699219 8.460938 8.964844 8.351562 C 9.230469 8.242188 9.507812 8.1875 9.796875 8.1875 C 10.082031 8.1875 10.359375 8.242188 10.625 8.351562 C 10.890625 8.460938 11.125 8.617188 11.328125 8.820312 C 11.53125 9.027344 11.6875 9.261719 11.800781 9.527344 C 11.910156 9.792969 11.964844 10.066406 11.964844 10.355469 Z M 11.964844 10.355469 " fill-opacity="1" fill-rule="nonzero"/><path fill="#fe700f" d="M 7.925781 14.125 L 11.652344 14.125 L 11.652344 26.109375 L 7.925781 26.109375 Z M 7.925781 14.125 " fill-opacity="1" fill-rule="nonzero"/><path fill="#fe700f" d="M 13.996094 14.125 L 17.542969 14.125 L 17.542969 26.109375 L 13.996094 26.109375 Z M 13.996094 14.125 " fill-opacity="1" fill-rule="nonzero"/><path fill="#fe700f" d="M 14.148438 20.503906 L 17.695312 20.503906 L 17.695312 26.109375 L 14.148438 26.109375 Z M 14.148438 20.503906 " fill-opacity="1" fill-rule="nonzero"/><path fill="#fe700f" d="M 17.695312 20.503906 C 17.695312 20.503906 17.640625 18.949219 18.050781 18.140625 C 18.050781 18.140625 18.460938 17.148438 19.746094 17.140625 C 19.746094 17.140625 21.257812 16.875 21.691406 18.375 C 21.691406 18.375 21.855469 19.207031 21.855469 19.558594 C 21.855469 19.910156 21.867188 26.109375 21.867188 26.109375 L 25.582031 26.109375 L 25.582031 19.242188 C 25.582031 19.242188 25.851562 15.367188 23.523438 14.304688 C 23.523438 14.304688 19.695312 12.585938 17.621094 15.742188 C 17.621094 15.742188 17.167969 16.050781 17.105469 15.179688 C 17.042969 14.304688 16.511719 16.519531 16.496094 16.566406 C 16.480469 16.613281 17.105469 20.988281 17.105469 20.988281 Z M 17.695312 20.503906 " fill-opacity="1" fill-rule="nonzero"/></svg>