<svg xmlns="http://www.w3.org/2000/svg" xmlns:xlink="http://www.w3.org/1999/xlink" width="60" zoomAndPan="magnify" viewBox="0 0 45 44.999999" height="60" preserveAspectRatio="xMidYMid meet" version="1.0"><defs><g/><clipPath id="2b36f1cb69"><path d="M 32 11.503906 L 33.460938 11.503906 L 33.460938 15 L 32 15 Z M 32 11.503906 " clip-rule="nonzero"/></clipPath><clipPath id="90c50598c7"><path d="M 30.460938 11.503906 L 33 11.503906 L 33 15.09375 L 30.460938 15.09375 Z M 30.460938 11.503906 " clip-rule="nonzero"/></clipPath><clipPath id="16292448c5"><path d="M 33 6.507812 L 34.953125 6.507812 L 34.953125 10 L 33 10 Z M 33 6.507812 " clip-rule="nonzero"/></clipPath><clipPath id="31f157ea4e"><path d="M 31.953125 6.507812 L 34.953125 6.507812 L 34.953125 10.097656 L 31.953125 10.097656 Z M 31.953125 6.507812 " clip-rule="nonzero"/></clipPath><clipPath id="bdcf63e846"><path d="M 4 20.359375 L 5.832031 20.359375 L 5.832031 23.949219 L 4 23.949219 Z M 4 20.359375 " clip-rule="nonzero"/></clipPath><clipPath id="351f623fb7"><path d="M 2.832031 20.359375 L 5.832031 20.359375 L 5.832031 23.949219 L 2.832031 23.949219 Z M 2.832031 20.359375 " clip-rule="nonzero"/></clipPath><clipPath id="619ef6d6d0"><path d="M 2 24.320312 L 2.496094 24.320312 L 2.496094 26.570312 L 2 26.570312 Z M 2 24.320312 " clip-rule="nonzero"/></clipPath><clipPath id="daf1285f9d"><path d="M 0.996094 24.320312 L 2.496094 24.320312 L 2.496094 26.570312 L 0.996094 26.570312 Z M 0.996094 24.320312 " clip-rule="nonzero"/></clipPath><clipPath id="69d73a25d5"><path d="M 42 34.496094 L 42.566406 34.496094 L 42.566406 36.746094 L 42 36.746094 Z M 42 34.496094 " clip-rule="nonzero"/></clipPath><clipPath id="1ee5f0e160"><path d="M 41.066406 34.496094 L 42.566406 34.496094 L 42.566406 36.746094 L 41.066406 36.746094 Z M 41.066406 34.496094 " clip-rule="nonzero"/></clipPath></defs><g fill="#461220" fill-opacity="1"><g transform="translate(2.027614, 28.652391)"><g><path d="M 28.359375 -23.578125 C 27.796875 -23.578125 27.316406 -23.378906 26.921875 -22.984375 C 26.523438 -22.585938 26.328125 -22.101562 26.328125 -21.53125 L 26.328125 -2.234375 C 26.328125 -1.671875 26.523438 -1.191406 26.921875 -0.796875 C 27.316406 -0.398438 27.796875 -0.203125 28.359375 -0.203125 L 28.359375 0 L 18.28125 0 L 18.28125 -0.203125 C 18.863281 -0.203125 19.351562 -0.398438 19.75 -0.796875 C 20.144531 -1.191406 20.34375 -1.671875 20.34375 -2.234375 L 20.34375 -21.84375 C 20.320312 -21.820312 20.316406 -21.816406 20.328125 -21.828125 C 20.335938 -21.835938 20.332031 -21.832031 20.3125 -21.8125 L 12.734375 0 L 5.234375 -21.703125 L 5.234375 -4.28125 C 5.234375 -3.550781 5.40625 -2.875 5.75 -2.25 C 6.101562 -1.632812 6.585938 -1.140625 7.203125 -0.765625 C 7.816406 -0.390625 8.484375 -0.203125 9.203125 -0.203125 L 9.203125 0 L 1.015625 0 L 1.015625 -0.203125 C 1.765625 -0.203125 2.4375 -0.390625 3.03125 -0.765625 C 3.632812 -1.140625 4.117188 -1.632812 4.484375 -2.25 C 4.847656 -2.875 5.03125 -3.550781 5.03125 -4.28125 L 5.03125 -21.53125 C 5.03125 -22.101562 4.832031 -22.585938 4.4375 -22.984375 C 4.039062 -23.378906 3.554688 -23.578125 2.984375 -23.578125 L 2.890625 -23.578125 L 2.890625 -23.78125 L 10.84375 -23.78125 L 15.828125 -9.4375 L 20.78125 -23.78125 L 28.359375 -23.78125 Z M 28.359375 -23.578125 "/></g></g></g><g fill="#461220" fill-opacity="1"><g transform="translate(23.846835, 42.789208)"><g><path d="M 8.078125 -23.78125 L 18.171875 -23.78125 L 18.171875 -23.578125 C 17.609375 -23.578125 17.128906 -23.378906 16.734375 -22.984375 C 16.335938 -22.585938 16.140625 -22.101562 16.140625 -21.53125 L 16.140625 -6.625 C 16.140625 -5.40625 15.796875 -4.296875 15.109375 -3.296875 C 14.429688 -2.296875 13.53125 -1.492188 12.40625 -0.890625 C 11.289062 -0.296875 10.039062 0 8.65625 0 C 7.28125 0 6.023438 -0.296875 4.890625 -0.890625 C 3.753906 -1.492188 2.851562 -2.296875 2.1875 -3.296875 C 1.519531 -4.296875 1.1875 -5.40625 1.1875 -6.625 C 1.1875 -7.625 1.539062 -8.476562 2.25 -9.1875 C 2.96875 -9.90625 3.828125 -10.265625 4.828125 -10.265625 C 5.816406 -10.265625 6.664062 -9.90625 7.375 -9.1875 C 8.09375 -8.476562 8.453125 -7.625 8.453125 -6.625 C 8.453125 -6.082031 8.347656 -5.625 8.140625 -5.25 C 7.941406 -4.875 7.707031 -4.523438 7.4375 -4.203125 C 7.164062 -3.890625 6.921875 -3.570312 6.703125 -3.25 C 6.492188 -2.9375 6.363281 -2.566406 6.3125 -2.140625 C 6.226562 -1.410156 6.457031 -0.90625 7 -0.625 C 7.539062 -0.34375 8.09375 -0.203125 8.65625 -0.203125 C 8.957031 -0.203125 9.332031 -0.226562 9.78125 -0.28125 C 10.238281 -0.34375 10.691406 -0.445312 11.140625 -0.59375 C 11.597656 -0.738281 11.984375 -0.941406 12.296875 -1.203125 C 12.609375 -1.460938 12.765625 -1.796875 12.765625 -2.203125 C 12.765625 -2.660156 12.628906 -3.066406 12.359375 -3.421875 C 12.085938 -3.785156 11.78125 -4.128906 11.4375 -4.453125 C 11.101562 -4.785156 10.800781 -5.128906 10.53125 -5.484375 C 10.257812 -5.835938 10.125 -6.21875 10.125 -6.625 L 10.125 -21.53125 C 10.125 -22.101562 9.925781 -22.585938 9.53125 -22.984375 C 9.132812 -23.378906 8.648438 -23.578125 8.078125 -23.578125 Z M 8.078125 -23.78125 "/></g></g></g><g clip-path="url(#2b36f1cb69)"><path fill="#461220" d="M 37.402344 10.921875 C 37 10.984375 36.609375 11.046875 36.21875 11.101562 C 35.625 11.1875 35.296875 11.542969 35.199219 12.121094 C 35.132812 12.527344 35.074219 12.941406 35.035156 13.355469 C 34.992188 13.84375 34.972656 14.332031 34.925781 14.828125 C 34.90625 14.625 34.882812 14.425781 34.863281 14.222656 C 34.804688 13.601562 34.746094 12.984375 34.6875 12.363281 C 34.679688 12.289062 34.65625 12.214844 34.644531 12.140625 C 34.546875 11.558594 34.203125 11.222656 33.625 11.121094 C 33.34375 11.074219 33.066406 11.035156 32.785156 10.988281 C 32.683594 10.972656 32.585938 10.953125 32.441406 10.925781 C 32.882812 10.871094 33.28125 10.824219 33.675781 10.773438 C 34.246094 10.695312 34.578125 10.359375 34.667969 9.804688 C 34.75 9.292969 34.800781 8.777344 34.859375 8.261719 C 34.894531 7.964844 34.910156 7.664062 34.9375 7.328125 C 34.988281 7.910156 35.03125 8.457031 35.09375 9 C 35.125 9.308594 35.1875 9.617188 35.25 9.921875 C 35.347656 10.402344 35.660156 10.675781 36.136719 10.753906 C 36.554688 10.820312 36.976562 10.867188 37.402344 10.921875 Z M 37.402344 10.921875 " fill-opacity="1" fill-rule="nonzero"/></g><g clip-path="url(#90c50598c7)"><path fill="#461220" d="M 30.472656 13.355469 C 30.65625 13.324219 30.839844 13.296875 31.027344 13.265625 C 31.285156 13.214844 31.449219 13.050781 31.496094 12.796875 C 31.554688 12.492188 31.585938 12.183594 31.625 11.875 C 31.640625 11.773438 31.640625 11.671875 31.679688 11.5625 C 31.699219 11.691406 31.714844 11.820312 31.730469 11.945312 C 31.769531 12.21875 31.800781 12.488281 31.847656 12.757812 C 31.898438 13.050781 32.074219 13.226562 32.371094 13.269531 C 32.542969 13.296875 32.714844 13.324219 32.886719 13.382812 C 32.828125 13.398438 32.769531 13.417969 32.710938 13.429688 C 32.652344 13.441406 32.597656 13.441406 32.539062 13.449219 C 32.035156 13.53125 31.859375 13.710938 31.792969 14.21875 C 31.769531 14.425781 31.75 14.632812 31.730469 14.839844 C 31.707031 15.046875 31.6875 15.25 31.652344 15.457031 C 31.625 15.132812 31.601562 14.804688 31.566406 14.480469 C 31.550781 14.320312 31.527344 14.160156 31.492188 14.007812 C 31.429688 13.730469 31.253906 13.5625 30.980469 13.5 C 30.808594 13.464844 30.636719 13.433594 30.464844 13.402344 C 30.464844 13.386719 30.46875 13.371094 30.472656 13.355469 Z M 30.472656 13.355469 " fill-opacity="1" fill-rule="nonzero"/></g><g clip-path="url(#16292448c5)"><path fill="#461220" d="M 38.898438 5.925781 C 38.496094 5.988281 38.105469 6.050781 37.714844 6.109375 C 37.121094 6.195312 36.789062 6.546875 36.695312 7.125 C 36.625 7.535156 36.570312 7.945312 36.53125 8.359375 C 36.484375 8.847656 36.46875 9.335938 36.417969 9.832031 C 36.398438 9.628906 36.378906 9.429688 36.359375 9.226562 C 36.300781 8.609375 36.242188 7.988281 36.179688 7.367188 C 36.171875 7.292969 36.152344 7.222656 36.136719 7.144531 C 36.042969 6.5625 35.695312 6.226562 35.117188 6.125 C 34.839844 6.078125 34.558594 6.039062 34.28125 5.992188 C 34.179688 5.976562 34.078125 5.957031 33.9375 5.933594 C 34.378906 5.875 34.773438 5.828125 35.167969 5.777344 C 35.738281 5.699219 36.070312 5.363281 36.160156 4.808594 C 36.242188 4.296875 36.296875 3.78125 36.355469 3.265625 C 36.386719 2.96875 36.402344 2.667969 36.429688 2.332031 C 36.484375 2.914062 36.523438 3.460938 36.585938 4.003906 C 36.621094 4.3125 36.679688 4.621094 36.742188 4.925781 C 36.839844 5.40625 37.152344 5.679688 37.628906 5.757812 C 38.046875 5.824219 38.46875 5.871094 38.898438 5.925781 Z M 38.898438 5.925781 " fill-opacity="1" fill-rule="nonzero"/></g><g clip-path="url(#31f157ea4e)"><path fill="#461220" d="M 31.964844 8.359375 C 32.148438 8.328125 32.335938 8.304688 32.519531 8.269531 C 32.78125 8.21875 32.941406 8.054688 32.992188 7.800781 C 33.046875 7.496094 33.082031 7.1875 33.121094 6.878906 C 33.132812 6.777344 33.132812 6.675781 33.175781 6.570312 C 33.191406 6.695312 33.207031 6.824219 33.226562 6.949219 C 33.261719 7.222656 33.296875 7.492188 33.34375 7.761719 C 33.390625 8.054688 33.566406 8.230469 33.867188 8.273438 C 34.039062 8.300781 34.207031 8.328125 34.382812 8.386719 C 34.320312 8.402344 34.261719 8.421875 34.203125 8.433594 C 34.148438 8.445312 34.089844 8.445312 34.035156 8.453125 C 33.53125 8.535156 33.355469 8.714844 33.289062 9.226562 C 33.261719 9.429688 33.246094 9.636719 33.222656 9.84375 C 33.203125 10.050781 33.183594 10.257812 33.144531 10.460938 C 33.117188 10.136719 33.09375 9.808594 33.0625 9.484375 C 33.042969 9.324219 33.019531 9.164062 32.984375 9.011719 C 32.921875 8.738281 32.75 8.566406 32.472656 8.503906 C 32.300781 8.46875 32.128906 8.4375 31.957031 8.40625 C 31.960938 8.390625 31.960938 8.375 31.964844 8.359375 Z M 31.964844 8.359375 " fill-opacity="1" fill-rule="nonzero"/></g><g clip-path="url(#bdcf63e846)"><path fill="#461220" d="M 9.777344 19.777344 C 9.375 19.839844 8.984375 19.902344 8.59375 19.957031 C 8 20.042969 7.667969 20.398438 7.574219 20.976562 C 7.503906 21.382812 7.445312 21.796875 7.410156 22.210938 C 7.363281 22.699219 7.347656 23.1875 7.296875 23.683594 C 7.277344 23.480469 7.257812 23.277344 7.238281 23.078125 C 7.179688 22.457031 7.121094 21.839844 7.058594 21.21875 C 7.050781 21.144531 7.03125 21.070312 7.015625 20.996094 C 6.921875 20.414062 6.574219 20.078125 5.996094 19.976562 C 5.71875 19.929688 5.4375 19.890625 5.160156 19.84375 C 5.058594 19.828125 4.957031 19.808594 4.8125 19.78125 C 5.257812 19.726562 5.652344 19.679688 6.046875 19.628906 C 6.617188 19.550781 6.949219 19.214844 7.039062 18.660156 C 7.121094 18.148438 7.175781 17.632812 7.234375 17.117188 C 7.265625 16.820312 7.28125 16.519531 7.308594 16.183594 C 7.363281 16.765625 7.402344 17.3125 7.464844 17.855469 C 7.5 18.164062 7.558594 18.46875 7.621094 18.773438 C 7.71875 19.257812 8.03125 19.53125 8.507812 19.605469 C 8.925781 19.675781 9.347656 19.71875 9.777344 19.777344 Z M 9.777344 19.777344 " fill-opacity="1" fill-rule="nonzero"/></g><g clip-path="url(#351f623fb7)"><path fill="#461220" d="M 2.84375 22.207031 C 3.027344 22.179688 3.214844 22.152344 3.398438 22.121094 C 3.660156 22.070312 3.820312 21.90625 3.871094 21.652344 C 3.925781 21.347656 3.960938 21.039062 4 20.730469 C 4.011719 20.628906 4.011719 20.527344 4.054688 20.417969 C 4.070312 20.546875 4.085938 20.675781 4.105469 20.800781 C 4.140625 21.070312 4.175781 21.34375 4.21875 21.613281 C 4.269531 21.90625 4.445312 22.082031 4.746094 22.125 C 4.914062 22.148438 5.085938 22.179688 5.261719 22.238281 C 5.199219 22.253906 5.140625 22.273438 5.082031 22.285156 C 5.027344 22.292969 4.96875 22.292969 4.914062 22.304688 C 4.40625 22.382812 4.234375 22.5625 4.167969 23.074219 C 4.140625 23.28125 4.125 23.488281 4.101562 23.695312 C 4.082031 23.902344 4.0625 24.105469 4.023438 24.3125 C 3.996094 23.988281 3.972656 23.660156 3.941406 23.335938 C 3.921875 23.175781 3.898438 23.015625 3.863281 22.859375 C 3.800781 22.585938 3.628906 22.414062 3.351562 22.355469 C 3.179688 22.320312 3.007812 22.289062 2.835938 22.257812 C 2.839844 22.242188 2.839844 22.226562 2.84375 22.207031 Z M 2.84375 22.207031 " fill-opacity="1" fill-rule="nonzero"/></g><g clip-path="url(#619ef6d6d0)"><path fill="#461220" d="M 5.261719 23.964844 C 5.015625 24.003906 4.777344 24.042969 4.535156 24.078125 C 4.171875 24.132812 3.96875 24.347656 3.910156 24.703125 C 3.867188 24.953125 3.832031 25.207031 3.808594 25.460938 C 3.78125 25.761719 3.769531 26.066406 3.738281 26.367188 C 3.726562 26.246094 3.714844 26.121094 3.703125 25.996094 C 3.667969 25.617188 3.628906 25.234375 3.59375 24.855469 C 3.589844 24.808594 3.574219 24.761719 3.566406 24.71875 C 3.507812 24.359375 3.296875 24.152344 2.9375 24.089844 C 2.769531 24.058594 2.59375 24.035156 2.421875 24.007812 C 2.363281 24 2.300781 23.984375 2.210938 23.96875 C 2.484375 23.9375 2.726562 23.90625 2.96875 23.875 C 3.320312 23.828125 3.523438 23.621094 3.582031 23.277344 C 3.632812 22.964844 3.664062 22.648438 3.699219 22.328125 C 3.71875 22.148438 3.730469 21.960938 3.746094 21.753906 C 3.78125 22.113281 3.804688 22.449219 3.84375 22.785156 C 3.863281 22.972656 3.902344 23.164062 3.9375 23.351562 C 4 23.648438 4.191406 23.816406 4.484375 23.863281 C 4.742188 23.902344 5 23.933594 5.261719 23.964844 Z M 5.261719 23.964844 " fill-opacity="1" fill-rule="nonzero"/></g><g clip-path="url(#daf1285f9d)"><path fill="#461220" d="M 1 25.460938 C 1.113281 25.445312 1.226562 25.429688 1.339844 25.40625 C 1.5 25.378906 1.601562 25.277344 1.632812 25.121094 C 1.667969 24.933594 1.6875 24.742188 1.710938 24.554688 C 1.71875 24.492188 1.71875 24.425781 1.746094 24.363281 C 1.753906 24.441406 1.765625 24.519531 1.773438 24.597656 C 1.796875 24.761719 1.820312 24.929688 1.847656 25.09375 C 1.878906 25.277344 1.984375 25.382812 2.167969 25.410156 C 2.273438 25.425781 2.378906 25.445312 2.488281 25.480469 C 2.449219 25.488281 2.414062 25.5 2.375 25.507812 C 2.34375 25.515625 2.308594 25.515625 2.273438 25.519531 C 1.960938 25.570312 1.855469 25.679688 1.8125 25.996094 C 1.796875 26.121094 1.785156 26.25 1.773438 26.375 C 1.761719 26.503906 1.75 26.628906 1.726562 26.757812 C 1.710938 26.554688 1.695312 26.355469 1.675781 26.15625 C 1.664062 26.058594 1.648438 25.960938 1.628906 25.863281 C 1.589844 25.695312 1.480469 25.589844 1.3125 25.554688 C 1.207031 25.53125 1.101562 25.511719 0.996094 25.492188 C 0.996094 25.480469 1 25.472656 1 25.460938 Z M 1 25.460938 " fill-opacity="1" fill-rule="nonzero"/></g><g clip-path="url(#69d73a25d5)"><path fill="#461220" d="M 45.335938 34.140625 C 45.089844 34.179688 44.847656 34.214844 44.605469 34.25 C 44.242188 34.304688 44.039062 34.523438 43.980469 34.875 C 43.9375 35.128906 43.902344 35.382812 43.878906 35.636719 C 43.851562 35.9375 43.839844 36.238281 43.8125 36.542969 C 43.796875 36.417969 43.785156 36.292969 43.773438 36.171875 C 43.738281 35.789062 43.703125 35.410156 43.664062 35.027344 C 43.660156 34.980469 43.644531 34.9375 43.636719 34.890625 C 43.578125 34.53125 43.367188 34.324219 43.011719 34.261719 C 42.839844 34.234375 42.667969 34.210938 42.496094 34.183594 C 42.433594 34.171875 42.371094 34.160156 42.285156 34.144531 C 42.554688 34.109375 42.800781 34.082031 43.042969 34.046875 C 43.394531 34 43.597656 33.792969 43.652344 33.453125 C 43.703125 33.136719 43.734375 32.820312 43.769531 32.503906 C 43.792969 32.320312 43.800781 32.136719 43.816406 31.929688 C 43.851562 32.289062 43.875 32.625 43.914062 32.957031 C 43.933594 33.148438 43.972656 33.335938 44.011719 33.523438 C 44.070312 33.820312 44.261719 33.988281 44.554688 34.035156 C 44.8125 34.078125 45.074219 34.105469 45.335938 34.140625 Z M 45.335938 34.140625 " fill-opacity="1" fill-rule="nonzero"/></g><g clip-path="url(#1ee5f0e160)"><path fill="#461220" d="M 41.070312 35.636719 C 41.183594 35.617188 41.300781 35.601562 41.414062 35.582031 C 41.574219 35.550781 41.671875 35.449219 41.703125 35.292969 C 41.738281 35.105469 41.757812 34.914062 41.78125 34.726562 C 41.789062 34.664062 41.789062 34.601562 41.816406 34.535156 C 41.824219 34.613281 41.835938 34.691406 41.847656 34.769531 C 41.871094 34.9375 41.890625 35.105469 41.917969 35.269531 C 41.949219 35.449219 42.054688 35.558594 42.242188 35.585938 C 42.347656 35.601562 42.449219 35.617188 42.558594 35.652344 C 42.519531 35.664062 42.484375 35.675781 42.449219 35.683594 C 42.414062 35.6875 42.378906 35.6875 42.34375 35.695312 C 42.035156 35.742188 41.925781 35.855469 41.886719 36.167969 C 41.871094 36.296875 41.859375 36.421875 41.84375 36.550781 C 41.832031 36.675781 41.820312 36.804688 41.796875 36.929688 C 41.78125 36.730469 41.765625 36.527344 41.746094 36.328125 C 41.734375 36.230469 41.722656 36.132812 41.699219 36.039062 C 41.660156 35.867188 41.554688 35.761719 41.382812 35.726562 C 41.277344 35.703125 41.171875 35.6875 41.066406 35.664062 C 41.066406 35.65625 41.070312 35.644531 41.070312 35.636719 Z M 41.070312 35.636719 " fill-opacity="1" fill-rule="nonzero"/></g></svg>