<svg xmlns="http://www.w3.org/2000/svg" xmlns:xlink="http://www.w3.org/1999/xlink" width="300" zoomAndPan="magnify" viewBox="0 0 224.87999 225" height="300" preserveAspectRatio="xMidYMid meet" version="1.0"><defs><g/><clipPath id="ae287f9644"><path d="M 167 61.300781 L 172.640625 61.300781 L 172.640625 76 L 167 76 Z M 167 61.300781 " clip-rule="nonzero"/></clipPath><clipPath id="0d1fe73ba5"><path d="M 159.101562 61.300781 L 170 61.300781 L 170 78.242188 L 159.101562 78.242188 Z M 159.101562 61.300781 " clip-rule="nonzero"/></clipPath><clipPath id="aaceb3cd5e"><path d="M 174 39.425781 L 179.183594 39.425781 L 179.183594 54 L 174 54 Z M 174 39.425781 " clip-rule="nonzero"/></clipPath><clipPath id="97aaf0e84a"><path d="M 165.644531 39.425781 L 177 39.425781 L 177 56.367188 L 165.644531 56.367188 Z M 165.644531 39.425781 " clip-rule="nonzero"/></clipPath><clipPath id="a9189da39c"><path d="M 46 100.078125 L 51.664062 100.078125 L 51.664062 115 L 46 115 Z M 46 100.078125 " clip-rule="nonzero"/></clipPath><clipPath id="878c12c938"><path d="M 38.121094 100.078125 L 49 100.078125 L 49 117.019531 L 38.121094 117.019531 Z M 38.121094 100.078125 " clip-rule="nonzero"/></clipPath><clipPath id="2face63803"><path d="M 35 117.433594 L 38.691406 117.433594 L 38.691406 127 L 35 127 Z M 35 117.433594 " clip-rule="nonzero"/></clipPath><clipPath id="fbede1d7e5"><path d="M 30.070312 117.433594 L 37 117.433594 L 37 128.511719 L 30.070312 128.511719 Z M 30.070312 117.433594 " clip-rule="nonzero"/></clipPath><clipPath id="8afa240af3"><path d="M 210 161.984375 L 214.160156 161.984375 L 214.160156 171 L 210 171 Z M 210 161.984375 " clip-rule="nonzero"/></clipPath><clipPath id="f8650ec8a7"><path d="M 205.542969 162 L 213 162 L 213 173 L 205.542969 173 Z M 205.542969 162 " clip-rule="nonzero"/></clipPath></defs><g fill="#f9e5df" fill-opacity="1"><g transform="translate(34.591926, 136.395699)"><g><path d="M 124.21875 -103.25 C 121.738281 -103.25 119.628906 -102.378906 117.890625 -100.640625 C 116.160156 -98.898438 115.296875 -96.789062 115.296875 -94.3125 L 115.296875 -9.8125 C 115.296875 -7.332031 116.160156 -5.222656 117.890625 -3.484375 C 119.628906 -1.753906 121.738281 -0.890625 124.21875 -0.890625 L 124.21875 0 L 80.03125 0 L 80.03125 -0.890625 C 82.613281 -0.890625 84.769531 -1.753906 86.5 -3.484375 C 88.238281 -5.222656 89.109375 -7.332031 89.109375 -9.8125 L 89.109375 -95.65625 C 89.015625 -95.550781 88.988281 -95.523438 89.03125 -95.578125 C 89.082031 -95.628906 89.0625 -95.601562 88.96875 -95.5 L 55.78125 0 L 22.90625 -95.0625 L 22.90625 -18.75 C 22.90625 -15.570312 23.671875 -12.617188 25.203125 -9.890625 C 26.742188 -7.160156 28.851562 -4.976562 31.53125 -3.34375 C 34.21875 -1.707031 37.144531 -0.890625 40.3125 -0.890625 L 40.3125 0 L 4.46875 0 L 4.46875 -0.890625 C 7.738281 -0.890625 10.6875 -1.707031 13.3125 -3.34375 C 15.9375 -4.976562 18.039062 -7.160156 19.625 -9.890625 C 21.21875 -12.617188 22.015625 -15.570312 22.015625 -18.75 L 22.015625 -94.3125 C 22.015625 -96.789062 21.144531 -98.898438 19.40625 -100.640625 C 17.675781 -102.378906 15.570312 -103.25 13.09375 -103.25 L 12.640625 -103.25 L 12.640625 -104.140625 L 47.453125 -104.140625 L 69.328125 -41.359375 L 91.046875 -104.140625 L 124.21875 -104.140625 Z M 124.21875 -103.25 "/></g></g></g><g fill="#f9e5df" fill-opacity="1"><g transform="translate(130.154882, 197.380818)"><g><path d="M 35.40625 -104.140625 L 79.59375 -104.140625 L 79.59375 -103.25 C 77.113281 -103.25 75.003906 -102.378906 73.265625 -100.640625 C 71.523438 -98.898438 70.65625 -96.789062 70.65625 -94.3125 L 70.65625 -29.015625 C 70.65625 -23.648438 69.164062 -18.785156 66.1875 -14.421875 C 63.21875 -10.066406 59.28125 -6.570312 54.375 -3.9375 C 49.46875 -1.3125 43.988281 0 37.9375 0 C 31.882812 0 26.378906 -1.3125 21.421875 -3.9375 C 16.460938 -6.570312 12.519531 -10.066406 9.59375 -14.421875 C 6.664062 -18.785156 5.203125 -23.648438 5.203125 -29.015625 C 5.203125 -33.378906 6.765625 -37.117188 9.890625 -40.234375 C 13.015625 -43.359375 16.757812 -44.921875 21.125 -44.921875 C 25.488281 -44.921875 29.234375 -43.359375 32.359375 -40.234375 C 35.484375 -37.117188 37.046875 -33.378906 37.046875 -29.015625 C 37.046875 -26.628906 36.597656 -24.617188 35.703125 -22.984375 C 34.804688 -21.347656 33.765625 -19.832031 32.578125 -18.4375 C 31.390625 -17.050781 30.320312 -15.664062 29.375 -14.28125 C 28.4375 -12.894531 27.867188 -11.257812 27.671875 -9.375 C 27.273438 -6.195312 28.265625 -3.988281 30.640625 -2.75 C 33.023438 -1.507812 35.457031 -0.890625 37.9375 -0.890625 C 39.226562 -0.890625 40.863281 -1.015625 42.84375 -1.265625 C 44.820312 -1.515625 46.800781 -1.960938 48.78125 -2.609375 C 50.769531 -3.253906 52.457031 -4.144531 53.84375 -5.28125 C 55.238281 -6.414062 55.9375 -7.878906 55.9375 -9.671875 C 55.9375 -11.648438 55.335938 -13.429688 54.140625 -15.015625 C 52.953125 -16.609375 51.613281 -18.125 50.125 -19.5625 C 48.644531 -21 47.304688 -22.484375 46.109375 -24.015625 C 44.921875 -25.554688 44.328125 -27.222656 44.328125 -29.015625 L 44.328125 -94.3125 C 44.328125 -96.789062 43.457031 -98.898438 41.71875 -100.640625 C 39.988281 -102.378906 37.882812 -103.25 35.40625 -103.25 Z M 35.40625 -104.140625 "/></g></g></g><g clip-path="url(#ae287f9644)"><path fill="#f9e5df" d="M 189.5 58.769531 C 187.742188 59.039062 186.03125 59.3125 184.316406 59.5625 C 181.71875 59.941406 180.269531 61.488281 179.847656 64.015625 C 179.550781 65.808594 179.300781 67.613281 179.132812 69.421875 C 178.9375 71.5625 178.855469 73.714844 178.644531 75.875 C 178.558594 74.992188 178.46875 74.113281 178.382812 73.230469 C 178.125 70.515625 177.867188 67.800781 177.601562 65.089844 C 177.570312 64.761719 177.46875 64.441406 177.417969 64.113281 C 176.996094 61.554688 175.480469 60.082031 172.945312 59.640625 C 171.726562 59.429688 170.496094 59.257812 169.273438 59.0625 C 168.832031 58.992188 168.394531 58.90625 167.765625 58.792969 C 169.703125 58.550781 171.4375 58.34375 173.167969 58.113281 C 175.667969 57.78125 177.121094 56.308594 177.511719 53.867188 C 177.871094 51.628906 178.109375 49.367188 178.359375 47.113281 C 178.507812 45.808594 178.578125 44.496094 178.695312 43.023438 C 178.929688 45.582031 179.109375 47.972656 179.378906 50.351562 C 179.53125 51.703125 179.792969 53.046875 180.0625 54.378906 C 180.492188 56.496094 181.863281 57.6875 183.949219 58.023438 C 185.78125 58.324219 187.632812 58.523438 189.5 58.769531 Z M 189.5 58.769531 " fill-opacity="1" fill-rule="nonzero"/></g><g clip-path="url(#0d1fe73ba5)"><path fill="#f9e5df" d="M 159.132812 69.421875 C 159.945312 69.292969 160.757812 69.179688 161.5625 69.03125 C 162.707031 68.816406 163.417969 68.09375 163.625 66.984375 C 163.878906 65.648438 164.019531 64.292969 164.195312 62.945312 C 164.25 62.5 164.253906 62.050781 164.433594 61.582031 C 164.507812 62.140625 164.574219 62.699219 164.652344 63.257812 C 164.816406 64.441406 164.964844 65.628906 165.164062 66.808594 C 165.382812 68.09375 166.148438 68.863281 167.460938 69.054688 C 168.210938 69.167969 168.957031 69.289062 169.71875 69.550781 C 169.460938 69.621094 169.203125 69.703125 168.9375 69.753906 C 168.695312 69.800781 168.445312 69.796875 168.199219 69.839844 C 165.988281 70.191406 165.21875 70.980469 164.929688 73.21875 C 164.816406 74.121094 164.738281 75.027344 164.648438 75.929688 C 164.554688 76.832031 164.46875 77.738281 164.308594 78.640625 C 164.183594 77.210938 164.078125 75.78125 163.933594 74.355469 C 163.863281 73.660156 163.757812 72.960938 163.601562 72.28125 C 163.328125 71.078125 162.566406 70.328125 161.359375 70.070312 C 160.609375 69.90625 159.851562 69.777344 159.097656 69.636719 C 159.109375 69.566406 159.121094 69.492188 159.132812 69.421875 Z M 159.132812 69.421875 " fill-opacity="1" fill-rule="nonzero"/></g><g fill="#f9e5df" fill-opacity="1"><g transform="translate(35.673023, 65.709205)"><g><path d="M -9.015625 0.8125 C -9.535156 -0.101562 -9.765625 -1.070312 -9.703125 -2.09375 L -8.34375 -2.203125 C -8.382812 -1.222656 -8.21875 -0.398438 -7.84375 0.265625 C -7.632812 0.617188 -7.40625 0.859375 -7.15625 0.984375 C -6.914062 1.117188 -6.675781 1.117188 -6.4375 0.984375 C -6.195312 0.859375 -6.046875 0.648438 -5.984375 0.359375 C -5.921875 0.078125 -5.929688 -0.222656 -6.015625 -0.546875 C -6.109375 -0.878906 -6.1875 -1.242188 -6.25 -1.640625 C -6.320312 -2.035156 -6.375 -2.410156 -6.40625 -2.765625 C -6.4375 -3.128906 -6.363281 -3.484375 -6.1875 -3.828125 C -6.019531 -4.179688 -5.738281 -4.472656 -5.34375 -4.703125 C -4.71875 -5.054688 -4.070312 -5.085938 -3.40625 -4.796875 C -2.75 -4.503906 -2.195312 -3.960938 -1.75 -3.171875 C -1.445312 -2.628906 -1.25 -2.046875 -1.15625 -1.421875 C -1.070312 -0.804688 -1.097656 -0.210938 -1.234375 0.359375 L -2.578125 0.421875 C -2.441406 -0.117188 -2.40625 -0.65625 -2.46875 -1.1875 C -2.539062 -1.71875 -2.6875 -2.175781 -2.90625 -2.5625 C -3.144531 -2.976562 -3.40625 -3.257812 -3.6875 -3.40625 C -3.96875 -3.5625 -4.238281 -3.5625 -4.5 -3.40625 C -4.75 -3.269531 -4.90625 -3.0625 -4.96875 -2.78125 C -5.03125 -2.5 -5.019531 -2.191406 -4.9375 -1.859375 C -4.851562 -1.523438 -4.769531 -1.160156 -4.6875 -0.765625 C -4.613281 -0.378906 -4.554688 -0.0078125 -4.515625 0.34375 C -4.484375 0.707031 -4.550781 1.0625 -4.71875 1.40625 C -4.894531 1.757812 -5.175781 2.050781 -5.5625 2.28125 C -6.15625 2.613281 -6.769531 2.644531 -7.40625 2.375 C -8.039062 2.101562 -8.578125 1.582031 -9.015625 0.8125 Z M -9.015625 0.8125 "/></g></g></g><g fill="#f9e5df" fill-opacity="1"><g transform="translate(30.851307, 56.462774)"><g><path d="M -7.1875 -0.5625 C -8.09375 -1.269531 -8.632812 -2.226562 -8.8125 -3.4375 C -9 -4.644531 -8.765625 -5.71875 -8.109375 -6.65625 C -7.453125 -7.601562 -6.546875 -8.164062 -5.390625 -8.34375 C -4.234375 -8.519531 -3.195312 -8.253906 -2.28125 -7.546875 C -1.375 -6.847656 -0.828125 -5.894531 -0.640625 -4.6875 C -0.460938 -3.476562 -0.703125 -2.398438 -1.359375 -1.453125 C -2.023438 -0.515625 -2.9375 0.0390625 -4.09375 0.21875 C -5.25 0.394531 -6.28125 0.132812 -7.1875 -0.5625 Z M -7.609375 -3.640625 C -7.484375 -2.835938 -7.097656 -2.191406 -6.453125 -1.703125 C -5.816406 -1.222656 -5.097656 -1.039062 -4.296875 -1.15625 C -3.503906 -1.28125 -2.867188 -1.671875 -2.390625 -2.328125 C -1.921875 -2.984375 -1.742188 -3.707031 -1.859375 -4.5 C -1.984375 -5.300781 -2.367188 -5.9375 -3.015625 -6.40625 C -3.660156 -6.875 -4.378906 -7.046875 -5.171875 -6.921875 C -5.972656 -6.804688 -6.609375 -6.425781 -7.078125 -5.78125 C -7.546875 -5.144531 -7.722656 -4.429688 -7.609375 -3.640625 Z M -7.609375 -3.640625 "/></g></g></g><g fill="#f9e5df" fill-opacity="1"><g transform="translate(29.762635, 43.917771)"><g><path d="M -5.421875 -7.84375 L -6.28125 -3.84375 L -3.984375 -3.359375 L -3.21875 -6.96875 L -2 -6.703125 L -2.765625 -3.09375 L 0.5 -2.40625 L 0.21875 -1.0625 L -7.78125 -2.75 L -6.640625 -8.109375 Z M -5.421875 -7.84375 "/></g></g></g><g fill="#f9e5df" fill-opacity="1"><g transform="translate(32.340642, 34.251725)"><g><path d="M -2.625 -9.25 L -3.9375 -7.015625 L 2.046875 -3.515625 L 1.359375 -2.328125 L -4.625 -5.828125 L -5.921875 -3.59375 L -7 -4.21875 L -3.703125 -9.875 Z M -2.625 -9.25 "/></g></g></g><g fill="#f9e5df" fill-opacity="1"><g transform="translate(37.412451, 25.752327)"><g><path d="M 7.578125 -5.703125 L 6.4375 -4.84375 L 1.0625 -8.78125 L 3.328125 -2.5 L 2.203125 -1.65625 L -4.875 -6.546875 L -3.6875 -7.4375 L 1.875 -3.328125 L -0.53125 -9.796875 L 0.546875 -10.640625 L 6.125 -6.515625 L 3.703125 -13.015625 L 4.84375 -13.859375 Z M 7.578125 -5.703125 "/></g></g></g><g fill="#f9e5df" fill-opacity="1"><g transform="translate(49.978488, 17.544779)"><g><path d="M 5.78125 -3.1875 L 1.78125 -2.28125 L 1.421875 -0.3125 L 0.015625 0 L 1.734375 -8.765625 L 3.109375 -9.078125 L 8.40625 -1.890625 L 6.953125 -1.5625 Z M 5.015625 -4.265625 L 2.703125 -7.484375 L 2.015625 -3.59375 Z M 5.015625 -4.265625 "/></g></g></g><g fill="#f9e5df" fill-opacity="1"><g transform="translate(61.548785, 15.558539)"><g><path d="M 6.171875 0.9375 L 5.09375 -1.71875 C 5.007812 -1.726562 4.882812 -1.75 4.71875 -1.78125 L 2.796875 -2.0625 L 2.421875 0.375 L 1.0625 0.15625 L 2.296875 -7.921875 L 5.578125 -7.421875 C 6.609375 -7.265625 7.367188 -6.898438 7.859375 -6.328125 C 8.359375 -5.765625 8.539062 -5.039062 8.40625 -4.15625 C 8.300781 -3.519531 8.066406 -3 7.703125 -2.59375 C 7.347656 -2.195312 6.890625 -1.929688 6.328125 -1.796875 L 7.71875 1.171875 Z M 2.984375 -3.28125 L 4.90625 -3 C 6.207031 -2.800781 6.9375 -3.242188 7.09375 -4.328125 C 7.257812 -5.378906 6.691406 -6.003906 5.390625 -6.203125 L 3.46875 -6.484375 Z M 2.984375 -3.28125 "/></g></g></g><g fill="#f9e5df" fill-opacity="1"><g transform="translate(72.905087, 17.933005)"><g><path d="M 9.40625 -2.703125 L 5.515625 -4.875 L 4.453125 -2.953125 L 7.9375 -1 L 7.328125 0.09375 L 3.84375 -1.859375 L 2.734375 0.109375 L 6.75 2.359375 L 6.15625 3.4375 L 0.9375 0.53125 L 4.921875 -6.609375 L 10.015625 -3.78125 Z M 9.40625 -2.703125 "/></g></g></g><g fill="#f9e5df" fill-opacity="1"><g transform="translate(127.400421, 186.018695)"><g><path d="M 7.78125 -2.703125 L 9.28125 0.28125 C 9.832031 1.363281 9.941406 2.4375 9.609375 3.5 C 9.285156 4.570312 8.59375 5.375 7.53125 5.90625 C 6.476562 6.4375 5.425781 6.515625 4.375 6.140625 C 3.332031 5.765625 2.53125 5.023438 1.96875 3.921875 L 0.484375 0.96875 Z M 7.296875 -0.921875 L 2.203125 1.640625 L 3.109375 3.4375 C 3.472656 4.144531 4.015625 4.617188 4.734375 4.859375 C 5.453125 5.097656 6.175781 5.03125 6.90625 4.65625 C 7.644531 4.289062 8.128906 3.738281 8.359375 3 C 8.597656 2.269531 8.539062 1.546875 8.1875 0.828125 Z M 7.296875 -0.921875 "/></g></g></g><g fill="#f9e5df" fill-opacity="1"><g transform="translate(134.722846, 198.613574)"><g><path d="M 9.78125 0.3125 L 6.734375 -2.9375 L 5.125 -1.4375 L 7.859375 1.46875 L 6.953125 2.328125 L 4.21875 -0.578125 L 2.578125 0.953125 L 5.71875 4.296875 L 4.8125 5.140625 L 0.734375 0.78125 L 6.703125 -4.796875 L 10.6875 -0.53125 Z M 9.78125 0.3125 "/></g></g></g><g fill="#f9e5df" fill-opacity="1"><g transform="translate(144.227004, 207.69558)"><g><path d="M 4.046875 2.4375 L 2.828125 1.703125 L 4.25 -6.984375 L 5.515625 -6.21875 L 4.25 0.765625 L 9.859375 -3.609375 L 11.078125 -2.859375 Z M 4.046875 2.4375 "/></g></g></g><g fill="#f9e5df" fill-opacity="1"><g transform="translate(156.207102, 213.999499)"><g><path d="M 8.484375 -4.875 L 4.1875 -6.046875 L 3.609375 -3.921875 L 7.453125 -2.859375 L 7.125 -1.65625 L 3.28125 -2.71875 L 2.6875 -0.546875 L 7.125 0.671875 L 6.796875 1.859375 L 1.046875 0.28125 L 3.203125 -7.609375 L 8.8125 -6.078125 Z M 8.484375 -4.875 "/></g></g></g><g fill="#f9e5df" fill-opacity="1"><g transform="translate(168.985785, 216.679089)"><g><path d="M 2.46875 -1.21875 L 6 -1.1875 L 5.984375 0.0625 L 1.078125 0.015625 L 1.171875 -8.15625 L 2.546875 -8.140625 Z M 2.46875 -1.21875 "/></g></g></g><g fill="#f9e5df" fill-opacity="1"><g transform="translate(180.717624, 216.273293)"><g><path d="M -0.25 -7.203125 C 0.351562 -8.179688 1.242188 -8.832031 2.421875 -9.15625 C 3.597656 -9.476562 4.691406 -9.363281 5.703125 -8.8125 C 6.710938 -8.269531 7.367188 -7.4375 7.671875 -6.3125 C 7.984375 -5.1875 7.835938 -4.128906 7.234375 -3.140625 C 6.640625 -2.148438 5.753906 -1.492188 4.578125 -1.171875 C 3.398438 -0.847656 2.300781 -0.960938 1.28125 -1.515625 C 0.269531 -2.078125 -0.382812 -2.921875 -0.6875 -4.046875 C -1 -5.171875 -0.851562 -6.222656 -0.25 -7.203125 Z M 2.734375 -7.953125 C 1.960938 -7.742188 1.367188 -7.296875 0.953125 -6.609375 C 0.546875 -5.921875 0.445312 -5.1875 0.65625 -4.40625 C 0.875 -3.632812 1.332031 -3.046875 2.03125 -2.640625 C 2.738281 -2.242188 3.476562 -2.148438 4.25 -2.359375 C 5.03125 -2.566406 5.617188 -3.019531 6.015625 -3.71875 C 6.421875 -4.425781 6.515625 -5.164062 6.296875 -5.9375 C 6.085938 -6.71875 5.632812 -7.300781 4.9375 -7.6875 C 4.25 -8.070312 3.515625 -8.160156 2.734375 -7.953125 Z M 2.734375 -7.953125 "/></g></g></g><g fill="#f9e5df" fill-opacity="1"><g transform="translate(194.923667, 211.457107)"><g><path d="M -3.40625 -7.515625 L -0.65625 -9.234375 C 0.21875 -9.773438 1.019531 -9.988281 1.75 -9.875 C 2.488281 -9.757812 3.097656 -9.320312 3.578125 -8.5625 C 4.066406 -7.769531 4.203125 -7.007812 3.984375 -6.28125 C 3.773438 -5.5625 3.234375 -4.929688 2.359375 -4.390625 L 0.765625 -3.390625 L 2.078125 -1.296875 L 0.921875 -0.578125 Z M -1.59375 -7.1875 L 0.109375 -4.4375 L 1.65625 -5.40625 C 2.769531 -6.101562 3.039062 -6.914062 2.46875 -7.84375 C 1.90625 -8.75 1.066406 -8.851562 -0.046875 -8.15625 Z M -1.59375 -7.1875 "/></g></g></g><g fill="#f9e5df" fill-opacity="1"><g transform="translate(205.808319, 203.759403)"><g><path d="M -0.46875 -9.78125 L -3.46875 -6.484375 L -1.84375 -5 L 0.828125 -7.953125 L 1.75 -7.109375 L -0.921875 -4.15625 L 0.75 -2.640625 L 3.84375 -6.03125 L 4.75 -5.203125 L 0.71875 -0.796875 L -5.328125 -6.296875 L -1.390625 -10.609375 Z M -0.46875 -9.78125 "/></g></g></g><g fill="#f9e5df" fill-opacity="1"><g transform="translate(214.133357, 193.562531)"><g><path d="M 2.765625 -5.609375 L -0.109375 -5.359375 C -0.140625 -5.285156 -0.195312 -5.175781 -0.28125 -5.03125 L -1.125 -3.296875 L 1.09375 -2.203125 L 0.484375 -0.96875 L -6.84375 -4.59375 L -5.390625 -7.5625 C -4.921875 -8.5 -4.34375 -9.113281 -3.65625 -9.40625 C -2.96875 -9.707031 -2.21875 -9.660156 -1.40625 -9.265625 C -0.832031 -8.984375 -0.40625 -8.609375 -0.125 -8.140625 C 0.144531 -7.671875 0.253906 -7.144531 0.203125 -6.5625 L 3.453125 -7 Z M -2.21875 -3.84375 L -1.375 -5.578125 C -0.78125 -6.765625 -0.976562 -7.597656 -1.96875 -8.078125 C -2.914062 -8.554688 -3.6875 -8.203125 -4.28125 -7.015625 L -5.125 -5.28125 Z M -2.21875 -3.84375 "/></g></g></g><g clip-path="url(#aaceb3cd5e)"><path fill="#f9e5df" d="M 196.042969 36.894531 C 194.285156 37.164062 192.574219 37.4375 190.859375 37.6875 C 188.257812 38.066406 186.8125 39.613281 186.390625 42.140625 C 186.09375 43.933594 185.84375 45.738281 185.675781 47.546875 C 185.480469 49.6875 185.398438 51.839844 185.1875 54 C 185.101562 53.117188 185.011719 52.234375 184.925781 51.355469 C 184.664062 48.640625 184.410156 45.925781 184.144531 43.210938 C 184.113281 42.886719 184.011719 42.566406 183.957031 42.238281 C 183.535156 39.679688 182.023438 38.207031 179.488281 37.765625 C 178.265625 37.554688 177.039062 37.382812 175.816406 37.1875 C 175.375 37.117188 174.9375 37.03125 174.308594 36.917969 C 176.246094 36.675781 177.980469 36.46875 179.710938 36.238281 C 182.210938 35.90625 183.664062 34.433594 184.054688 31.992188 C 184.414062 29.753906 184.648438 27.492188 184.902344 25.238281 C 185.050781 23.933594 185.121094 22.621094 185.238281 21.148438 C 185.472656 23.707031 185.652344 26.09375 185.921875 28.476562 C 186.074219 29.828125 186.332031 31.171875 186.605469 32.503906 C 187.035156 34.621094 188.40625 35.8125 190.488281 36.148438 C 192.324219 36.449219 194.171875 36.644531 196.042969 36.894531 Z M 196.042969 36.894531 " fill-opacity="1" fill-rule="nonzero"/></g><g clip-path="url(#97aaf0e84a)"><path fill="#f9e5df" d="M 165.675781 47.546875 C 166.488281 47.417969 167.300781 47.304688 168.105469 47.15625 C 169.25 46.941406 169.960938 46.21875 170.167969 45.109375 C 170.421875 43.773438 170.5625 42.417969 170.734375 41.070312 C 170.792969 40.625 170.796875 40.171875 170.976562 39.707031 C 171.050781 40.265625 171.117188 40.824219 171.195312 41.382812 C 171.359375 42.566406 171.507812 43.753906 171.707031 44.933594 C 171.925781 46.21875 172.691406 46.988281 174.003906 47.179688 C 174.753906 47.289062 175.5 47.414062 176.261719 47.675781 C 176.003906 47.742188 175.746094 47.828125 175.480469 47.878906 C 175.238281 47.925781 174.984375 47.921875 174.742188 47.960938 C 172.527344 48.316406 171.761719 49.105469 171.472656 51.34375 C 171.359375 52.246094 171.28125 53.152344 171.191406 54.054688 C 171.097656 54.957031 171.011719 55.859375 170.847656 56.765625 C 170.726562 55.335938 170.621094 53.90625 170.476562 52.480469 C 170.40625 51.785156 170.300781 51.085938 170.144531 50.40625 C 169.871094 49.203125 169.109375 48.453125 167.902344 48.191406 C 167.152344 48.03125 166.394531 47.902344 165.640625 47.761719 C 165.652344 47.6875 165.664062 47.617188 165.675781 47.546875 Z M 165.675781 47.546875 " fill-opacity="1" fill-rule="nonzero"/></g><g clip-path="url(#a9189da39c)"><path fill="#f9e5df" d="M 68.523438 97.546875 C 66.765625 97.816406 65.050781 98.089844 63.335938 98.339844 C 60.738281 98.71875 59.289062 100.265625 58.871094 102.792969 C 58.574219 104.585938 58.320312 106.390625 58.15625 108.199219 C 57.960938 110.339844 57.878906 112.492188 57.667969 114.652344 C 57.578125 113.769531 57.488281 112.886719 57.40625 112.007812 C 57.144531 109.292969 56.890625 106.578125 56.621094 103.863281 C 56.589844 103.535156 56.492188 103.214844 56.4375 102.890625 C 56.015625 100.332031 54.503906 98.855469 51.96875 98.417969 C 50.746094 98.207031 49.519531 98.035156 48.292969 97.839844 C 47.855469 97.769531 47.417969 97.683594 46.789062 97.570312 C 48.726562 97.328125 50.460938 97.121094 52.1875 96.890625 C 54.6875 96.558594 56.140625 95.085938 56.535156 92.644531 C 56.894531 90.40625 57.128906 88.144531 57.382812 85.886719 C 57.527344 84.585938 57.597656 83.273438 57.71875 81.800781 C 57.949219 84.359375 58.132812 86.746094 58.398438 89.128906 C 58.550781 90.480469 58.8125 91.820312 59.085938 93.15625 C 59.515625 95.273438 60.886719 96.460938 62.96875 96.800781 C 64.800781 97.097656 66.652344 97.296875 68.523438 97.546875 Z M 68.523438 97.546875 " fill-opacity="1" fill-rule="nonzero"/></g><g clip-path="url(#878c12c938)"><path fill="#f9e5df" d="M 38.15625 108.199219 C 38.964844 108.070312 39.777344 107.957031 40.585938 107.808594 C 41.726562 107.59375 42.441406 106.871094 42.648438 105.761719 C 42.898438 104.425781 43.042969 103.070312 43.214844 101.722656 C 43.273438 101.277344 43.273438 100.824219 43.457031 100.359375 C 43.527344 100.917969 43.59375 101.476562 43.671875 102.035156 C 43.839844 103.21875 43.984375 104.40625 44.1875 105.585938 C 44.40625 106.871094 45.167969 107.640625 46.484375 107.832031 C 47.230469 107.941406 47.980469 108.0625 48.742188 108.328125 C 48.480469 108.394531 48.222656 108.480469 47.960938 108.53125 C 47.714844 108.574219 47.464844 108.574219 47.222656 108.613281 C 45.007812 108.96875 44.238281 109.757812 43.953125 111.996094 C 43.835938 112.898438 43.761719 113.804688 43.667969 114.707031 C 43.578125 115.609375 43.488281 116.511719 43.328125 117.417969 C 43.207031 115.988281 43.101562 114.558594 42.957031 113.132812 C 42.882812 112.433594 42.78125 111.738281 42.625 111.054688 C 42.351562 109.855469 41.589844 109.105469 40.378906 108.84375 C 39.628906 108.683594 38.875 108.554688 38.121094 108.410156 C 38.132812 108.339844 38.144531 108.269531 38.15625 108.199219 Z M 38.15625 108.199219 " fill-opacity="1" fill-rule="nonzero"/></g><g clip-path="url(#2face63803)"><path fill="#f9e5df" d="M 48.773438 115.871094 C 47.691406 116.039062 46.640625 116.207031 45.585938 116.359375 C 43.988281 116.59375 43.09375 117.546875 42.835938 119.101562 C 42.65625 120.203125 42.5 121.3125 42.398438 122.425781 C 42.277344 123.742188 42.226562 125.066406 42.097656 126.394531 C 42.042969 125.855469 41.988281 125.3125 41.933594 124.769531 C 41.773438 123.097656 41.617188 121.429688 41.453125 119.757812 C 41.433594 119.558594 41.375 119.359375 41.339844 119.160156 C 41.082031 117.585938 40.148438 116.679688 38.589844 116.410156 C 37.839844 116.28125 37.082031 116.171875 36.328125 116.054688 C 36.058594 116.011719 35.789062 115.957031 35.402344 115.886719 C 36.597656 115.738281 37.664062 115.609375 38.726562 115.46875 C 40.265625 115.265625 41.15625 114.359375 41.398438 112.855469 C 41.621094 111.480469 41.765625 110.089844 41.921875 108.699219 C 42.011719 107.898438 42.054688 107.089844 42.128906 106.183594 C 42.269531 107.757812 42.382812 109.230469 42.546875 110.691406 C 42.640625 111.523438 42.800781 112.351562 42.96875 113.171875 C 43.234375 114.472656 44.078125 115.207031 45.359375 115.414062 C 46.488281 115.597656 47.625 115.71875 48.773438 115.871094 Z M 48.773438 115.871094 " fill-opacity="1" fill-rule="nonzero"/></g><g clip-path="url(#fbede1d7e5)"><path fill="#f9e5df" d="M 30.09375 122.425781 C 30.589844 122.347656 31.089844 122.277344 31.585938 122.1875 C 32.289062 122.054688 32.726562 121.609375 32.855469 120.925781 C 33.011719 120.105469 33.097656 119.269531 33.207031 118.441406 C 33.238281 118.167969 33.242188 117.890625 33.355469 117.601562 C 33.398438 117.945312 33.4375 118.289062 33.488281 118.632812 C 33.589844 119.363281 33.679688 120.09375 33.800781 120.816406 C 33.9375 121.609375 34.40625 122.082031 35.214844 122.199219 C 35.675781 122.269531 36.136719 122.34375 36.605469 122.503906 C 36.445312 122.546875 36.285156 122.597656 36.125 122.628906 C 35.976562 122.660156 35.820312 122.65625 35.667969 122.683594 C 34.308594 122.898438 33.835938 123.382812 33.660156 124.761719 C 33.585938 125.316406 33.539062 125.875 33.484375 126.429688 C 33.429688 126.984375 33.375 127.542969 33.273438 128.097656 C 33.199219 127.21875 33.132812 126.339844 33.046875 125.460938 C 33.003906 125.03125 32.9375 124.605469 32.84375 124.183594 C 32.675781 123.445312 32.207031 122.984375 31.460938 122.824219 C 31 122.722656 30.535156 122.644531 30.070312 122.558594 C 30.078125 122.515625 30.085938 122.46875 30.09375 122.425781 Z M 30.09375 122.425781 " fill-opacity="1" fill-rule="nonzero"/></g><g clip-path="url(#8afa240af3)"><path fill="#f9e5df" d="M 224.246094 160.421875 C 223.164062 160.589844 222.113281 160.757812 221.058594 160.910156 C 219.457031 161.144531 218.566406 162.09375 218.308594 163.648438 C 218.125 164.753906 217.972656 165.863281 217.867188 166.976562 C 217.75 168.292969 217.699219 169.617188 217.566406 170.945312 C 217.515625 170.402344 217.460938 169.863281 217.40625 169.320312 C 217.246094 167.648438 217.089844 165.980469 216.925781 164.308594 C 216.90625 164.109375 216.84375 163.910156 216.8125 163.710938 C 216.550781 162.136719 215.621094 161.230469 214.0625 160.960938 C 213.308594 160.828125 212.554688 160.722656 211.800781 160.605469 C 211.53125 160.558594 211.261719 160.507812 210.875 160.4375 C 212.066406 160.289062 213.132812 160.160156 214.199219 160.019531 C 215.734375 159.816406 216.628906 158.910156 216.871094 157.40625 C 217.09375 156.027344 217.238281 154.636719 217.394531 153.25 C 217.484375 152.449219 217.527344 151.640625 217.597656 150.734375 C 217.742188 152.308594 217.855469 153.777344 218.019531 155.242188 C 218.113281 156.074219 218.273438 156.902344 218.441406 157.722656 C 218.707031 159.023438 219.546875 159.757812 220.828125 159.964844 C 221.957031 160.148438 223.097656 160.269531 224.246094 160.421875 Z M 224.246094 160.421875 " fill-opacity="1" fill-rule="nonzero"/></g><g clip-path="url(#f8650ec8a7)"><path fill="#f9e5df" d="M 205.5625 166.976562 C 206.0625 166.898438 206.5625 166.828125 207.058594 166.734375 C 207.761719 166.605469 208.199219 166.160156 208.328125 165.476562 C 208.484375 164.65625 208.570312 163.820312 208.675781 162.992188 C 208.710938 162.71875 208.714844 162.441406 208.824219 162.152344 C 208.871094 162.496094 208.910156 162.839844 208.957031 163.183594 C 209.058594 163.914062 209.152344 164.644531 209.273438 165.367188 C 209.410156 166.160156 209.878906 166.632812 210.6875 166.75 C 211.148438 166.820312 211.609375 166.894531 212.078125 167.054688 C 211.917969 167.097656 211.757812 167.148438 211.597656 167.179688 C 211.445312 167.207031 211.292969 167.207031 211.140625 167.230469 C 209.78125 167.449219 209.308594 167.933594 209.128906 169.3125 C 209.058594 169.867188 209.011719 170.425781 208.957031 170.980469 C 208.898438 171.535156 208.84375 172.089844 208.746094 172.648438 C 208.671875 171.769531 208.605469 170.890625 208.515625 170.011719 C 208.472656 169.582031 208.410156 169.152344 208.3125 168.734375 C 208.144531 167.996094 207.675781 167.535156 206.933594 167.375 C 206.472656 167.273438 206.003906 167.195312 205.542969 167.105469 C 205.550781 167.0625 205.558594 167.019531 205.5625 166.976562 Z M 205.5625 166.976562 " fill-opacity="1" fill-rule="nonzero"/></g></svg>