<svg xmlns="http://www.w3.org/2000/svg" xmlns:xlink="http://www.w3.org/1999/xlink" width="1200" zoomAndPan="magnify" viewBox="0 0 900 225" height="300" preserveAspectRatio="xMidYMid meet" version="1.0"><defs><g/><clipPath id="2919c99a39"><path d="M 128.648438 92.835938 L 785.605469 92.835938 L 785.605469 110.339844 L 128.648438 110.339844 Z M 128.648438 92.835938 " clip-rule="nonzero"/></clipPath><clipPath id="dec5d9e1bd"><path d="M 0 185.296875 L 900 185.296875 L 900 225 L 0 225 Z M 0 185.296875 " clip-rule="nonzero"/></clipPath></defs><g fill="#461220" fill-opacity="1"><g transform="translate(136.808003, 138.667869)"><g><path d="M 1.953125 -0.78125 C 3.785156 -1.25 5.09375 -2.34375 5.875 -4.0625 C 6.65625 -5.789062 7.046875 -8.09375 7.046875 -10.96875 L 7.046875 -78.375 C 7.046875 -81.300781 6.65625 -83.613281 5.875 -85.3125 C 5.09375 -87.007812 3.785156 -88.09375 1.953125 -88.5625 L 1.953125 -89.34375 L 31.8125 -89.34375 L 49.21875 -35.8125 L 61.765625 -89.34375 L 91.9375 -89.34375 L 91.9375 -88.5625 C 90.101562 -88.09375 88.796875 -87.007812 88.015625 -85.3125 C 87.234375 -83.613281 86.84375 -81.300781 86.84375 -78.375 L 86.84375 -10.96875 C 86.84375 -8.09375 87.234375 -5.789062 88.015625 -4.0625 C 88.796875 -2.34375 90.101562 -1.25 91.9375 -0.78125 L 91.9375 0 L 56.671875 0 L 56.671875 -0.78125 C 58.492188 -1.25 59.796875 -2.34375 60.578125 -4.0625 C 61.367188 -5.789062 61.765625 -8.09375 61.765625 -10.96875 L 61.765625 -81.671875 L 42.640625 0 L 35.65625 0 L 8.625 -83.3125 L 8.625 -66.15625 C 8.625 -61.914062 8.867188 -57.441406 9.359375 -52.734375 C 9.859375 -48.035156 10.578125 -43.332031 11.515625 -38.625 C 12.460938 -33.925781 13.585938 -29.421875 14.890625 -25.109375 C 16.191406 -20.804688 17.625 -16.90625 19.1875 -13.40625 C 20.757812 -9.90625 22.429688 -7.054688 24.203125 -4.859375 C 25.984375 -2.660156 27.84375 -1.300781 29.78125 -0.78125 L 29.78125 0 L 1.953125 0 Z M 1.953125 -0.78125 "/></g></g></g><g fill="#461220" fill-opacity="1"><g transform="translate(228.348751, 138.667869)"><g><path d="M 0 0 L 0 -0.78125 C 0.988281 -0.78125 1.941406 -1.484375 2.859375 -2.890625 C 3.773438 -4.304688 4.632812 -6.109375 5.4375 -8.296875 C 6.25 -10.492188 6.992188 -12.820312 7.671875 -15.28125 C 8.359375 -17.738281 8.960938 -20.015625 9.484375 -22.109375 C 10.835938 -27.378906 12.078125 -32.25 13.203125 -36.71875 C 14.328125 -41.1875 15.398438 -45.46875 16.421875 -49.5625 C 17.441406 -53.664062 18.457031 -57.769531 19.46875 -61.875 C 20.488281 -65.976562 21.570312 -70.273438 22.71875 -74.765625 C 23.875 -79.265625 25.101562 -84.125 26.40625 -89.34375 L 52.359375 -89.34375 C 53.710938 -84.125 54.953125 -79.265625 56.078125 -74.765625 C 57.203125 -70.273438 58.285156 -65.976562 59.328125 -61.875 C 60.367188 -57.769531 61.410156 -53.664062 62.453125 -49.5625 C 63.503906 -45.46875 64.578125 -41.1875 65.671875 -36.71875 C 66.773438 -32.25 67.976562 -27.378906 69.28125 -22.109375 C 69.800781 -20.015625 70.398438 -17.738281 71.078125 -15.28125 C 71.765625 -12.820312 72.507812 -10.492188 73.3125 -8.296875 C 74.125 -6.109375 74.988281 -4.304688 75.90625 -2.890625 C 76.820312 -1.484375 77.773438 -0.78125 78.765625 -0.78125 L 78.765625 0 L 39.421875 0 L 39.421875 -0.78125 C 41.359375 -2.25 42.597656 -4.363281 43.140625 -7.125 C 43.691406 -9.894531 43.820312 -13.039062 43.53125 -16.5625 C 43.25 -20.09375 42.71875 -23.691406 41.9375 -27.359375 L 19.828125 -27.359375 C 20.347656 -21.296875 21.5625 -16.015625 23.46875 -11.515625 C 25.375 -7.023438 28.15625 -3.445312 31.8125 -0.78125 L 31.8125 0 Z M 27.125 -86.6875 C 24.507812 -75.238281 22.507812 -64.65625 21.125 -54.9375 C 19.738281 -45.21875 19.28125 -36.546875 19.75 -28.921875 L 41.609375 -28.921875 C 41.140625 -30.960938 40.65625 -32.960938 40.15625 -34.921875 C 39.664062 -36.878906 39.210938 -38.742188 38.796875 -40.515625 C 37.859375 -44.171875 37.019531 -47.4375 36.28125 -50.3125 C 35.550781 -53.1875 34.859375 -55.914062 34.203125 -58.5 C 33.554688 -61.09375 32.890625 -63.742188 32.203125 -66.453125 C 31.523438 -69.171875 30.78125 -72.148438 29.96875 -75.390625 C 29.164062 -78.628906 28.21875 -82.394531 27.125 -86.6875 Z M 27.125 -86.6875 "/></g></g></g><g fill="#461220" fill-opacity="1"><g transform="translate(304.763334, 138.667869)"><g><path d="M 1.953125 -88.5625 L 1.953125 -89.34375 L 47.1875 -89.34375 C 52.507812 -89.34375 56.945312 -88.414062 60.5 -86.5625 C 64.050781 -84.707031 66.71875 -82.238281 68.5 -79.15625 C 70.28125 -76.070312 71.171875 -72.675781 71.171875 -68.96875 C 71.171875 -65.101562 70.453125 -61.890625 69.015625 -59.328125 C 67.578125 -56.765625 65.578125 -54.75 63.015625 -53.28125 C 60.453125 -51.820312 57.484375 -50.78125 54.109375 -50.15625 C 50.742188 -49.53125 47.101562 -49.21875 43.1875 -49.21875 C 47.675781 -48.28125 51.34375 -46.859375 54.1875 -44.953125 C 57.039062 -43.046875 59.328125 -40.820312 61.046875 -38.28125 C 62.773438 -35.75 64.125 -33.054688 65.09375 -30.203125 C 66.0625 -27.359375 66.859375 -24.515625 67.484375 -21.671875 C 68.109375 -18.828125 68.769531 -16.160156 69.46875 -13.671875 C 70.175781 -11.191406 71.144531 -9.035156 72.375 -7.203125 C 73.601562 -5.378906 75.289062 -4.078125 77.4375 -3.296875 C 77.4375 -3.296875 77.265625 -3.054688 76.921875 -2.578125 C 76.585938 -2.109375 75.988281 -1.546875 75.125 -0.890625 C 74.257812 -0.242188 73.039062 0.3125 71.46875 0.78125 C 69.90625 1.25 67.894531 1.484375 65.4375 1.484375 C 60.53125 1.484375 56.519531 0.78125 53.40625 -0.625 C 50.300781 -2.039062 47.898438 -3.9375 46.203125 -6.3125 C 44.503906 -8.6875 43.285156 -11.347656 42.546875 -14.296875 C 41.816406 -17.253906 41.347656 -20.328125 41.140625 -23.515625 C 40.929688 -26.703125 40.773438 -29.769531 40.671875 -32.71875 C 40.566406 -35.675781 40.304688 -38.34375 39.890625 -40.71875 C 39.472656 -43.09375 38.675781 -44.984375 37.5 -46.390625 C 36.320312 -47.804688 34.535156 -48.515625 32.140625 -48.515625 L 32.140625 -10.96875 C 32.140625 -8.09375 32.53125 -5.789062 33.3125 -4.0625 C 34.09375 -2.34375 35.398438 -1.25 37.234375 -0.78125 L 37.234375 0 L 1.953125 0 L 1.953125 -0.78125 C 3.785156 -1.25 5.09375 -2.34375 5.875 -4.0625 C 6.65625 -5.789062 7.046875 -8.09375 7.046875 -10.96875 L 7.046875 -78.375 C 7.046875 -81.300781 6.65625 -83.613281 5.875 -85.3125 C 5.09375 -87.007812 3.785156 -88.09375 1.953125 -88.5625 Z M 33.703125 -88.328125 L 32.140625 -88.328125 L 32.140625 -50.078125 L 34.953125 -50.078125 C 36.941406 -50.078125 38.785156 -50.675781 40.484375 -51.875 C 42.179688 -53.082031 43.535156 -55.125 44.546875 -58 C 45.566406 -60.875 46.078125 -64.816406 46.078125 -69.828125 C 46.078125 -73.015625 45.710938 -76.019531 44.984375 -78.84375 C 44.253906 -81.664062 43 -83.953125 41.21875 -85.703125 C 39.445312 -87.453125 36.941406 -88.328125 33.703125 -88.328125 Z M 33.703125 -88.328125 "/></g></g></g><g fill="#461220" fill-opacity="1"><g transform="translate(380.629285, 138.667869)"><g><path d="M 1.953125 0 L 1.953125 -0.78125 C 3.785156 -1.25 5.09375 -2.34375 5.875 -4.0625 C 6.65625 -5.789062 7.046875 -8.09375 7.046875 -10.96875 L 7.046875 -78.375 C 7.046875 -81.300781 6.65625 -83.613281 5.875 -85.3125 C 5.09375 -87.007812 3.785156 -88.09375 1.953125 -88.5625 L 1.953125 -89.34375 L 37.234375 -89.34375 L 37.234375 -88.5625 C 35.398438 -88.09375 34.09375 -87.007812 33.3125 -85.3125 C 32.53125 -83.613281 32.140625 -81.300781 32.140625 -78.375 L 32.140625 -10.96875 C 32.140625 -8.09375 32.53125 -5.789062 33.3125 -4.0625 C 34.09375 -2.34375 35.398438 -1.25 37.234375 -0.78125 L 37.234375 0 Z M 1.953125 0 "/></g></g></g><g fill="#461220" fill-opacity="1"><g transform="translate(417.464989, 138.667869)"><g><path d="M 0 0 L 0 -0.78125 C 0.988281 -0.78125 1.941406 -1.484375 2.859375 -2.890625 C 3.773438 -4.304688 4.632812 -6.109375 5.4375 -8.296875 C 6.25 -10.492188 6.992188 -12.820312 7.671875 -15.28125 C 8.359375 -17.738281 8.960938 -20.015625 9.484375 -22.109375 C 10.835938 -27.378906 12.078125 -32.25 13.203125 -36.71875 C 14.328125 -41.1875 15.398438 -45.46875 16.421875 -49.5625 C 17.441406 -53.664062 18.457031 -57.769531 19.46875 -61.875 C 20.488281 -65.976562 21.570312 -70.273438 22.71875 -74.765625 C 23.875 -79.265625 25.101562 -84.125 26.40625 -89.34375 L 52.359375 -89.34375 C 53.710938 -84.125 54.953125 -79.265625 56.078125 -74.765625 C 57.203125 -70.273438 58.285156 -65.976562 59.328125 -61.875 C 60.367188 -57.769531 61.410156 -53.664062 62.453125 -49.5625 C 63.503906 -45.46875 64.578125 -41.1875 65.671875 -36.71875 C 66.773438 -32.25 67.976562 -27.378906 69.28125 -22.109375 C 69.800781 -20.015625 70.398438 -17.738281 71.078125 -15.28125 C 71.765625 -12.820312 72.507812 -10.492188 73.3125 -8.296875 C 74.125 -6.109375 74.988281 -4.304688 75.90625 -2.890625 C 76.820312 -1.484375 77.773438 -0.78125 78.765625 -0.78125 L 78.765625 0 L 39.421875 0 L 39.421875 -0.78125 C 41.359375 -2.25 42.597656 -4.363281 43.140625 -7.125 C 43.691406 -9.894531 43.820312 -13.039062 43.53125 -16.5625 C 43.25 -20.09375 42.71875 -23.691406 41.9375 -27.359375 L 19.828125 -27.359375 C 20.347656 -21.296875 21.5625 -16.015625 23.46875 -11.515625 C 25.375 -7.023438 28.15625 -3.445312 31.8125 -0.78125 L 31.8125 0 Z M 27.125 -86.6875 C 24.507812 -75.238281 22.507812 -64.65625 21.125 -54.9375 C 19.738281 -45.21875 19.28125 -36.546875 19.75 -28.921875 L 41.609375 -28.921875 C 41.140625 -30.960938 40.65625 -32.960938 40.15625 -34.921875 C 39.664062 -36.878906 39.210938 -38.742188 38.796875 -40.515625 C 37.859375 -44.171875 37.019531 -47.4375 36.28125 -50.3125 C 35.550781 -53.1875 34.859375 -55.914062 34.203125 -58.5 C 33.554688 -61.09375 32.890625 -63.742188 32.203125 -66.453125 C 31.523438 -69.171875 30.78125 -72.148438 29.96875 -75.390625 C 29.164062 -78.628906 28.21875 -82.394531 27.125 -86.6875 Z M 27.125 -86.6875 "/></g></g></g><g fill="#461220" fill-opacity="1"><g transform="translate(493.879552, 138.667869)"><g/></g></g><g fill="#461220" fill-opacity="1"><g transform="translate(516.76467, 138.667869)"><g><path d="M 0.78125 -8.390625 L 1.171875 -8.390625 C 1.171875 -8.390625 1.429688 -8.234375 1.953125 -7.921875 C 2.484375 -7.609375 3.140625 -7.453125 3.921875 -7.453125 C 5.484375 -7.453125 6.671875 -7.972656 7.484375 -9.015625 C 8.296875 -10.054688 8.859375 -11.425781 9.171875 -13.125 C 9.484375 -14.820312 9.640625 -16.640625 9.640625 -18.578125 L 9.640625 -78.375 C 9.640625 -81.300781 9.242188 -83.613281 8.453125 -85.3125 C 7.671875 -87.007812 6.367188 -88.09375 4.546875 -88.5625 L 4.546875 -89.34375 L 39.8125 -89.34375 L 39.8125 -88.5625 C 37.988281 -88.09375 36.679688 -87.007812 35.890625 -85.3125 C 35.109375 -83.613281 34.71875 -81.300781 34.71875 -78.375 L 34.71875 -20.84375 C 34.71875 -16.664062 33.957031 -12.890625 32.4375 -9.515625 C 30.925781 -6.148438 28.65625 -3.472656 25.625 -1.484375 C 22.59375 0.492188 18.804688 1.484375 14.265625 1.484375 C 12.066406 1.484375 9.9375 1.117188 7.875 0.390625 C 5.8125 -0.335938 4.113281 -1.429688 2.78125 -2.890625 C 1.445312 -4.359375 0.78125 -6.191406 0.78125 -8.390625 Z M 0.78125 -8.390625 "/></g></g></g><g fill="#461220" fill-opacity="1"><g transform="translate(556.186698, 138.667869)"><g><path d="M 3.53125 -44.671875 C 3.53125 -51.878906 4.363281 -58.34375 6.03125 -64.0625 C 7.707031 -69.789062 10.085938 -74.640625 13.171875 -78.609375 C 16.253906 -82.578125 19.894531 -85.609375 24.09375 -87.703125 C 28.300781 -89.796875 32.914062 -90.84375 37.9375 -90.84375 C 42.945312 -90.84375 47.554688 -89.796875 51.765625 -87.703125 C 55.972656 -85.609375 59.617188 -82.578125 62.703125 -78.609375 C 65.785156 -74.640625 68.160156 -69.789062 69.828125 -64.0625 C 71.503906 -58.34375 72.34375 -51.878906 72.34375 -44.671875 C 72.34375 -35.003906 70.878906 -26.722656 67.953125 -19.828125 C 65.023438 -12.929688 60.972656 -7.65625 55.796875 -4 C 50.628906 -0.34375 44.675781 1.484375 37.9375 1.484375 C 31.25 1.484375 25.304688 -0.34375 20.109375 -4 C 14.910156 -7.65625 10.847656 -12.929688 7.921875 -19.828125 C 4.992188 -26.722656 3.53125 -35.003906 3.53125 -44.671875 Z M 29.390625 -44.59375 C 29.390625 -40.050781 29.414062 -35.609375 29.46875 -31.265625 C 29.519531 -26.929688 29.675781 -22.867188 29.9375 -19.078125 C 30.195312 -15.296875 30.628906 -11.976562 31.234375 -9.125 C 31.835938 -6.28125 32.671875 -4.046875 33.734375 -2.421875 C 34.804688 -0.804688 36.207031 0 37.9375 0 C 39.65625 0 41.050781 -0.804688 42.125 -2.421875 C 43.195312 -4.046875 44.03125 -6.28125 44.625 -9.125 C 45.226562 -11.976562 45.660156 -15.296875 45.921875 -19.078125 C 46.179688 -22.867188 46.335938 -26.929688 46.390625 -31.265625 C 46.441406 -35.609375 46.46875 -40.050781 46.46875 -44.59375 C 46.46875 -49.144531 46.441406 -53.597656 46.390625 -57.953125 C 46.335938 -62.316406 46.179688 -66.390625 45.921875 -70.171875 C 45.660156 -73.960938 45.226562 -77.296875 44.625 -80.171875 C 44.03125 -83.046875 43.179688 -85.289062 42.078125 -86.90625 C 40.984375 -88.53125 39.601562 -89.34375 37.9375 -89.34375 C 36.257812 -89.34375 34.875 -88.53125 33.78125 -86.90625 C 32.6875 -85.289062 31.835938 -83.046875 31.234375 -80.171875 C 30.628906 -77.296875 30.195312 -73.960938 29.9375 -70.171875 C 29.675781 -66.390625 29.519531 -62.316406 29.46875 -57.953125 C 29.414062 -53.597656 29.390625 -49.144531 29.390625 -44.59375 Z M 29.390625 -44.59375 "/></g></g></g><g fill="#461220" fill-opacity="1"><g transform="translate(629.701433, 138.667869)"><g><path d="M 46.234375 -11.28125 C 46.234375 -14.726562 45.632812 -17.707031 44.4375 -20.21875 C 43.238281 -22.726562 41.617188 -24.921875 39.578125 -26.796875 C 37.535156 -28.679688 35.25 -30.394531 32.71875 -31.9375 C 30.1875 -33.476562 27.570312 -34.992188 24.875 -36.484375 C 22.1875 -37.972656 19.578125 -39.566406 17.046875 -41.265625 C 14.515625 -42.960938 12.226562 -44.929688 10.1875 -47.171875 C 8.144531 -49.421875 6.523438 -52.070312 5.328125 -55.125 C 4.128906 -58.1875 3.53125 -61.804688 3.53125 -65.984375 C 3.53125 -71.679688 4.832031 -76.359375 7.4375 -80.015625 C 10.050781 -83.671875 13.601562 -86.390625 18.09375 -88.171875 C 22.59375 -89.953125 27.640625 -90.84375 33.234375 -90.84375 C 36.054688 -90.84375 38.613281 -90.722656 40.90625 -90.484375 C 43.207031 -90.242188 45.503906 -89.992188 47.796875 -89.734375 C 50.097656 -89.472656 52.660156 -89.34375 55.484375 -89.34375 C 56.273438 -89.34375 57.125 -89.457031 58.03125 -89.6875 C 58.945312 -89.925781 59.613281 -90.3125 60.03125 -90.84375 L 60.8125 -90.84375 L 60.8125 -62.390625 L 60.03125 -62.390625 C 59.769531 -64.523438 59.0625 -66.820312 57.90625 -69.28125 C 56.757812 -71.738281 55.285156 -74.140625 53.484375 -76.484375 C 51.679688 -78.835938 49.65625 -80.992188 47.40625 -82.953125 C 45.164062 -84.921875 42.832031 -86.476562 40.40625 -87.625 C 37.976562 -88.769531 35.5625 -89.34375 33.15625 -89.34375 C 30.175781 -89.34375 27.65625 -88.414062 25.59375 -86.5625 C 23.53125 -84.707031 22.5 -82.082031 22.5 -78.6875 C 22.5 -75.394531 23.097656 -72.546875 24.296875 -70.140625 C 25.492188 -67.742188 27.125 -65.640625 29.1875 -63.828125 C 31.257812 -62.023438 33.5625 -60.378906 36.09375 -58.890625 C 38.625 -57.410156 41.257812 -55.953125 44 -54.515625 C 46.75 -53.078125 49.390625 -51.507812 51.921875 -49.8125 C 54.453125 -48.113281 56.75 -46.175781 58.8125 -44 C 60.882812 -41.832031 62.519531 -39.257812 63.71875 -36.28125 C 64.914062 -33.300781 65.515625 -29.800781 65.515625 -25.78125 C 65.515625 -21.914062 64.753906 -18.320312 63.234375 -15 C 61.722656 -11.6875 59.597656 -8.800781 56.859375 -6.34375 C 54.117188 -3.894531 50.890625 -1.976562 47.171875 -0.59375 C 43.460938 0.789062 39.414062 1.484375 35.03125 1.484375 C 30.75 1.484375 26.867188 1.15625 23.390625 0.5 C 19.921875 -0.144531 16.65625 -1.160156 13.59375 -2.546875 C 10.539062 -3.929688 7.5 -5.722656 4.46875 -7.921875 L 4.46875 -37.546875 L 5.40625 -37.546875 C 5.40625 -36.441406 5.757812 -34.765625 6.46875 -32.515625 C 7.175781 -30.273438 8.179688 -27.742188 9.484375 -24.921875 C 10.785156 -22.097656 12.335938 -19.25 14.140625 -16.375 C 15.941406 -13.5 17.941406 -10.832031 20.140625 -8.375 C 22.335938 -5.925781 24.675781 -3.941406 27.15625 -2.421875 C 29.632812 -0.910156 32.207031 -0.15625 34.875 -0.15625 C 37.800781 -0.15625 40.085938 -0.648438 41.734375 -1.640625 C 43.378906 -2.640625 44.539062 -3.972656 45.21875 -5.640625 C 45.894531 -7.316406 46.234375 -9.195312 46.234375 -11.28125 Z M 46.234375 -11.28125 "/></g></g></g><g fill="#461220" fill-opacity="1"><g transform="translate(696.397627, 138.667869)"><g><path d="M 64.8125 0 L 1.953125 0 L 1.953125 -0.78125 C 3.785156 -1.25 5.09375 -2.34375 5.875 -4.0625 C 6.65625 -5.789062 7.046875 -8.09375 7.046875 -10.96875 L 7.046875 -78.375 C 7.046875 -81.300781 6.65625 -83.613281 5.875 -85.3125 C 5.09375 -87.007812 3.785156 -88.09375 1.953125 -88.5625 L 1.953125 -89.34375 L 64.8125 -89.34375 L 64.8125 -62.390625 L 64.03125 -62.390625 C 64.03125 -64.109375 63.597656 -66.066406 62.734375 -68.265625 C 61.878906 -70.460938 60.640625 -72.707031 59.015625 -75 C 57.398438 -77.300781 55.492188 -79.40625 53.296875 -81.3125 C 51.097656 -83.21875 48.640625 -84.769531 45.921875 -85.96875 C 43.210938 -87.175781 40.316406 -87.78125 37.234375 -87.78125 L 32.140625 -87.78125 L 32.140625 -48.515625 L 35.1875 -48.515625 C 37.125 -48.515625 39.097656 -48.914062 41.109375 -49.71875 C 43.117188 -50.53125 45 -51.578125 46.75 -52.859375 C 48.5 -54.140625 49.960938 -55.5625 51.140625 -57.125 C 52.316406 -58.695312 53.035156 -60.21875 53.296875 -61.6875 L 54.078125 -61.6875 L 54.078125 -33.78125 L 53.296875 -33.78125 C 53.035156 -35.289062 52.316406 -36.816406 51.140625 -38.359375 C 49.960938 -39.898438 48.5 -41.3125 46.75 -42.59375 C 45 -43.875 43.117188 -44.921875 41.109375 -45.734375 C 39.097656 -46.546875 37.125 -46.953125 35.1875 -46.953125 L 32.140625 -46.953125 L 32.140625 -1.5625 L 37.234375 -1.5625 C 40.316406 -1.5625 43.210938 -2.160156 45.921875 -3.359375 C 48.640625 -4.566406 51.097656 -6.125 53.296875 -8.03125 C 55.492188 -9.9375 57.398438 -12.039062 59.015625 -14.34375 C 60.640625 -16.644531 61.878906 -18.890625 62.734375 -21.078125 C 63.597656 -23.273438 64.03125 -25.238281 64.03125 -26.96875 L 64.8125 -26.96875 Z M 64.8125 0 "/></g></g></g><g clip-path="url(#2919c99a39)"><path fill="#fff3ef" d="M 128.648438 92.835938 L 785.628906 92.835938 L 785.628906 110.339844 L 128.648438 110.339844 Z M 128.648438 92.835938 " fill-opacity="1" fill-rule="nonzero"/></g><g fill="#fe700f" fill-opacity="1"><g transform="translate(344.226071, 103.723444)"><g><path d="M 2.78125 0.109375 C 2.3125 0.109375 1.90625 0.03125 1.5625 -0.125 C 1.226562 -0.28125 0.96875 -0.5 0.78125 -0.78125 C 0.59375 -1.070312 0.5 -1.40625 0.5 -1.78125 L 1.21875 -1.78125 C 1.226562 -1.40625 1.375 -1.113281 1.65625 -0.90625 C 1.945312 -0.695312 2.320312 -0.59375 2.78125 -0.59375 C 3.1875 -0.59375 3.507812 -0.671875 3.75 -0.828125 C 3.988281 -0.984375 4.109375 -1.207031 4.109375 -1.5 C 4.109375 -1.769531 3.988281 -1.984375 3.75 -2.140625 C 3.519531 -2.304688 3.144531 -2.453125 2.625 -2.578125 C 1.914062 -2.742188 1.394531 -2.960938 1.0625 -3.234375 C 0.726562 -3.503906 0.5625 -3.863281 0.5625 -4.3125 C 0.5625 -4.800781 0.75 -5.1875 1.125 -5.46875 C 1.5 -5.757812 2.003906 -5.90625 2.640625 -5.90625 C 3.285156 -5.90625 3.796875 -5.738281 4.171875 -5.40625 C 4.554688 -5.082031 4.75 -4.640625 4.75 -4.078125 L 4.03125 -4.078125 C 4.03125 -4.429688 3.898438 -4.707031 3.640625 -4.90625 C 3.390625 -5.101562 3.054688 -5.203125 2.640625 -5.203125 C 2.222656 -5.203125 1.894531 -5.117188 1.65625 -4.953125 C 1.425781 -4.796875 1.3125 -4.582031 1.3125 -4.3125 C 1.3125 -4.070312 1.421875 -3.867188 1.640625 -3.703125 C 1.859375 -3.546875 2.25 -3.394531 2.8125 -3.25 C 3.550781 -3.070312 4.078125 -2.84375 4.390625 -2.5625 C 4.703125 -2.289062 4.859375 -1.945312 4.859375 -1.53125 C 4.859375 -1.019531 4.664062 -0.617188 4.28125 -0.328125 C 3.90625 -0.0351562 3.40625 0.109375 2.78125 0.109375 Z M 2.78125 0.109375 "/></g></g></g><g fill="#fe700f" fill-opacity="1"><g transform="translate(356.210592, 103.723444)"><g><path d="M 3.484375 0.109375 C 2.890625 0.109375 2.363281 -0.015625 1.90625 -0.265625 C 1.457031 -0.523438 1.109375 -0.878906 0.859375 -1.328125 C 0.609375 -1.785156 0.484375 -2.304688 0.484375 -2.890625 C 0.484375 -3.484375 0.609375 -4.003906 0.859375 -4.453125 C 1.109375 -4.910156 1.457031 -5.265625 1.90625 -5.515625 C 2.363281 -5.773438 2.890625 -5.90625 3.484375 -5.90625 C 4.066406 -5.90625 4.582031 -5.773438 5.03125 -5.515625 C 5.488281 -5.265625 5.84375 -4.910156 6.09375 -4.453125 C 6.351562 -4.003906 6.484375 -3.484375 6.484375 -2.890625 C 6.484375 -2.304688 6.351562 -1.785156 6.09375 -1.328125 C 5.84375 -0.878906 5.488281 -0.523438 5.03125 -0.265625 C 4.582031 -0.015625 4.066406 0.109375 3.484375 0.109375 Z M 1.21875 -2.890625 C 1.21875 -2.453125 1.3125 -2.0625 1.5 -1.71875 C 1.695312 -1.375 1.960938 -1.101562 2.296875 -0.90625 C 2.640625 -0.71875 3.035156 -0.625 3.484375 -0.625 C 3.929688 -0.625 4.320312 -0.71875 4.65625 -0.90625 C 4.988281 -1.101562 5.25 -1.375 5.4375 -1.71875 C 5.632812 -2.0625 5.734375 -2.453125 5.734375 -2.890625 C 5.734375 -3.347656 5.632812 -3.742188 5.4375 -4.078125 C 5.25 -4.421875 4.988281 -4.6875 4.65625 -4.875 C 4.320312 -5.070312 3.929688 -5.171875 3.484375 -5.171875 C 3.035156 -5.171875 2.640625 -5.070312 2.296875 -4.875 C 1.960938 -4.6875 1.695312 -4.421875 1.5 -4.078125 C 1.3125 -3.742188 1.21875 -3.347656 1.21875 -2.890625 Z M 1.21875 -2.890625 "/></g></g></g><g fill="#fe700f" fill-opacity="1"><g transform="translate(369.792926, 103.723444)"><g><path d="M 0.84375 0 L 0.84375 -5.796875 L 4.171875 -5.796875 L 4.171875 -5.125 L 1.578125 -5.125 L 1.578125 -3.109375 L 3.953125 -3.109375 L 3.953125 -2.4375 L 1.578125 -2.4375 L 1.578125 0 Z M 0.84375 0 "/></g></g></g><g fill="#fe700f" fill-opacity="1"><g transform="translate(381.040635, 103.723444)"><g><path d="M 2.25 0 L 2.25 -5.09375 L 0.28125 -5.09375 L 0.28125 -5.796875 L 4.921875 -5.796875 L 4.921875 -5.09375 L 2.96875 -5.09375 L 2.96875 0 Z M 2.25 0 "/></g></g></g><g fill="#fe700f" fill-opacity="1"><g transform="translate(392.884416, 103.723444)"><g><path d="M 2.03125 0 L 0.15625 -5.796875 L 0.921875 -5.796875 L 1.71875 -3.296875 L 2.40625 -1.171875 L 4.109375 -5.796875 L 4.796875 -5.796875 L 6.515625 -1.15625 L 8.015625 -5.796875 L 8.765625 -5.796875 L 6.875 0 L 6.203125 0 L 5.421875 -2.109375 L 4.453125 -4.703125 L 2.71875 0 Z M 2.03125 0 "/></g></g></g><g fill="#fe700f" fill-opacity="1"><g transform="translate(408.437103, 103.723444)"><g><path d="M 0.140625 0 L 2.53125 -5.796875 L 3.203125 -5.796875 L 5.59375 0 L 4.8125 0 L 4.265625 -1.3125 L 1.453125 -1.3125 L 0.921875 0 Z M 1.734375 -2 L 4 -2 L 2.859375 -4.78125 Z M 1.734375 -2 "/></g></g></g><g fill="#fe700f" fill-opacity="1"><g transform="translate(420.794174, 103.723444)"><g><path d="M 0.84375 0 L 0.84375 -5.796875 L 3.0625 -5.796875 C 3.457031 -5.796875 3.800781 -5.71875 4.09375 -5.5625 C 4.394531 -5.414062 4.628906 -5.203125 4.796875 -4.921875 C 4.960938 -4.648438 5.046875 -4.320312 5.046875 -3.9375 C 5.046875 -3.46875 4.925781 -3.078125 4.6875 -2.765625 C 4.445312 -2.460938 4.113281 -2.257812 3.6875 -2.15625 L 5.140625 0 L 4.265625 0 L 2.84375 -2.078125 L 1.578125 -2.078125 L 1.578125 0 Z M 1.578125 -2.78125 L 2.96875 -2.78125 C 3.394531 -2.78125 3.722656 -2.878906 3.953125 -3.078125 C 4.191406 -3.273438 4.3125 -3.5625 4.3125 -3.9375 C 4.3125 -4.300781 4.191406 -4.582031 3.953125 -4.78125 C 3.722656 -4.988281 3.394531 -5.09375 2.96875 -5.09375 L 1.578125 -5.09375 Z M 1.578125 -2.78125 "/></g></g></g><g fill="#fe700f" fill-opacity="1"><g transform="translate(433.060173, 103.723444)"><g><path d="M 0.84375 0 L 0.84375 -5.796875 L 4.359375 -5.796875 L 4.359375 -5.125 L 1.578125 -5.125 L 1.578125 -3.28125 L 4.15625 -3.28125 L 4.15625 -2.609375 L 1.578125 -2.609375 L 1.578125 -0.671875 L 4.453125 -0.671875 L 4.453125 0 Z M 0.84375 0 "/></g></g></g><g fill="#fe700f" fill-opacity="1"><g transform="translate(444.680437, 103.723444)"><g/></g></g><g fill="#fe700f" fill-opacity="1"><g transform="translate(453.361722, 103.723444)"><g><path d="M 0.84375 0 L 0.84375 -5.796875 L 2.84375 -5.796875 C 3.445312 -5.796875 3.96875 -5.671875 4.40625 -5.421875 C 4.851562 -5.179688 5.203125 -4.84375 5.453125 -4.40625 C 5.703125 -3.976562 5.828125 -3.472656 5.828125 -2.890625 C 5.828125 -2.328125 5.703125 -1.828125 5.453125 -1.390625 C 5.203125 -0.953125 4.851562 -0.609375 4.40625 -0.359375 C 3.96875 -0.117188 3.445312 0 2.84375 0 Z M 1.578125 -0.703125 L 2.84375 -0.703125 C 3.289062 -0.703125 3.679688 -0.789062 4.015625 -0.96875 C 4.347656 -1.15625 4.609375 -1.414062 4.796875 -1.75 C 4.984375 -2.082031 5.078125 -2.460938 5.078125 -2.890625 C 5.078125 -3.335938 4.976562 -3.722656 4.78125 -4.046875 C 4.59375 -4.378906 4.332031 -4.632812 4 -4.8125 C 3.664062 -5 3.269531 -5.09375 2.8125 -5.09375 L 1.578125 -5.09375 Z M 1.578125 -0.703125 "/></g></g></g><g fill="#fe700f" fill-opacity="1"><g transform="translate(466.290039, 103.723444)"><g><path d="M 0.84375 0 L 0.84375 -5.796875 L 4.359375 -5.796875 L 4.359375 -5.125 L 1.578125 -5.125 L 1.578125 -3.28125 L 4.15625 -3.28125 L 4.15625 -2.609375 L 1.578125 -2.609375 L 1.578125 -0.671875 L 4.453125 -0.671875 L 4.453125 0 Z M 0.84375 0 "/></g></g></g><g fill="#fe700f" fill-opacity="1"><g transform="translate(477.910303, 103.723444)"><g><path d="M 2.453125 0 L 0.140625 -5.796875 L 0.921875 -5.796875 L 1.875 -3.359375 L 2.796875 -1.046875 L 3.6875 -3.359375 L 4.65625 -5.796875 L 5.4375 -5.796875 L 3.125 0 Z M 2.453125 0 "/></g></g></g><g fill="#fe700f" fill-opacity="1"><g transform="translate(490.110077, 103.723444)"><g><path d="M 0.84375 0 L 0.84375 -5.796875 L 4.359375 -5.796875 L 4.359375 -5.125 L 1.578125 -5.125 L 1.578125 -3.28125 L 4.15625 -3.28125 L 4.15625 -2.609375 L 1.578125 -2.609375 L 1.578125 -0.671875 L 4.453125 -0.671875 L 4.453125 0 Z M 0.84375 0 "/></g></g></g><g fill="#fe700f" fill-opacity="1"><g transform="translate(501.730341, 103.723444)"><g><path d="M 0.84375 0 L 0.84375 -5.796875 L 1.578125 -5.796875 L 1.578125 -0.703125 L 4.390625 -0.703125 L 4.390625 0 Z M 0.84375 0 "/></g></g></g><g fill="#fe700f" fill-opacity="1"><g transform="translate(513.002897, 103.723444)"><g><path d="M 3.484375 0.109375 C 2.890625 0.109375 2.363281 -0.015625 1.90625 -0.265625 C 1.457031 -0.523438 1.109375 -0.878906 0.859375 -1.328125 C 0.609375 -1.785156 0.484375 -2.304688 0.484375 -2.890625 C 0.484375 -3.484375 0.609375 -4.003906 0.859375 -4.453125 C 1.109375 -4.910156 1.457031 -5.265625 1.90625 -5.515625 C 2.363281 -5.773438 2.890625 -5.90625 3.484375 -5.90625 C 4.066406 -5.90625 4.582031 -5.773438 5.03125 -5.515625 C 5.488281 -5.265625 5.84375 -4.910156 6.09375 -4.453125 C 6.351562 -4.003906 6.484375 -3.484375 6.484375 -2.890625 C 6.484375 -2.304688 6.351562 -1.785156 6.09375 -1.328125 C 5.84375 -0.878906 5.488281 -0.523438 5.03125 -0.265625 C 4.582031 -0.015625 4.066406 0.109375 3.484375 0.109375 Z M 1.21875 -2.890625 C 1.21875 -2.453125 1.3125 -2.0625 1.5 -1.71875 C 1.695312 -1.375 1.960938 -1.101562 2.296875 -0.90625 C 2.640625 -0.71875 3.035156 -0.625 3.484375 -0.625 C 3.929688 -0.625 4.320312 -0.71875 4.65625 -0.90625 C 4.988281 -1.101562 5.25 -1.375 5.4375 -1.71875 C 5.632812 -2.0625 5.734375 -2.453125 5.734375 -2.890625 C 5.734375 -3.347656 5.632812 -3.742188 5.4375 -4.078125 C 5.25 -4.421875 4.988281 -4.6875 4.65625 -4.875 C 4.320312 -5.070312 3.929688 -5.171875 3.484375 -5.171875 C 3.035156 -5.171875 2.640625 -5.070312 2.296875 -4.875 C 1.960938 -4.6875 1.695312 -4.421875 1.5 -4.078125 C 1.3125 -3.742188 1.21875 -3.347656 1.21875 -2.890625 Z M 1.21875 -2.890625 "/></g></g></g><g fill="#fe700f" fill-opacity="1"><g transform="translate(526.585235, 103.723444)"><g><path d="M 0.84375 0 L 0.84375 -5.796875 L 2.8125 -5.796875 C 3.25 -5.796875 3.628906 -5.710938 3.953125 -5.546875 C 4.273438 -5.390625 4.519531 -5.164062 4.6875 -4.875 C 4.863281 -4.59375 4.953125 -4.25 4.953125 -3.84375 C 4.953125 -3.445312 4.863281 -3.101562 4.6875 -2.8125 C 4.519531 -2.53125 4.273438 -2.304688 3.953125 -2.140625 C 3.628906 -1.984375 3.25 -1.90625 2.8125 -1.90625 L 1.578125 -1.90625 L 1.578125 0 Z M 1.578125 -2.578125 L 2.796875 -2.578125 C 3.742188 -2.578125 4.21875 -3 4.21875 -3.84375 C 4.21875 -4.675781 3.742188 -5.09375 2.796875 -5.09375 L 1.578125 -5.09375 Z M 1.578125 -2.578125 "/></g></g></g><g fill="#fe700f" fill-opacity="1"><g transform="translate(538.50353, 103.723444)"><g><path d="M 0.84375 0 L 0.84375 -5.796875 L 4.359375 -5.796875 L 4.359375 -5.125 L 1.578125 -5.125 L 1.578125 -3.28125 L 4.15625 -3.28125 L 4.15625 -2.609375 L 1.578125 -2.609375 L 1.578125 -0.671875 L 4.453125 -0.671875 L 4.453125 0 Z M 0.84375 0 "/></g></g></g><g fill="#fe700f" fill-opacity="1"><g transform="translate(550.123784, 103.723444)"><g><path d="M 0.84375 0 L 0.84375 -5.796875 L 3.0625 -5.796875 C 3.457031 -5.796875 3.800781 -5.71875 4.09375 -5.5625 C 4.394531 -5.414062 4.628906 -5.203125 4.796875 -4.921875 C 4.960938 -4.648438 5.046875 -4.320312 5.046875 -3.9375 C 5.046875 -3.46875 4.925781 -3.078125 4.6875 -2.765625 C 4.445312 -2.460938 4.113281 -2.257812 3.6875 -2.15625 L 5.140625 0 L 4.265625 0 L 2.84375 -2.078125 L 1.578125 -2.078125 L 1.578125 0 Z M 1.578125 -2.78125 L 2.96875 -2.78125 C 3.394531 -2.78125 3.722656 -2.878906 3.953125 -3.078125 C 4.191406 -3.273438 4.3125 -3.5625 4.3125 -3.9375 C 4.3125 -4.300781 4.191406 -4.582031 3.953125 -4.78125 C 3.722656 -4.988281 3.394531 -5.09375 2.96875 -5.09375 L 1.578125 -5.09375 Z M 1.578125 -2.78125 "/></g></g></g><g fill="#fe700f" fill-opacity="1"><g transform="translate(260.044589, 161.613786)"><g><path d="M 3.40625 0.109375 C 2.988281 0.109375 2.597656 0.0351562 2.234375 -0.109375 C 1.878906 -0.265625 1.566406 -0.472656 1.296875 -0.734375 C 1.035156 -1.003906 0.832031 -1.320312 0.6875 -1.6875 C 0.550781 -2.0625 0.484375 -2.460938 0.484375 -2.890625 C 0.484375 -3.328125 0.550781 -3.726562 0.6875 -4.09375 C 0.832031 -4.46875 1.035156 -4.785156 1.296875 -5.046875 C 1.566406 -5.316406 1.878906 -5.523438 2.234375 -5.671875 C 2.597656 -5.828125 2.988281 -5.90625 3.40625 -5.90625 C 3.863281 -5.90625 4.285156 -5.820312 4.671875 -5.65625 C 5.054688 -5.488281 5.382812 -5.25 5.65625 -4.9375 C 5.925781 -4.625 6.128906 -4.253906 6.265625 -3.828125 L 5.484375 -3.828125 C 5.335938 -4.242188 5.078125 -4.570312 4.703125 -4.8125 C 4.335938 -5.050781 3.914062 -5.171875 3.4375 -5.171875 C 3.007812 -5.171875 2.628906 -5.070312 2.296875 -4.875 C 1.960938 -4.6875 1.695312 -4.421875 1.5 -4.078125 C 1.3125 -3.734375 1.21875 -3.335938 1.21875 -2.890625 C 1.21875 -2.453125 1.3125 -2.0625 1.5 -1.71875 C 1.695312 -1.375 1.960938 -1.101562 2.296875 -0.90625 C 2.628906 -0.71875 3.007812 -0.625 3.4375 -0.625 C 3.925781 -0.625 4.359375 -0.75 4.734375 -1 C 5.117188 -1.257812 5.390625 -1.601562 5.546875 -2.03125 L 6.3125 -2.03125 C 6.195312 -1.601562 6 -1.226562 5.71875 -0.90625 C 5.4375 -0.59375 5.097656 -0.34375 4.703125 -0.15625 C 4.304688 0.0195312 3.875 0.109375 3.40625 0.109375 Z M 3.40625 0.109375 "/></g></g></g><g fill="#fe700f" fill-opacity="1"><g transform="translate(269.393358, 161.613786)"><g><path d="M 0.84375 0 L 0.84375 -5.796875 L 3.0625 -5.796875 C 3.457031 -5.796875 3.800781 -5.71875 4.09375 -5.5625 C 4.394531 -5.414062 4.628906 -5.203125 4.796875 -4.921875 C 4.960938 -4.648438 5.046875 -4.320312 5.046875 -3.9375 C 5.046875 -3.46875 4.925781 -3.078125 4.6875 -2.765625 C 4.445312 -2.460938 4.113281 -2.257812 3.6875 -2.15625 L 5.140625 0 L 4.265625 0 L 2.84375 -2.078125 L 1.578125 -2.078125 L 1.578125 0 Z M 1.578125 -2.78125 L 2.96875 -2.78125 C 3.394531 -2.78125 3.722656 -2.878906 3.953125 -3.078125 C 4.191406 -3.273438 4.3125 -3.5625 4.3125 -3.9375 C 4.3125 -4.300781 4.191406 -4.582031 3.953125 -4.78125 C 3.722656 -4.988281 3.394531 -5.09375 2.96875 -5.09375 L 1.578125 -5.09375 Z M 1.578125 -2.78125 "/></g></g></g><g fill="#fe700f" fill-opacity="1"><g transform="translate(277.624481, 161.613786)"><g><path d="M 0.84375 0 L 0.84375 -5.796875 L 4.359375 -5.796875 L 4.359375 -5.125 L 1.578125 -5.125 L 1.578125 -3.28125 L 4.15625 -3.28125 L 4.15625 -2.609375 L 1.578125 -2.609375 L 1.578125 -0.671875 L 4.453125 -0.671875 L 4.453125 0 Z M 0.84375 0 "/></g></g></g><g fill="#fe700f" fill-opacity="1"><g transform="translate(285.209864, 161.613786)"><g><path d="M 0.84375 0 L 0.84375 -5.796875 L 4.359375 -5.796875 L 4.359375 -5.125 L 1.578125 -5.125 L 1.578125 -3.28125 L 4.15625 -3.28125 L 4.15625 -2.609375 L 1.578125 -2.609375 L 1.578125 -0.671875 L 4.453125 -0.671875 L 4.453125 0 Z M 0.84375 0 "/></g></g></g><g fill="#fe700f" fill-opacity="1"><g transform="translate(292.795247, 161.613786)"><g><path d="M 0.84375 0 L 0.84375 -5.796875 L 1.53125 -5.796875 L 3.796875 -2.359375 L 6.0625 -5.796875 L 6.734375 -5.796875 L 6.734375 0 L 6.015625 0 L 6.015625 -4.4375 L 4.09375 -1.546875 L 3.5 -1.546875 L 1.578125 -4.4375 L 1.578125 0 Z M 0.84375 0 "/></g></g></g><g fill="#fe700f" fill-opacity="1"><g transform="translate(302.971892, 161.613786)"><g><path d="M 3.484375 0.109375 C 2.890625 0.109375 2.363281 -0.015625 1.90625 -0.265625 C 1.457031 -0.523438 1.109375 -0.878906 0.859375 -1.328125 C 0.609375 -1.785156 0.484375 -2.304688 0.484375 -2.890625 C 0.484375 -3.484375 0.609375 -4.003906 0.859375 -4.453125 C 1.109375 -4.910156 1.457031 -5.265625 1.90625 -5.515625 C 2.363281 -5.773438 2.890625 -5.90625 3.484375 -5.90625 C 4.066406 -5.90625 4.582031 -5.773438 5.03125 -5.515625 C 5.488281 -5.265625 5.84375 -4.910156 6.09375 -4.453125 C 6.351562 -4.003906 6.484375 -3.484375 6.484375 -2.890625 C 6.484375 -2.304688 6.351562 -1.785156 6.09375 -1.328125 C 5.84375 -0.878906 5.488281 -0.523438 5.03125 -0.265625 C 4.582031 -0.015625 4.066406 0.109375 3.484375 0.109375 Z M 1.21875 -2.890625 C 1.21875 -2.453125 1.3125 -2.0625 1.5 -1.71875 C 1.695312 -1.375 1.960938 -1.101562 2.296875 -0.90625 C 2.640625 -0.71875 3.035156 -0.625 3.484375 -0.625 C 3.929688 -0.625 4.320312 -0.71875 4.65625 -0.90625 C 4.988281 -1.101562 5.25 -1.375 5.4375 -1.71875 C 5.632812 -2.0625 5.734375 -2.453125 5.734375 -2.890625 C 5.734375 -3.347656 5.632812 -3.742188 5.4375 -4.078125 C 5.25 -4.421875 4.988281 -4.6875 4.65625 -4.875 C 4.320312 -5.070312 3.929688 -5.171875 3.484375 -5.171875 C 3.035156 -5.171875 2.640625 -5.070312 2.296875 -4.875 C 1.960938 -4.6875 1.695312 -4.421875 1.5 -4.078125 C 1.3125 -3.742188 1.21875 -3.347656 1.21875 -2.890625 Z M 1.21875 -2.890625 "/></g></g></g><g fill="#fe700f" fill-opacity="1"><g transform="translate(312.519346, 161.613786)"><g><path d="M 2.78125 0.109375 C 2.3125 0.109375 1.90625 0.03125 1.5625 -0.125 C 1.226562 -0.28125 0.96875 -0.5 0.78125 -0.78125 C 0.59375 -1.070312 0.5 -1.40625 0.5 -1.78125 L 1.21875 -1.78125 C 1.226562 -1.40625 1.375 -1.113281 1.65625 -0.90625 C 1.945312 -0.695312 2.320312 -0.59375 2.78125 -0.59375 C 3.1875 -0.59375 3.507812 -0.671875 3.75 -0.828125 C 3.988281 -0.984375 4.109375 -1.207031 4.109375 -1.5 C 4.109375 -1.769531 3.988281 -1.984375 3.75 -2.140625 C 3.519531 -2.304688 3.144531 -2.453125 2.625 -2.578125 C 1.914062 -2.742188 1.394531 -2.960938 1.0625 -3.234375 C 0.726562 -3.503906 0.5625 -3.863281 0.5625 -4.3125 C 0.5625 -4.800781 0.75 -5.1875 1.125 -5.46875 C 1.5 -5.757812 2.003906 -5.90625 2.640625 -5.90625 C 3.285156 -5.90625 3.796875 -5.738281 4.171875 -5.40625 C 4.554688 -5.082031 4.75 -4.640625 4.75 -4.078125 L 4.03125 -4.078125 C 4.03125 -4.429688 3.898438 -4.707031 3.640625 -4.90625 C 3.390625 -5.101562 3.054688 -5.203125 2.640625 -5.203125 C 2.222656 -5.203125 1.894531 -5.117188 1.65625 -4.953125 C 1.425781 -4.796875 1.3125 -4.582031 1.3125 -4.3125 C 1.3125 -4.070312 1.421875 -3.867188 1.640625 -3.703125 C 1.859375 -3.546875 2.25 -3.394531 2.8125 -3.25 C 3.550781 -3.070312 4.078125 -2.84375 4.390625 -2.5625 C 4.703125 -2.289062 4.859375 -1.945312 4.859375 -1.53125 C 4.859375 -1.019531 4.664062 -0.617188 4.28125 -0.328125 C 3.90625 -0.0351562 3.40625 0.109375 2.78125 0.109375 Z M 2.78125 0.109375 "/></g></g></g><g fill="#fe700f" fill-opacity="1"><g transform="translate(320.468988, 161.613786)"><g/></g></g><g fill="#fe700f" fill-opacity="1"><g transform="translate(325.11539, 161.613786)"><g><path d="M 0.359375 0 L 0.359375 -0.703125 L 1.1875 -0.703125 C 1.65625 -0.703125 1.976562 -0.8125 2.15625 -1.03125 C 2.332031 -1.257812 2.421875 -1.566406 2.421875 -1.953125 L 2.421875 -5.796875 L 3.140625 -5.796875 L 3.140625 -1.90625 C 3.140625 -1.332031 2.976562 -0.867188 2.65625 -0.515625 C 2.34375 -0.171875 1.851562 0 1.1875 0 Z M 0.359375 0 "/></g></g></g><g fill="#fe700f" fill-opacity="1"><g transform="translate(331.682479, 161.613786)"><g><path d="M 3.015625 0.09375 C 2.316406 0.09375 1.769531 -0.117188 1.375 -0.546875 C 0.976562 -0.984375 0.78125 -1.585938 0.78125 -2.359375 L 0.78125 -5.796875 L 1.5 -5.796875 L 1.5 -2.40625 C 1.5 -1.820312 1.628906 -1.375 1.890625 -1.0625 C 2.148438 -0.757812 2.523438 -0.609375 3.015625 -0.609375 C 4.023438 -0.609375 4.53125 -1.207031 4.53125 -2.40625 L 4.53125 -5.796875 L 5.265625 -5.796875 L 5.265625 -2.359375 C 5.265625 -1.585938 5.0625 -0.984375 4.65625 -0.546875 C 4.257812 -0.117188 3.710938 0.09375 3.015625 0.09375 Z M 3.015625 0.09375 "/></g></g></g><g fill="#fe700f" fill-opacity="1"><g transform="translate(340.310986, 161.613786)"><g><path d="M 0.84375 0 L 0.84375 -5.796875 L 1.53125 -5.796875 L 4.734375 -1.265625 L 4.734375 -5.796875 L 5.453125 -5.796875 L 5.453125 0 L 4.765625 0 L 1.5625 -4.53125 L 1.5625 0 Z M 0.84375 0 "/></g></g></g><g fill="#fe700f" fill-opacity="1"><g transform="translate(349.196138, 161.613786)"><g><path d="M 2.25 0 L 2.25 -5.09375 L 0.28125 -5.09375 L 0.28125 -5.796875 L 4.921875 -5.796875 L 4.921875 -5.09375 L 2.96875 -5.09375 L 2.96875 0 Z M 2.25 0 "/></g></g></g><g fill="#fe700f" fill-opacity="1"><g transform="translate(357.00504, 161.613786)"><g><path d="M 3.484375 0.109375 C 2.890625 0.109375 2.363281 -0.015625 1.90625 -0.265625 C 1.457031 -0.523438 1.109375 -0.878906 0.859375 -1.328125 C 0.609375 -1.785156 0.484375 -2.304688 0.484375 -2.890625 C 0.484375 -3.484375 0.609375 -4.003906 0.859375 -4.453125 C 1.109375 -4.910156 1.457031 -5.265625 1.90625 -5.515625 C 2.363281 -5.773438 2.890625 -5.90625 3.484375 -5.90625 C 4.066406 -5.90625 4.582031 -5.773438 5.03125 -5.515625 C 5.488281 -5.265625 5.84375 -4.910156 6.09375 -4.453125 C 6.351562 -4.003906 6.484375 -3.484375 6.484375 -2.890625 C 6.484375 -2.304688 6.351562 -1.785156 6.09375 -1.328125 C 5.84375 -0.878906 5.488281 -0.523438 5.03125 -0.265625 C 4.582031 -0.015625 4.066406 0.109375 3.484375 0.109375 Z M 1.21875 -2.890625 C 1.21875 -2.453125 1.3125 -2.0625 1.5 -1.71875 C 1.695312 -1.375 1.960938 -1.101562 2.296875 -0.90625 C 2.640625 -0.71875 3.035156 -0.625 3.484375 -0.625 C 3.929688 -0.625 4.320312 -0.71875 4.65625 -0.90625 C 4.988281 -1.101562 5.25 -1.375 5.4375 -1.71875 C 5.632812 -2.0625 5.734375 -2.453125 5.734375 -2.890625 C 5.734375 -3.347656 5.632812 -3.742188 5.4375 -4.078125 C 5.25 -4.421875 4.988281 -4.6875 4.65625 -4.875 C 4.320312 -5.070312 3.929688 -5.171875 3.484375 -5.171875 C 3.035156 -5.171875 2.640625 -5.070312 2.296875 -4.875 C 1.960938 -4.6875 1.695312 -4.421875 1.5 -4.078125 C 1.3125 -3.742188 1.21875 -3.347656 1.21875 -2.890625 Z M 1.21875 -2.890625 "/></g></g></g><g fill="#fe700f" fill-opacity="1"><g transform="translate(366.552494, 161.613786)"><g><path d="M 2.78125 0.109375 C 2.3125 0.109375 1.90625 0.03125 1.5625 -0.125 C 1.226562 -0.28125 0.96875 -0.5 0.78125 -0.78125 C 0.59375 -1.070312 0.5 -1.40625 0.5 -1.78125 L 1.21875 -1.78125 C 1.226562 -1.40625 1.375 -1.113281 1.65625 -0.90625 C 1.945312 -0.695312 2.320312 -0.59375 2.78125 -0.59375 C 3.1875 -0.59375 3.507812 -0.671875 3.75 -0.828125 C 3.988281 -0.984375 4.109375 -1.207031 4.109375 -1.5 C 4.109375 -1.769531 3.988281 -1.984375 3.75 -2.140625 C 3.519531 -2.304688 3.144531 -2.453125 2.625 -2.578125 C 1.914062 -2.742188 1.394531 -2.960938 1.0625 -3.234375 C 0.726562 -3.503906 0.5625 -3.863281 0.5625 -4.3125 C 0.5625 -4.800781 0.75 -5.1875 1.125 -5.46875 C 1.5 -5.757812 2.003906 -5.90625 2.640625 -5.90625 C 3.285156 -5.90625 3.796875 -5.738281 4.171875 -5.40625 C 4.554688 -5.082031 4.75 -4.640625 4.75 -4.078125 L 4.03125 -4.078125 C 4.03125 -4.429688 3.898438 -4.707031 3.640625 -4.90625 C 3.390625 -5.101562 3.054688 -5.203125 2.640625 -5.203125 C 2.222656 -5.203125 1.894531 -5.117188 1.65625 -4.953125 C 1.425781 -4.796875 1.3125 -4.582031 1.3125 -4.3125 C 1.3125 -4.070312 1.421875 -3.867188 1.640625 -3.703125 C 1.859375 -3.546875 2.25 -3.394531 2.8125 -3.25 C 3.550781 -3.070312 4.078125 -2.84375 4.390625 -2.5625 C 4.703125 -2.289062 4.859375 -1.945312 4.859375 -1.53125 C 4.859375 -1.019531 4.664062 -0.617188 4.28125 -0.328125 C 3.90625 -0.0351562 3.40625 0.109375 2.78125 0.109375 Z M 2.78125 0.109375 "/></g></g></g><g fill="#fe700f" fill-opacity="1"><g transform="translate(374.502136, 161.613786)"><g/></g></g><g fill="#fe700f" fill-opacity="1"><g transform="translate(379.148538, 161.613786)"><g><path d="M 0.140625 0 L 2.53125 -5.796875 L 3.203125 -5.796875 L 5.59375 0 L 4.8125 0 L 4.265625 -1.3125 L 1.453125 -1.3125 L 0.921875 0 Z M 1.734375 -2 L 4 -2 L 2.859375 -4.78125 Z M 1.734375 -2 "/></g></g></g><g fill="#fe700f" fill-opacity="1"><g transform="translate(387.470732, 161.613786)"><g><path d="M 0.84375 0 L 0.84375 -5.796875 L 1.578125 -5.796875 L 1.578125 -0.703125 L 4.390625 -0.703125 L 4.390625 0 Z M 0.84375 0 "/></g></g></g><g fill="#fe700f" fill-opacity="1"><g transform="translate(394.708405, 161.613786)"><g><path d="M 3.421875 0.109375 C 3.003906 0.109375 2.613281 0.0351562 2.25 -0.109375 C 1.894531 -0.265625 1.582031 -0.472656 1.3125 -0.734375 C 1.050781 -1.003906 0.847656 -1.320312 0.703125 -1.6875 C 0.554688 -2.0625 0.484375 -2.460938 0.484375 -2.890625 C 0.484375 -3.328125 0.550781 -3.726562 0.6875 -4.09375 C 0.832031 -4.457031 1.035156 -4.773438 1.296875 -5.046875 C 1.566406 -5.316406 1.878906 -5.523438 2.234375 -5.671875 C 2.597656 -5.828125 2.988281 -5.90625 3.40625 -5.90625 C 3.851562 -5.90625 4.265625 -5.820312 4.640625 -5.65625 C 5.015625 -5.5 5.335938 -5.273438 5.609375 -4.984375 C 5.878906 -4.703125 6.078125 -4.367188 6.203125 -3.984375 L 5.40625 -3.984375 C 5.226562 -4.359375 4.96875 -4.648438 4.625 -4.859375 C 4.28125 -5.066406 3.882812 -5.171875 3.4375 -5.171875 C 3.007812 -5.171875 2.625 -5.070312 2.28125 -4.875 C 1.945312 -4.6875 1.6875 -4.421875 1.5 -4.078125 C 1.3125 -3.734375 1.21875 -3.335938 1.21875 -2.890625 C 1.21875 -2.453125 1.3125 -2.0625 1.5 -1.71875 C 1.695312 -1.375 1.960938 -1.101562 2.296875 -0.90625 C 2.628906 -0.71875 3.007812 -0.625 3.4375 -0.625 C 3.832031 -0.625 4.179688 -0.695312 4.484375 -0.84375 C 4.785156 -1 5.03125 -1.210938 5.21875 -1.484375 C 5.414062 -1.765625 5.539062 -2.085938 5.59375 -2.453125 L 3.234375 -2.453125 L 3.234375 -3.140625 L 6.375 -3.140625 C 6.382812 -2.503906 6.265625 -1.941406 6.015625 -1.453125 C 5.773438 -0.972656 5.429688 -0.59375 4.984375 -0.3125 C 4.546875 -0.03125 4.023438 0.109375 3.421875 0.109375 Z M 3.421875 0.109375 "/></g></g></g><g fill="#fe700f" fill-opacity="1"><g transform="translate(404.131682, 161.613786)"><g><path d="M 3.484375 0.109375 C 2.890625 0.109375 2.363281 -0.015625 1.90625 -0.265625 C 1.457031 -0.523438 1.109375 -0.878906 0.859375 -1.328125 C 0.609375 -1.785156 0.484375 -2.304688 0.484375 -2.890625 C 0.484375 -3.484375 0.609375 -4.003906 0.859375 -4.453125 C 1.109375 -4.910156 1.457031 -5.265625 1.90625 -5.515625 C 2.363281 -5.773438 2.890625 -5.90625 3.484375 -5.90625 C 4.066406 -5.90625 4.582031 -5.773438 5.03125 -5.515625 C 5.488281 -5.265625 5.84375 -4.910156 6.09375 -4.453125 C 6.351562 -4.003906 6.484375 -3.484375 6.484375 -2.890625 C 6.484375 -2.304688 6.351562 -1.785156 6.09375 -1.328125 C 5.84375 -0.878906 5.488281 -0.523438 5.03125 -0.265625 C 4.582031 -0.015625 4.066406 0.109375 3.484375 0.109375 Z M 1.21875 -2.890625 C 1.21875 -2.453125 1.3125 -2.0625 1.5 -1.71875 C 1.695312 -1.375 1.960938 -1.101562 2.296875 -0.90625 C 2.640625 -0.71875 3.035156 -0.625 3.484375 -0.625 C 3.929688 -0.625 4.320312 -0.71875 4.65625 -0.90625 C 4.988281 -1.101562 5.25 -1.375 5.4375 -1.71875 C 5.632812 -2.0625 5.734375 -2.453125 5.734375 -2.890625 C 5.734375 -3.347656 5.632812 -3.742188 5.4375 -4.078125 C 5.25 -4.421875 4.988281 -4.6875 4.65625 -4.875 C 4.320312 -5.070312 3.929688 -5.171875 3.484375 -5.171875 C 3.035156 -5.171875 2.640625 -5.070312 2.296875 -4.875 C 1.960938 -4.6875 1.695312 -4.421875 1.5 -4.078125 C 1.3125 -3.742188 1.21875 -3.347656 1.21875 -2.890625 Z M 1.21875 -2.890625 "/></g></g></g><g fill="#fe700f" fill-opacity="1"><g transform="translate(413.679136, 161.613786)"><g/></g></g><g fill="#fe700f" fill-opacity="1"><g transform="translate(418.325538, 161.613786)"><g><path d="M 0.84375 0 L 0.84375 -5.796875 L 1.578125 -5.796875 L 1.578125 0 Z M 0.84375 0 "/></g></g></g><g fill="#fe700f" fill-opacity="1"><g transform="translate(423.336211, 161.613786)"><g><path d="M 0.84375 0 L 0.84375 -5.796875 L 1.53125 -5.796875 L 4.734375 -1.265625 L 4.734375 -5.796875 L 5.453125 -5.796875 L 5.453125 0 L 4.765625 0 L 1.5625 -4.53125 L 1.5625 0 Z M 0.84375 0 "/></g></g></g><g fill="#fe700f" fill-opacity="1"><g transform="translate(432.221363, 161.613786)"><g><path d="M 3.40625 0.109375 C 2.988281 0.109375 2.597656 0.0351562 2.234375 -0.109375 C 1.878906 -0.265625 1.566406 -0.472656 1.296875 -0.734375 C 1.035156 -1.003906 0.832031 -1.320312 0.6875 -1.6875 C 0.550781 -2.0625 0.484375 -2.460938 0.484375 -2.890625 C 0.484375 -3.328125 0.550781 -3.726562 0.6875 -4.09375 C 0.832031 -4.46875 1.035156 -4.785156 1.296875 -5.046875 C 1.566406 -5.316406 1.878906 -5.523438 2.234375 -5.671875 C 2.597656 -5.828125 2.988281 -5.90625 3.40625 -5.90625 C 3.863281 -5.90625 4.285156 -5.820312 4.671875 -5.65625 C 5.054688 -5.488281 5.382812 -5.25 5.65625 -4.9375 C 5.925781 -4.625 6.128906 -4.253906 6.265625 -3.828125 L 5.484375 -3.828125 C 5.335938 -4.242188 5.078125 -4.570312 4.703125 -4.8125 C 4.335938 -5.050781 3.914062 -5.171875 3.4375 -5.171875 C 3.007812 -5.171875 2.628906 -5.070312 2.296875 -4.875 C 1.960938 -4.6875 1.695312 -4.421875 1.5 -4.078125 C 1.3125 -3.734375 1.21875 -3.335938 1.21875 -2.890625 C 1.21875 -2.453125 1.3125 -2.0625 1.5 -1.71875 C 1.695312 -1.375 1.960938 -1.101562 2.296875 -0.90625 C 2.628906 -0.71875 3.007812 -0.625 3.4375 -0.625 C 3.925781 -0.625 4.359375 -0.75 4.734375 -1 C 5.117188 -1.257812 5.390625 -1.601562 5.546875 -2.03125 L 6.3125 -2.03125 C 6.195312 -1.601562 6 -1.226562 5.71875 -0.90625 C 5.4375 -0.59375 5.097656 -0.34375 4.703125 -0.15625 C 4.304688 0.0195312 3.875 0.109375 3.40625 0.109375 Z M 3.40625 0.109375 "/></g></g></g><g fill="#fe700f" fill-opacity="1"><g transform="translate(441.57013, 161.613786)"><g><path d="M 0.84375 0 L 0.84375 -5.796875 L 3.0625 -5.796875 C 3.457031 -5.796875 3.800781 -5.71875 4.09375 -5.5625 C 4.394531 -5.414062 4.628906 -5.203125 4.796875 -4.921875 C 4.960938 -4.648438 5.046875 -4.320312 5.046875 -3.9375 C 5.046875 -3.46875 4.925781 -3.078125 4.6875 -2.765625 C 4.445312 -2.460938 4.113281 -2.257812 3.6875 -2.15625 L 5.140625 0 L 4.265625 0 L 2.84375 -2.078125 L 1.578125 -2.078125 L 1.578125 0 Z M 1.578125 -2.78125 L 2.96875 -2.78125 C 3.394531 -2.78125 3.722656 -2.878906 3.953125 -3.078125 C 4.191406 -3.273438 4.3125 -3.5625 4.3125 -3.9375 C 4.3125 -4.300781 4.191406 -4.582031 3.953125 -4.78125 C 3.722656 -4.988281 3.394531 -5.09375 2.96875 -5.09375 L 1.578125 -5.09375 Z M 1.578125 -2.78125 "/></g></g></g><g fill="#fe700f" fill-opacity="1"><g transform="translate(449.801261, 161.613786)"><g><path d="M 0.84375 0 L 0.84375 -5.796875 L 4.359375 -5.796875 L 4.359375 -5.125 L 1.578125 -5.125 L 1.578125 -3.28125 L 4.15625 -3.28125 L 4.15625 -2.609375 L 1.578125 -2.609375 L 1.578125 -0.671875 L 4.453125 -0.671875 L 4.453125 0 Z M 0.84375 0 "/></g></g></g><g fill="#fe700f" fill-opacity="1"><g transform="translate(457.386642, 161.613786)"><g><path d="M 0.84375 0 L 0.84375 -5.796875 L 1.578125 -5.796875 L 1.578125 0 Z M 0.84375 0 "/></g></g></g><g fill="#fe700f" fill-opacity="1"><g transform="translate(462.397315, 161.613786)"><g><path d="M 0.84375 0 L 0.84375 -5.796875 L 3.09375 -5.796875 C 3.644531 -5.796875 4.085938 -5.65625 4.421875 -5.375 C 4.753906 -5.09375 4.921875 -4.71875 4.921875 -4.25 C 4.921875 -3.96875 4.851562 -3.71875 4.71875 -3.5 C 4.59375 -3.289062 4.410156 -3.125 4.171875 -3 C 4.472656 -2.882812 4.703125 -2.707031 4.859375 -2.46875 C 5.015625 -2.226562 5.09375 -1.945312 5.09375 -1.625 C 5.09375 -1.125 4.921875 -0.726562 4.578125 -0.4375 C 4.242188 -0.144531 3.785156 0 3.203125 0 Z M 1.578125 -0.671875 L 3.1875 -0.671875 C 3.5625 -0.671875 3.847656 -0.753906 4.046875 -0.921875 C 4.242188 -1.097656 4.34375 -1.34375 4.34375 -1.65625 C 4.34375 -1.96875 4.238281 -2.207031 4.03125 -2.375 C 3.832031 -2.539062 3.546875 -2.625 3.171875 -2.625 L 1.578125 -2.625 Z M 1.578125 -3.28125 L 3.078125 -3.28125 C 3.429688 -3.28125 3.703125 -3.359375 3.890625 -3.515625 C 4.085938 -3.679688 4.1875 -3.910156 4.1875 -4.203125 C 4.1875 -4.492188 4.085938 -4.71875 3.890625 -4.875 C 3.703125 -5.039062 3.429688 -5.125 3.078125 -5.125 L 1.578125 -5.125 Z M 1.578125 -3.28125 "/></g></g></g><g fill="#fe700f" fill-opacity="1"><g transform="translate(470.545655, 161.613786)"><g><path d="M 0.84375 0 L 0.84375 -5.796875 L 1.578125 -5.796875 L 1.578125 -0.703125 L 4.390625 -0.703125 L 4.390625 0 Z M 0.84375 0 "/></g></g></g><g fill="#fe700f" fill-opacity="1"><g transform="translate(477.783328, 161.613786)"><g><path d="M 0.84375 0 L 0.84375 -5.796875 L 4.359375 -5.796875 L 4.359375 -5.125 L 1.578125 -5.125 L 1.578125 -3.28125 L 4.15625 -3.28125 L 4.15625 -2.609375 L 1.578125 -2.609375 L 1.578125 -0.671875 L 4.453125 -0.671875 L 4.453125 0 Z M 0.84375 0 "/></g></g></g><g fill="#fe700f" fill-opacity="1"><g transform="translate(485.368709, 161.613786)"><g><path d="M 1.0625 0.0625 C 0.894531 0.0625 0.757812 0.0078125 0.65625 -0.09375 C 0.550781 -0.195312 0.5 -0.328125 0.5 -0.484375 C 0.5 -0.640625 0.550781 -0.765625 0.65625 -0.859375 C 0.757812 -0.960938 0.894531 -1.015625 1.0625 -1.015625 C 1.226562 -1.015625 1.363281 -0.960938 1.46875 -0.859375 C 1.570312 -0.765625 1.625 -0.640625 1.625 -0.484375 C 1.625 -0.328125 1.570312 -0.195312 1.46875 -0.09375 C 1.363281 0.0078125 1.226562 0.0625 1.0625 0.0625 Z M 1.0625 0.0625 "/></g></g></g><g fill="#fe700f" fill-opacity="1"><g transform="translate(490.089632, 161.613786)"><g/></g></g><g fill="#fe700f" fill-opacity="1"><g transform="translate(494.736034, 161.613786)"><g><path d="M 0.84375 0 L 0.84375 -5.796875 L 2.84375 -5.796875 C 3.445312 -5.796875 3.96875 -5.671875 4.40625 -5.421875 C 4.851562 -5.179688 5.203125 -4.84375 5.453125 -4.40625 C 5.703125 -3.976562 5.828125 -3.472656 5.828125 -2.890625 C 5.828125 -2.328125 5.703125 -1.828125 5.453125 -1.390625 C 5.203125 -0.953125 4.851562 -0.609375 4.40625 -0.359375 C 3.96875 -0.117188 3.445312 0 2.84375 0 Z M 1.578125 -0.703125 L 2.84375 -0.703125 C 3.289062 -0.703125 3.679688 -0.789062 4.015625 -0.96875 C 4.347656 -1.15625 4.609375 -1.414062 4.796875 -1.75 C 4.984375 -2.082031 5.078125 -2.460938 5.078125 -2.890625 C 5.078125 -3.335938 4.976562 -3.722656 4.78125 -4.046875 C 4.59375 -4.378906 4.332031 -4.632812 4 -4.8125 C 3.664062 -5 3.269531 -5.09375 2.8125 -5.09375 L 1.578125 -5.09375 Z M 1.578125 -0.703125 "/></g></g></g><g fill="#fe700f" fill-opacity="1"><g transform="translate(503.629477, 161.613786)"><g><path d="M 0.84375 0 L 0.84375 -5.796875 L 4.359375 -5.796875 L 4.359375 -5.125 L 1.578125 -5.125 L 1.578125 -3.28125 L 4.15625 -3.28125 L 4.15625 -2.609375 L 1.578125 -2.609375 L 1.578125 -0.671875 L 4.453125 -0.671875 L 4.453125 0 Z M 0.84375 0 "/></g></g></g><g fill="#fe700f" fill-opacity="1"><g transform="translate(511.214859, 161.613786)"><g><path d="M 2.78125 0.109375 C 2.3125 0.109375 1.90625 0.03125 1.5625 -0.125 C 1.226562 -0.28125 0.96875 -0.5 0.78125 -0.78125 C 0.59375 -1.070312 0.5 -1.40625 0.5 -1.78125 L 1.21875 -1.78125 C 1.226562 -1.40625 1.375 -1.113281 1.65625 -0.90625 C 1.945312 -0.695312 2.320312 -0.59375 2.78125 -0.59375 C 3.1875 -0.59375 3.507812 -0.671875 3.75 -0.828125 C 3.988281 -0.984375 4.109375 -1.207031 4.109375 -1.5 C 4.109375 -1.769531 3.988281 -1.984375 3.75 -2.140625 C 3.519531 -2.304688 3.144531 -2.453125 2.625 -2.578125 C 1.914062 -2.742188 1.394531 -2.960938 1.0625 -3.234375 C 0.726562 -3.503906 0.5625 -3.863281 0.5625 -4.3125 C 0.5625 -4.800781 0.75 -5.1875 1.125 -5.46875 C 1.5 -5.757812 2.003906 -5.90625 2.640625 -5.90625 C 3.285156 -5.90625 3.796875 -5.738281 4.171875 -5.40625 C 4.554688 -5.082031 4.75 -4.640625 4.75 -4.078125 L 4.03125 -4.078125 C 4.03125 -4.429688 3.898438 -4.707031 3.640625 -4.90625 C 3.390625 -5.101562 3.054688 -5.203125 2.640625 -5.203125 C 2.222656 -5.203125 1.894531 -5.117188 1.65625 -4.953125 C 1.425781 -4.796875 1.3125 -4.582031 1.3125 -4.3125 C 1.3125 -4.070312 1.421875 -3.867188 1.640625 -3.703125 C 1.859375 -3.546875 2.25 -3.394531 2.8125 -3.25 C 3.550781 -3.070312 4.078125 -2.84375 4.390625 -2.5625 C 4.703125 -2.289062 4.859375 -1.945312 4.859375 -1.53125 C 4.859375 -1.019531 4.664062 -0.617188 4.28125 -0.328125 C 3.90625 -0.0351562 3.40625 0.109375 2.78125 0.109375 Z M 2.78125 0.109375 "/></g></g></g><g fill="#fe700f" fill-opacity="1"><g transform="translate(519.164511, 161.613786)"><g><path d="M 3.40625 0.109375 C 2.988281 0.109375 2.597656 0.0351562 2.234375 -0.109375 C 1.878906 -0.265625 1.566406 -0.472656 1.296875 -0.734375 C 1.035156 -1.003906 0.832031 -1.320312 0.6875 -1.6875 C 0.550781 -2.0625 0.484375 -2.460938 0.484375 -2.890625 C 0.484375 -3.328125 0.550781 -3.726562 0.6875 -4.09375 C 0.832031 -4.46875 1.035156 -4.785156 1.296875 -5.046875 C 1.566406 -5.316406 1.878906 -5.523438 2.234375 -5.671875 C 2.597656 -5.828125 2.988281 -5.90625 3.40625 -5.90625 C 3.863281 -5.90625 4.285156 -5.820312 4.671875 -5.65625 C 5.054688 -5.488281 5.382812 -5.25 5.65625 -4.9375 C 5.925781 -4.625 6.128906 -4.253906 6.265625 -3.828125 L 5.484375 -3.828125 C 5.335938 -4.242188 5.078125 -4.570312 4.703125 -4.8125 C 4.335938 -5.050781 3.914062 -5.171875 3.4375 -5.171875 C 3.007812 -5.171875 2.628906 -5.070312 2.296875 -4.875 C 1.960938 -4.6875 1.695312 -4.421875 1.5 -4.078125 C 1.3125 -3.734375 1.21875 -3.335938 1.21875 -2.890625 C 1.21875 -2.453125 1.3125 -2.0625 1.5 -1.71875 C 1.695312 -1.375 1.960938 -1.101562 2.296875 -0.90625 C 2.628906 -0.71875 3.007812 -0.625 3.4375 -0.625 C 3.925781 -0.625 4.359375 -0.75 4.734375 -1 C 5.117188 -1.257812 5.390625 -1.601562 5.546875 -2.03125 L 6.3125 -2.03125 C 6.195312 -1.601562 6 -1.226562 5.71875 -0.90625 C 5.4375 -0.59375 5.097656 -0.34375 4.703125 -0.15625 C 4.304688 0.0195312 3.875 0.109375 3.40625 0.109375 Z M 3.40625 0.109375 "/></g></g></g><g fill="#fe700f" fill-opacity="1"><g transform="translate(528.513288, 161.613786)"><g><path d="M 3.015625 0.09375 C 2.316406 0.09375 1.769531 -0.117188 1.375 -0.546875 C 0.976562 -0.984375 0.78125 -1.585938 0.78125 -2.359375 L 0.78125 -5.796875 L 1.5 -5.796875 L 1.5 -2.40625 C 1.5 -1.820312 1.628906 -1.375 1.890625 -1.0625 C 2.148438 -0.757812 2.523438 -0.609375 3.015625 -0.609375 C 4.023438 -0.609375 4.53125 -1.207031 4.53125 -2.40625 L 4.53125 -5.796875 L 5.265625 -5.796875 L 5.265625 -2.359375 C 5.265625 -1.585938 5.0625 -0.984375 4.65625 -0.546875 C 4.257812 -0.117188 3.710938 0.09375 3.015625 0.09375 Z M 3.015625 0.09375 "/></g></g></g><g fill="#fe700f" fill-opacity="1"><g transform="translate(537.141794, 161.613786)"><g><path d="M 0.84375 0 L 0.84375 -5.796875 L 3.09375 -5.796875 C 3.644531 -5.796875 4.085938 -5.65625 4.421875 -5.375 C 4.753906 -5.09375 4.921875 -4.71875 4.921875 -4.25 C 4.921875 -3.96875 4.851562 -3.71875 4.71875 -3.5 C 4.59375 -3.289062 4.410156 -3.125 4.171875 -3 C 4.472656 -2.882812 4.703125 -2.707031 4.859375 -2.46875 C 5.015625 -2.226562 5.09375 -1.945312 5.09375 -1.625 C 5.09375 -1.125 4.921875 -0.726562 4.578125 -0.4375 C 4.242188 -0.144531 3.785156 0 3.203125 0 Z M 1.578125 -0.671875 L 3.1875 -0.671875 C 3.5625 -0.671875 3.847656 -0.753906 4.046875 -0.921875 C 4.242188 -1.097656 4.34375 -1.34375 4.34375 -1.65625 C 4.34375 -1.96875 4.238281 -2.207031 4.03125 -2.375 C 3.832031 -2.539062 3.546875 -2.625 3.171875 -2.625 L 1.578125 -2.625 Z M 1.578125 -3.28125 L 3.078125 -3.28125 C 3.429688 -3.28125 3.703125 -3.359375 3.890625 -3.515625 C 4.085938 -3.679688 4.1875 -3.910156 4.1875 -4.203125 C 4.1875 -4.492188 4.085938 -4.71875 3.890625 -4.875 C 3.703125 -5.039062 3.429688 -5.125 3.078125 -5.125 L 1.578125 -5.125 Z M 1.578125 -3.28125 "/></g></g></g><g fill="#fe700f" fill-opacity="1"><g transform="translate(545.290134, 161.613786)"><g><path d="M 0.84375 0 L 0.84375 -5.796875 L 3.0625 -5.796875 C 3.457031 -5.796875 3.800781 -5.71875 4.09375 -5.5625 C 4.394531 -5.414062 4.628906 -5.203125 4.796875 -4.921875 C 4.960938 -4.648438 5.046875 -4.320312 5.046875 -3.9375 C 5.046875 -3.46875 4.925781 -3.078125 4.6875 -2.765625 C 4.445312 -2.460938 4.113281 -2.257812 3.6875 -2.15625 L 5.140625 0 L 4.265625 0 L 2.84375 -2.078125 L 1.578125 -2.078125 L 1.578125 0 Z M 1.578125 -2.78125 L 2.96875 -2.78125 C 3.394531 -2.78125 3.722656 -2.878906 3.953125 -3.078125 C 4.191406 -3.273438 4.3125 -3.5625 4.3125 -3.9375 C 4.3125 -4.300781 4.191406 -4.582031 3.953125 -4.78125 C 3.722656 -4.988281 3.394531 -5.09375 2.96875 -5.09375 L 1.578125 -5.09375 Z M 1.578125 -2.78125 "/></g></g></g><g fill="#fe700f" fill-opacity="1"><g transform="translate(553.521265, 161.613786)"><g><path d="M 0.84375 0 L 0.84375 -5.796875 L 4.359375 -5.796875 L 4.359375 -5.125 L 1.578125 -5.125 L 1.578125 -3.28125 L 4.15625 -3.28125 L 4.15625 -2.609375 L 1.578125 -2.609375 L 1.578125 -0.671875 L 4.453125 -0.671875 L 4.453125 0 Z M 0.84375 0 "/></g></g></g><g fill="#fe700f" fill-opacity="1"><g transform="translate(561.106647, 161.613786)"><g/></g></g><g fill="#fe700f" fill-opacity="1"><g transform="translate(565.753048, 161.613786)"><g><path d="M 0.84375 0 L 0.84375 -5.796875 L 1.53125 -5.796875 L 3.796875 -2.359375 L 6.0625 -5.796875 L 6.734375 -5.796875 L 6.734375 0 L 6.015625 0 L 6.015625 -4.4375 L 4.09375 -1.546875 L 3.5 -1.546875 L 1.578125 -4.4375 L 1.578125 0 Z M 0.84375 0 "/></g></g></g><g fill="#fe700f" fill-opacity="1"><g transform="translate(575.929701, 161.613786)"><g><path d="M 0.84375 0 L 0.84375 -5.796875 L 1.578125 -5.796875 L 1.578125 0 Z M 0.84375 0 "/></g></g></g><g fill="#fe700f" fill-opacity="1"><g transform="translate(580.940374, 161.613786)"><g/></g></g><g fill="#fe700f" fill-opacity="1"><g transform="translate(585.586775, 161.613786)"><g><path d="M 2.25 0 L 2.25 -5.09375 L 0.28125 -5.09375 L 0.28125 -5.796875 L 4.921875 -5.796875 L 4.921875 -5.09375 L 2.96875 -5.09375 L 2.96875 0 Z M 2.25 0 "/></g></g></g><g fill="#fe700f" fill-opacity="1"><g transform="translate(593.395678, 161.613786)"><g><path d="M 0.84375 0 L 0.84375 -5.796875 L 3.0625 -5.796875 C 3.457031 -5.796875 3.800781 -5.71875 4.09375 -5.5625 C 4.394531 -5.414062 4.628906 -5.203125 4.796875 -4.921875 C 4.960938 -4.648438 5.046875 -4.320312 5.046875 -3.9375 C 5.046875 -3.46875 4.925781 -3.078125 4.6875 -2.765625 C 4.445312 -2.460938 4.113281 -2.257812 3.6875 -2.15625 L 5.140625 0 L 4.265625 0 L 2.84375 -2.078125 L 1.578125 -2.078125 L 1.578125 0 Z M 1.578125 -2.78125 L 2.96875 -2.78125 C 3.394531 -2.78125 3.722656 -2.878906 3.953125 -3.078125 C 4.191406 -3.273438 4.3125 -3.5625 4.3125 -3.9375 C 4.3125 -4.300781 4.191406 -4.582031 3.953125 -4.78125 C 3.722656 -4.988281 3.394531 -5.09375 2.96875 -5.09375 L 1.578125 -5.09375 Z M 1.578125 -2.78125 "/></g></g></g><g fill="#fe700f" fill-opacity="1"><g transform="translate(601.626809, 161.613786)"><g><path d="M 0.140625 0 L 2.53125 -5.796875 L 3.203125 -5.796875 L 5.59375 0 L 4.8125 0 L 4.265625 -1.3125 L 1.453125 -1.3125 L 0.921875 0 Z M 1.734375 -2 L 4 -2 L 2.859375 -4.78125 Z M 1.734375 -2 "/></g></g></g><g fill="#fe700f" fill-opacity="1"><g transform="translate(609.949003, 161.613786)"><g><path d="M 0.84375 0 L 0.84375 -5.796875 L 3.09375 -5.796875 C 3.644531 -5.796875 4.085938 -5.65625 4.421875 -5.375 C 4.753906 -5.09375 4.921875 -4.71875 4.921875 -4.25 C 4.921875 -3.96875 4.851562 -3.71875 4.71875 -3.5 C 4.59375 -3.289062 4.410156 -3.125 4.171875 -3 C 4.472656 -2.882812 4.703125 -2.707031 4.859375 -2.46875 C 5.015625 -2.226562 5.09375 -1.945312 5.09375 -1.625 C 5.09375 -1.125 4.921875 -0.726562 4.578125 -0.4375 C 4.242188 -0.144531 3.785156 0 3.203125 0 Z M 1.578125 -0.671875 L 3.1875 -0.671875 C 3.5625 -0.671875 3.847656 -0.753906 4.046875 -0.921875 C 4.242188 -1.097656 4.34375 -1.34375 4.34375 -1.65625 C 4.34375 -1.96875 4.238281 -2.207031 4.03125 -2.375 C 3.832031 -2.539062 3.546875 -2.625 3.171875 -2.625 L 1.578125 -2.625 Z M 1.578125 -3.28125 L 3.078125 -3.28125 C 3.429688 -3.28125 3.703125 -3.359375 3.890625 -3.515625 C 4.085938 -3.679688 4.1875 -3.910156 4.1875 -4.203125 C 4.1875 -4.492188 4.085938 -4.71875 3.890625 -4.875 C 3.703125 -5.039062 3.429688 -5.125 3.078125 -5.125 L 1.578125 -5.125 Z M 1.578125 -3.28125 "/></g></g></g><g fill="#fe700f" fill-opacity="1"><g transform="translate(618.097363, 161.613786)"><g><path d="M 0.140625 0 L 2.53125 -5.796875 L 3.203125 -5.796875 L 5.59375 0 L 4.8125 0 L 4.265625 -1.3125 L 1.453125 -1.3125 L 0.921875 0 Z M 1.734375 -2 L 4 -2 L 2.859375 -4.78125 Z M 1.734375 -2 "/></g></g></g><g fill="#fe700f" fill-opacity="1"><g transform="translate(626.419578, 161.613786)"><g><path d="M 0.359375 0 L 0.359375 -0.703125 L 1.1875 -0.703125 C 1.65625 -0.703125 1.976562 -0.8125 2.15625 -1.03125 C 2.332031 -1.257812 2.421875 -1.566406 2.421875 -1.953125 L 2.421875 -5.796875 L 3.140625 -5.796875 L 3.140625 -1.90625 C 3.140625 -1.332031 2.976562 -0.867188 2.65625 -0.515625 C 2.34375 -0.171875 1.851562 0 1.1875 0 Z M 0.359375 0 "/></g></g></g><g fill="#fe700f" fill-opacity="1"><g transform="translate(632.986667, 161.613786)"><g><path d="M 3.484375 0.109375 C 2.890625 0.109375 2.363281 -0.015625 1.90625 -0.265625 C 1.457031 -0.523438 1.109375 -0.878906 0.859375 -1.328125 C 0.609375 -1.785156 0.484375 -2.304688 0.484375 -2.890625 C 0.484375 -3.484375 0.609375 -4.003906 0.859375 -4.453125 C 1.109375 -4.910156 1.457031 -5.265625 1.90625 -5.515625 C 2.363281 -5.773438 2.890625 -5.90625 3.484375 -5.90625 C 4.066406 -5.90625 4.582031 -5.773438 5.03125 -5.515625 C 5.488281 -5.265625 5.84375 -4.910156 6.09375 -4.453125 C 6.351562 -4.003906 6.484375 -3.484375 6.484375 -2.890625 C 6.484375 -2.304688 6.351562 -1.785156 6.09375 -1.328125 C 5.84375 -0.878906 5.488281 -0.523438 5.03125 -0.265625 C 4.582031 -0.015625 4.066406 0.109375 3.484375 0.109375 Z M 1.21875 -2.890625 C 1.21875 -2.453125 1.3125 -2.0625 1.5 -1.71875 C 1.695312 -1.375 1.960938 -1.101562 2.296875 -0.90625 C 2.640625 -0.71875 3.035156 -0.625 3.484375 -0.625 C 3.929688 -0.625 4.320312 -0.71875 4.65625 -0.90625 C 4.988281 -1.101562 5.25 -1.375 5.4375 -1.71875 C 5.632812 -2.0625 5.734375 -2.453125 5.734375 -2.890625 C 5.734375 -3.347656 5.632812 -3.742188 5.4375 -4.078125 C 5.25 -4.421875 4.988281 -4.6875 4.65625 -4.875 C 4.320312 -5.070312 3.929688 -5.171875 3.484375 -5.171875 C 3.035156 -5.171875 2.640625 -5.070312 2.296875 -4.875 C 1.960938 -4.6875 1.695312 -4.421875 1.5 -4.078125 C 1.3125 -3.742188 1.21875 -3.347656 1.21875 -2.890625 Z M 1.21875 -2.890625 "/></g></g></g><g clip-path="url(#dec5d9e1bd)"><path fill="#461220" d="M 924.109375 193.101562 C 924.109375 188.773438 920.539062 185.285156 916.210938 185.40625 C 846.179688 187.414062 843.550781 216.085938 768.445312 216.085938 C 690.613281 216.085938 690.613281 185.296875 612.78125 185.296875 C 534.949219 185.296875 534.949219 216.085938 457.117188 216.085938 C 379.289062 216.085938 379.289062 185.296875 301.460938 185.296875 C 223.628906 185.296875 223.628906 216.085938 145.800781 216.085938 C 70.695312 216.085938 68.066406 187.414062 -1.964844 185.40625 C -6.289062 185.285156 -9.859375 188.773438 -9.859375 193.101562 L -9.859375 336.683594 C -9.859375 340.933594 -6.410156 344.378906 -2.160156 344.378906 L 916.410156 344.378906 C 920.660156 344.378906 924.109375 340.933594 924.109375 336.683594 Z M 924.109375 193.101562 " fill-opacity="1" fill-rule="nonzero"/></g></svg>