<svg xmlns="http://www.w3.org/2000/svg" xmlns:xlink="http://www.w3.org/1999/xlink" width="70" zoomAndPan="magnify" viewBox="0 0 52.5 52.499999" height="70" preserveAspectRatio="xMidYMid meet" version="1.0"><path fill="#fed0bb" d="M 49.109375 27.507812 C 48.785156 27.113281 48.203125 26.925781 47.636719 27.035156 C 47.007812 27.15625 46.507812 27.605469 46.292969 28.261719 C 46.285156 28.292969 46.09375 29.023438 45.871094 30.53125 C 45.851562 30.617188 45.828125 30.695312 45.796875 30.769531 C 45.726562 30.730469 45.644531 30.648438 45.601562 30.464844 L 45.835938 27.0625 C 51.933594 17.933594 49.40625 9.230469 43.734375 5.335938 C 39.078125 2.140625 31.738281 2.039062 26.507812 9.269531 C 26.332031 9.207031 26.152344 9.167969 25.972656 9.167969 C 25.8125 9.167969 25.660156 9.199219 25.515625 9.246094 C 20.28125 2.035156 12.949219 2.144531 8.296875 5.34375 C 2.632812 9.238281 0.105469 17.941406 6.203125 27.0625 L 6.433594 30.46875 C 6.394531 30.644531 6.316406 30.730469 6.238281 30.769531 C 6.210938 30.699219 6.1875 30.628906 6.171875 30.546875 C 5.945312 29.023438 5.75 28.292969 5.738281 28.238281 C 5.527344 27.605469 5.03125 27.15625 4.402344 27.035156 C 3.832031 26.925781 3.253906 27.113281 2.925781 27.507812 C 2.621094 27.875 2.566406 28.367188 2.773438 28.898438 C 3.351562 30.304688 3.492188 31.703125 3.617188 32.9375 C 3.816406 34.945312 3.996094 36.734375 6.109375 37.324219 L 6.152344 49.605469 C 6.152344 49.808594 6.320312 49.976562 6.523438 49.976562 C 6.730469 49.972656 6.894531 49.808594 6.894531 49.601562 L 6.851562 37.464844 C 7.15625 37.503906 7.484375 37.53125 7.851562 37.53125 C 7.988281 37.53125 8.125 37.527344 8.269531 37.523438 C 8.472656 37.515625 8.632812 37.34375 8.625 37.136719 C 8.617188 36.933594 8.449219 36.769531 8.238281 36.78125 C 4.757812 36.90625 4.605469 35.390625 4.355469 32.863281 C 4.226562 31.578125 4.082031 30.121094 3.460938 28.621094 C 3.355469 28.351562 3.367188 28.136719 3.496094 27.980469 C 3.652344 27.792969 3.960938 27.707031 4.261719 27.765625 C 4.476562 27.804688 4.863281 27.953125 5.027344 28.449219 C 5.027344 28.457031 5.21875 29.183594 5.4375 30.671875 C 5.59375 31.488281 6.105469 31.828125 6.558594 32.128906 C 7.121094 32.5 7.566406 32.792969 7.453125 34.058594 C 7.433594 34.265625 7.582031 34.445312 7.789062 34.464844 C 7.992188 34.484375 8.171875 34.332031 8.191406 34.125 C 8.34375 32.421875 7.582031 31.914062 6.96875 31.507812 C 6.878906 31.449219 6.792969 31.394531 6.714844 31.335938 C 6.921875 31.183594 7.101562 30.9375 7.171875 30.558594 C 7.175781 30.527344 7.179688 30.496094 7.175781 30.464844 L 6.578125 21.726562 C 6.558594 21.484375 6.613281 21.300781 6.734375 21.21875 C 6.835938 21.148438 6.996094 21.148438 7.144531 21.21875 C 7.421875 21.351562 7.605469 21.671875 7.636719 22.082031 L 8.105469 26.964844 C 7.953125 27.015625 7.851562 27.160156 7.859375 27.328125 C 7.871094 27.53125 8.050781 27.6875 8.25 27.675781 C 8.289062 27.671875 12.25 27.472656 14.101562 29.359375 C 14.171875 29.429688 14.269531 29.46875 14.363281 29.46875 C 14.460938 29.46875 14.554688 29.433594 14.625 29.363281 C 14.769531 29.21875 14.773438 28.984375 14.628906 28.835938 C 14.488281 28.695312 14.335938 28.5625 14.179688 28.4375 C 14.210938 28.390625 14.238281 28.339844 14.257812 28.28125 C 14.265625 28.257812 14.273438 28.234375 14.277344 28.210938 L 14.859375 24.417969 C 14.914062 24.160156 15.058594 24.023438 15.242188 24.054688 C 15.425781 24.085938 15.605469 24.289062 15.554688 24.683594 L 15.066406 33.933594 C 15.066406 33.949219 15.027344 35.371094 14.0625 36.183594 C 13.464844 36.683594 12.621094 36.855469 11.558594 36.6875 C 11.359375 36.65625 11.167969 36.792969 11.136719 36.996094 C 11.105469 37.199219 11.242188 37.390625 11.445312 37.421875 C 11.746094 37.46875 12.035156 37.492188 12.3125 37.492188 C 12.699219 37.492188 13.054688 37.441406 13.386719 37.351562 L 13.550781 49.609375 C 13.550781 49.8125 13.71875 49.972656 13.921875 49.972656 C 13.921875 49.972656 13.921875 49.972656 13.925781 49.972656 C 14.128906 49.972656 14.292969 49.804688 14.292969 49.597656 L 14.125 37.039062 C 14.269531 36.953125 14.410156 36.859375 14.539062 36.75 C 14.777344 36.550781 14.972656 36.320312 15.128906 36.085938 C 16.839844 37.355469 18.738281 38.601562 20.789062 39.800781 L 20.824219 49.605469 C 20.824219 49.808594 20.988281 49.972656 21.195312 49.972656 C 21.398438 49.972656 21.566406 49.804688 21.566406 49.601562 L 21.511719 33.316406 C 21.9375 33.378906 22.40625 33.410156 22.9375 33.410156 C 23.105469 33.410156 23.285156 33.410156 23.464844 33.402344 C 23.671875 33.394531 23.828125 33.222656 23.820312 33.019531 C 23.8125 32.8125 23.640625 32.636719 23.4375 32.660156 C 18.785156 32.828125 18.589844 30.84375 18.253906 27.546875 C 18.089844 25.90625 17.898438 24.046875 17.097656 22.140625 C 16.992188 21.882812 16.917969 21.511719 17.15625 21.226562 C 17.378906 20.949219 17.828125 20.820312 18.269531 20.902344 C 18.785156 21 19.183594 21.355469 19.351562 21.859375 C 19.355469 21.867188 19.601562 22.792969 19.890625 24.710938 C 19.960938 25.058594 20.085938 25.335938 20.238281 25.566406 C 20.242188 25.570312 20.242188 25.574219 20.246094 25.578125 C 20.539062 26.003906 20.9375 26.269531 21.308594 26.507812 C 22.039062 26.984375 22.671875 27.398438 22.519531 29.078125 C 22.5 29.285156 22.648438 29.464844 22.851562 29.484375 C 23.054688 29.5 23.238281 29.351562 23.257812 29.148438 C 23.453125 27.019531 22.488281 26.390625 21.710938 25.886719 C 21.546875 25.78125 21.398438 25.679688 21.261719 25.574219 C 21.5625 25.40625 21.832031 25.09375 21.929688 24.566406 C 21.933594 24.542969 21.9375 24.519531 21.9375 24.496094 L 21.820312 13.371094 C 21.820312 13.101562 21.890625 12.882812 22.027344 12.742188 C 22.140625 12.628906 22.296875 12.566406 22.472656 12.566406 C 22.933594 12.566406 23.421875 12.976562 23.421875 13.742188 L 23.421875 20.046875 C 23.414062 20.046875 23.402344 20.046875 23.398438 20.046875 C 23.195312 20.058594 23.039062 20.234375 23.050781 20.441406 C 23.0625 20.644531 23.242188 20.796875 23.441406 20.789062 C 23.492188 20.789062 28.710938 20.527344 31.15625 22.976562 C 31.230469 23.046875 31.324219 23.085938 31.417969 23.085938 C 31.515625 23.085938 31.609375 23.046875 31.679688 22.976562 C 31.828125 22.832031 31.828125 22.597656 31.679688 22.453125 C 31.59375 22.363281 31.503906 22.28125 31.410156 22.199219 L 32 16.519531 C 32.054688 16 32.382812 15.707031 32.632812 15.707031 C 32.90625 15.71875 33.179688 16.113281 33.183594 16.941406 L 32.445312 28.914062 C 32.445312 28.929688 32.390625 30.789062 31.117188 31.855469 C 30.308594 32.53125 29.175781 32.761719 27.742188 32.542969 C 27.539062 32.511719 27.351562 32.648438 27.320312 32.851562 C 27.289062 33.054688 27.425781 33.246094 27.628906 33.277344 C 28.019531 33.335938 28.390625 33.363281 28.742188 33.363281 C 29.292969 33.363281 29.796875 33.289062 30.253906 33.148438 L 30.46875 49.609375 C 30.472656 49.8125 30.636719 49.976562 30.839844 49.976562 C 30.839844 49.976562 30.84375 49.976562 30.84375 49.976562 C 31.050781 49.972656 31.214844 49.804688 31.210938 49.597656 L 31.085938 39.898438 C 33.1875 38.675781 35.144531 37.394531 36.90625 36.085938 C 37.0625 36.324219 37.257812 36.550781 37.496094 36.753906 C 37.625 36.863281 37.765625 36.957031 37.910156 37.039062 L 37.742188 49.597656 C 37.742188 49.804688 37.90625 49.972656 38.109375 49.976562 C 38.109375 49.976562 38.113281 49.976562 38.113281 49.976562 C 38.316406 49.976562 38.484375 49.8125 38.484375 49.609375 L 38.648438 37.351562 C 38.976562 37.445312 39.335938 37.492188 39.722656 37.492188 C 40 37.492188 40.289062 37.46875 40.589844 37.421875 C 40.792969 37.390625 40.929688 37.199219 40.898438 37 C 40.867188 36.796875 40.679688 36.660156 40.476562 36.6875 C 39.414062 36.855469 38.574219 36.6875 37.980469 36.1875 C 37.011719 35.382812 36.96875 33.949219 36.96875 33.921875 L 36.480469 24.65625 C 36.429688 24.289062 36.609375 24.085938 36.792969 24.054688 C 36.976562 24.023438 37.121094 24.160156 37.171875 24.394531 L 37.757812 28.210938 C 37.761719 28.234375 37.769531 28.257812 37.777344 28.28125 C 37.796875 28.339844 37.824219 28.390625 37.855469 28.4375 C 37.699219 28.5625 37.546875 28.695312 37.40625 28.835938 C 37.261719 28.984375 37.265625 29.21875 37.410156 29.363281 C 37.480469 29.433594 37.578125 29.46875 37.671875 29.46875 C 37.765625 29.46875 37.863281 29.433594 37.933594 29.359375 C 39.785156 27.476562 43.746094 27.675781 43.785156 27.675781 C 43.988281 27.6875 44.164062 27.53125 44.175781 27.328125 C 44.1875 27.160156 44.082031 27.019531 43.929688 26.964844 L 44.398438 22.078125 C 44.429688 21.671875 44.613281 21.351562 44.890625 21.21875 C 45.039062 21.148438 45.199219 21.148438 45.304688 21.21875 C 45.421875 21.300781 45.476562 21.484375 45.457031 21.734375 L 44.859375 30.464844 C 44.855469 30.496094 44.859375 30.527344 44.863281 30.558594 C 44.933594 30.9375 45.113281 31.183594 45.320312 31.335938 C 45.242188 31.394531 45.15625 31.449219 45.066406 31.507812 C 44.453125 31.914062 43.691406 32.421875 43.84375 34.128906 C 43.863281 34.332031 44.042969 34.488281 44.25 34.464844 C 44.453125 34.445312 44.601562 34.265625 44.585938 34.058594 C 44.46875 32.792969 44.914062 32.5 45.476562 32.128906 C 45.765625 31.9375 46.078125 31.726562 46.308594 31.382812 C 46.3125 31.378906 46.316406 31.371094 46.316406 31.367188 C 46.441406 31.179688 46.542969 30.949219 46.601562 30.65625 C 46.816406 29.195312 47.003906 28.472656 47.003906 28.472656 C 47.175781 27.953125 47.558594 27.804688 47.773438 27.765625 C 48.074219 27.707031 48.382812 27.792969 48.539062 27.980469 C 48.667969 28.136719 48.679688 28.351562 48.578125 28.617188 C 47.957031 30.121094 47.808594 31.578125 47.683594 32.863281 C 47.429688 35.390625 47.277344 36.90625 43.796875 36.78125 C 43.585938 36.769531 43.417969 36.933594 43.410156 37.136719 C 43.402344 37.34375 43.5625 37.515625 43.765625 37.523438 C 43.910156 37.527344 44.046875 37.53125 44.183594 37.53125 C 44.550781 37.53125 44.878906 37.503906 45.183594 37.464844 L 45.140625 49.601562 C 45.140625 49.808594 45.304688 49.976562 45.511719 49.976562 C 45.71875 49.976562 45.882812 49.808594 45.882812 49.605469 L 45.925781 37.324219 C 48.039062 36.734375 48.21875 34.945312 48.417969 32.9375 C 48.542969 31.703125 48.683594 30.304688 49.265625 28.890625 C 49.472656 28.367188 49.417969 27.875 49.109375 27.507812 Z M 26.40625 10.035156 C 26.410156 10.039062 26.410156 10.039062 26.410156 10.042969 C 26.414062 10.042969 26.421875 10.042969 26.425781 10.046875 C 26.695312 10.21875 26.898438 10.554688 26.898438 11.042969 C 26.878906 12.003906 26.820312 13.488281 26.757812 15.058594 C 26.683594 16.960938 26.605469 18.917969 26.582031 20.234375 C 26.15625 20.167969 25.75 20.121094 25.375 20.09375 C 25.320312 18.089844 25.28125 13.011719 25.277344 10.761719 C 25.277344 10.476562 25.355469 10.25 25.5 10.101562 C 25.527344 10.074219 25.558594 10.046875 25.589844 10.027344 C 25.597656 10.023438 25.605469 10.019531 25.609375 10.015625 C 25.613281 10.015625 25.617188 10.011719 25.617188 10.007812 C 25.722656 9.945312 25.84375 9.910156 25.972656 9.910156 C 26.125 9.910156 26.273438 9.957031 26.40625 10.035156 Z M 9.53125 21.210938 C 9.511719 20.5 9.492188 19.949219 9.492188 19.722656 C 9.492188 19.519531 9.542969 19.359375 9.640625 19.261719 C 9.738281 19.160156 9.855469 19.136719 9.941406 19.136719 C 10.25 19.136719 10.5625 19.417969 10.5625 19.941406 C 10.542969 20.917969 10.492188 25.40625 10.550781 27.0625 C 10.207031 27.015625 9.882812 26.980469 9.589844 26.960938 C 9.675781 25.941406 9.589844 23.097656 9.53125 21.210938 Z M 12.023438 27.382812 C 12.023438 27.371094 12.03125 27.359375 12.03125 27.347656 C 12.035156 27.332031 12.035156 27.320312 12.035156 27.304688 L 12.382812 21.773438 C 12.421875 21.445312 12.570312 21.261719 12.785156 21.269531 C 12.988281 21.28125 13.1875 21.472656 13.191406 21.796875 C 13.1875 21.839844 12.980469 25.78125 12.84375 27.675781 C 12.574219 27.5625 12.300781 27.464844 12.023438 27.382812 Z M 22.476562 11.824219 C 22.097656 11.824219 21.75 11.96875 21.5 12.226562 C 21.308594 12.421875 21.082031 12.777344 21.082031 13.375 L 21.195312 24.464844 C 21.117188 24.84375 20.917969 24.957031 20.757812 24.984375 C 20.699219 24.867188 20.65625 24.738281 20.625 24.582031 C 20.332031 22.640625 20.082031 21.707031 20.066406 21.644531 C 19.800781 20.855469 19.195312 20.320312 18.40625 20.171875 C 17.695312 20.042969 16.980469 20.269531 16.582031 20.753906 C 16.222656 21.199219 16.160156 21.785156 16.410156 22.421875 C 17.175781 24.234375 17.355469 26.035156 17.519531 27.625 C 17.777344 30.171875 18.007812 32.441406 20.769531 33.167969 L 20.789062 38.9375 C 18.871094 37.800781 17.089844 36.621094 15.484375 35.421875 C 15.789062 34.671875 15.808594 34 15.808594 33.960938 L 16.292969 24.75 C 16.398438 23.9375 15.910156 23.417969 15.371094 23.324219 C 14.886719 23.238281 14.296875 23.5 14.128906 24.28125 L 13.570312 27.925781 C 13.703125 26.117188 13.929688 21.878906 13.929688 21.816406 C 13.929688 21.023438 13.363281 20.558594 12.832031 20.527344 C 12.308594 20.503906 11.746094 20.839844 11.644531 21.703125 L 11.300781 27.195312 C 11.230469 25.714844 11.285156 20.960938 11.304688 19.949219 C 11.304688 18.941406 10.601562 18.394531 9.941406 18.394531 C 9.617188 18.394531 9.320312 18.519531 9.105469 18.746094 C 8.941406 18.914062 8.75 19.21875 8.75 19.722656 C 8.75 19.953125 8.769531 20.511719 8.789062 21.230469 C 8.84375 23.003906 8.933594 25.964844 8.847656 26.925781 L 8.375 22.019531 C 8.324219 21.347656 7.984375 20.796875 7.464844 20.550781 C 7.070312 20.359375 6.636719 20.382812 6.3125 20.609375 C 6.113281 20.746094 5.78125 21.085938 5.839844 21.785156 L 6.09375 25.492188 C 1.210938 17.203125 3.589844 9.480469 8.714844 5.953125 C 13.074219 2.957031 19.957031 2.871094 24.898438 9.660156 C 24.71875 9.871094 24.535156 10.222656 24.535156 10.761719 C 24.539062 12.988281 24.574219 17.988281 24.632812 20.046875 C 24.460938 20.042969 24.304688 20.039062 24.164062 20.035156 L 24.164062 13.742188 C 24.164062 12.496094 23.292969 11.824219 22.476562 11.824219 Z M 29.675781 21.109375 C 29.292969 20.933594 28.898438 20.789062 28.5 20.664062 L 28.730469 13.398438 C 28.789062 12.925781 29.039062 12.644531 29.378906 12.664062 C 29.691406 12.683594 30.007812 12.964844 30.007812 13.453125 C 30.003906 13.515625 29.800781 18.957031 29.675781 21.109375 Z M 38.847656 21.816406 C 38.847656 21.472656 39.050781 21.28125 39.25 21.269531 C 39.464844 21.261719 39.617188 21.445312 39.65625 21.75 L 40 27.304688 C 40 27.320312 40.003906 27.332031 40.007812 27.347656 C 40.007812 27.359375 40.011719 27.371094 40.015625 27.382812 C 39.738281 27.464844 39.464844 27.5625 39.191406 27.675781 C 39.058594 25.78125 38.851562 21.839844 38.847656 21.816406 Z M 41.472656 19.949219 C 41.472656 19.417969 41.789062 19.136719 42.097656 19.136719 C 42.183594 19.136719 42.300781 19.160156 42.398438 19.261719 C 42.496094 19.359375 42.546875 19.519531 42.546875 19.722656 C 42.546875 19.949219 42.527344 20.5 42.507812 21.210938 C 42.449219 23.097656 42.363281 25.941406 42.449219 26.960938 C 42.15625 26.980469 41.832031 27.015625 41.484375 27.0625 C 41.546875 25.40625 41.496094 20.917969 41.472656 19.949219 Z M 44.574219 20.550781 C 44.054688 20.796875 43.714844 21.347656 43.664062 22.011719 L 43.191406 26.925781 C 43.105469 25.980469 43.195312 23.007812 43.25 21.230469 C 43.269531 20.511719 43.289062 19.953125 43.289062 19.722656 C 43.289062 19.21875 43.09375 18.914062 42.933594 18.746094 C 42.714844 18.519531 42.421875 18.398438 42.097656 18.398438 C 41.4375 18.398438 40.734375 18.941406 40.734375 19.957031 C 40.753906 20.960938 40.808594 25.707031 40.738281 27.195312 L 40.394531 21.683594 C 40.292969 20.84375 39.730469 20.503906 39.207031 20.527344 C 38.675781 20.5625 38.105469 21.023438 38.109375 21.835938 C 38.109375 21.878906 38.335938 26.121094 38.46875 27.929688 L 37.902344 24.261719 C 37.742188 23.5 37.148438 23.242188 36.667969 23.324219 C 36.128906 23.417969 35.640625 23.9375 35.742188 24.722656 L 36.226562 33.949219 C 36.226562 33.992188 36.246094 34.671875 36.554688 35.421875 C 34.894531 36.664062 33.054688 37.878906 31.074219 39.042969 L 30.996094 32.835938 C 31.210938 32.714844 31.410156 32.578125 31.601562 32.417969 C 33.132812 31.128906 33.191406 29.015625 33.191406 28.941406 L 33.925781 16.964844 C 33.925781 15.539062 33.277344 14.996094 32.671875 14.964844 C 31.953125 14.925781 31.355469 15.566406 31.265625 16.445312 L 30.722656 21.679688 C 30.617188 21.609375 30.507812 21.542969 30.398438 21.480469 C 30.515625 19.617188 30.738281 13.742188 30.75 13.46875 C 30.75 12.515625 30.066406 11.960938 29.421875 11.921875 C 28.804688 11.878906 28.117188 12.296875 27.992188 13.339844 L 27.761719 20.464844 C 27.617188 20.429688 27.46875 20.394531 27.324219 20.367188 C 27.34375 19.0625 27.421875 17.046875 27.5 15.085938 C 27.5625 13.511719 27.621094 12.027344 27.644531 11.050781 C 27.644531 10.453125 27.433594 9.992188 27.128906 9.671875 C 32.070312 2.878906 38.953125 2.953125 43.316406 5.949219 C 48.445312 9.472656 50.832031 17.195312 45.945312 25.492188 L 46.199219 21.789062 C 46.253906 21.085938 45.925781 20.746094 45.726562 20.609375 C 45.398438 20.382812 44.96875 20.363281 44.574219 20.550781 Z M 44.574219 20.550781 " fill-opacity="1" fill-rule="nonzero"/></svg>