<svg xmlns="http://www.w3.org/2000/svg" xmlns:xlink="http://www.w3.org/1999/xlink" width="1366" zoomAndPan="magnify" viewBox="0 0 1024.5 225" height="300" preserveAspectRatio="xMidYMid meet" version="1.0"><defs><clipPath id="dbbc36c60d"><path d="M 0 92.789062 L 1024 92.789062 L 1024 223.972656 L 0 223.972656 Z M 0 92.789062 " clip-rule="nonzero"/></clipPath></defs><g clip-path="url(#dbbc36c60d)"><path fill="#fe700f" d="M 1038.960938 101.597656 C 1038.960938 96.710938 1034.933594 92.773438 1030.050781 92.914062 C 951.023438 95.179688 948.054688 127.53125 863.304688 127.53125 C 775.476562 127.53125 775.476562 92.789062 687.648438 92.789062 C 599.820312 92.789062 599.820312 127.53125 511.992188 127.53125 C 424.167969 127.53125 424.167969 92.789062 336.339844 92.789062 C 248.515625 92.789062 248.515625 127.53125 160.691406 127.53125 C 75.941406 127.53125 72.972656 95.179688 -6.050781 92.914062 C -10.933594 92.773438 -14.960938 96.710938 -14.960938 101.597656 L -14.960938 263.617188 C -14.960938 268.414062 -11.070312 272.300781 -6.273438 272.300781 L 1030.273438 272.300781 C 1035.070312 272.300781 1038.960938 268.414062 1038.960938 263.617188 Z M 1038.960938 101.597656 " fill-opacity="1" fill-rule="nonzero"/></g></svg>